<svg xmlns="http://www.w3.org/2000/svg" xmlns:xlink="http://www.w3.org/1999/xlink" width="100" zoomAndPan="magnify" viewBox="0 0 75 74.999997" height="100" preserveAspectRatio="xMidYMid meet" version="1.0"><defs><g/><clipPath id="f3a9a28bfb"><path d="M 37.5 0 C 16.789062 0 0 16.789062 0 37.5 C 0 58.210938 16.789062 75 37.5 75 C 58.210938 75 75 58.210938 75 37.5 C 75 16.789062 58.210938 0 37.5 0 Z M 37.5 0 " clip-rule="nonzero"/></clipPath></defs><g clip-path="url(#f3a9a28bfb)"><rect x="-7.5" width="90" fill="#ffffff" y="-7.5" height="89.999996" fill-opacity="1"/><path stroke-linecap="butt" transform="matrix(0.75, 0, 0, 0.75, 0.0000015, -0.000001)" fill="none" stroke-linejoin="miter" d="M 50.000002 0.00000133333 C 22.385416 0.00000133333 -0.000002 22.38542 -0.000002 50.000005 C -0.000002 77.614591 22.385416 100.00001 50.000002 100.00001 C 77.614588 100.00001 100.000006 77.614591 100.000006 50.000005 C 100.000006 22.38542 77.614588 0.00000133333 50.000002 0.00000133333 Z M 50.000002 0.00000133333 " stroke="#000000" stroke-width="8" stroke-opacity="1" stroke-miterlimit="4"/></g><g fill="#000000" fill-opacity="1"><g transform="translate(15.858667, 57.827126)"><g><path d="M 8.890625 0.5 C 7.585938 0.5 6.585938 0.132812 5.890625 -0.59375 C 5.203125 -1.332031 4.859375 -2.351562 4.859375 -3.65625 L 4.859375 -40.375 C 4.859375 -41.71875 5.210938 -42.734375 5.921875 -43.421875 C 6.640625 -44.117188 7.648438 -44.46875 8.953125 -44.46875 L 24.15625 -44.46875 C 29.03125 -44.46875 32.789062 -43.300781 35.4375 -40.96875 C 38.09375 -38.632812 39.421875 -35.363281 39.421875 -31.15625 C 39.421875 -28.425781 38.820312 -26.070312 37.625 -24.09375 C 36.425781 -22.113281 34.691406 -20.597656 32.421875 -19.546875 C 30.148438 -18.503906 27.394531 -17.984375 24.15625 -17.984375 L 24.734375 -18.921875 L 26.8125 -18.921875 C 28.53125 -18.921875 30.03125 -18.5 31.3125 -17.65625 C 32.601562 -16.820312 33.726562 -15.5 34.6875 -13.6875 L 39.421875 -4.921875 C 39.929688 -4.035156 40.160156 -3.171875 40.109375 -2.328125 C 40.066406 -1.492188 39.75 -0.8125 39.15625 -0.28125 C 38.570312 0.238281 37.710938 0.5 36.578125 0.5 C 35.441406 0.5 34.515625 0.257812 33.796875 -0.21875 C 33.085938 -0.707031 32.460938 -1.453125 31.921875 -2.453125 L 25.546875 -14.1875 C 24.785156 -15.625 23.890625 -16.582031 22.859375 -17.0625 C 21.835938 -17.539062 20.523438 -17.78125 18.921875 -17.78125 L 12.9375 -17.78125 L 12.9375 -3.65625 C 12.9375 -2.351562 12.597656 -1.332031 11.921875 -0.59375 C 11.242188 0.132812 10.234375 0.5 8.890625 0.5 Z M 12.9375 -23.78125 L 22.765625 -23.78125 C 25.671875 -23.78125 27.867188 -24.378906 29.359375 -25.578125 C 30.859375 -26.773438 31.609375 -28.570312 31.609375 -30.96875 C 31.609375 -33.320312 30.859375 -35.097656 29.359375 -36.296875 C 27.867188 -37.492188 25.671875 -38.09375 22.765625 -38.09375 L 12.9375 -38.09375 Z M 12.9375 -23.78125 "/></g></g></g></svg>