<svg xmlns="http://www.w3.org/2000/svg" xmlns:xlink="http://www.w3.org/1999/xlink" width="455" zoomAndPan="magnify" viewBox="0 0 341.25 112.499997" height="150" preserveAspectRatio="xMidYMid meet" version="1.0"><defs><g/><clipPath id="7ad492848e"><path d="M 0.542969 24.171875 L 64.203125 24.171875 L 64.203125 87.832031 L 0.542969 87.832031 Z M 0.542969 24.171875 " clip-rule="nonzero"/></clipPath><clipPath id="dde67cf4ce"><path d="M 32.375 24.171875 C 14.792969 24.171875 0.542969 38.421875 0.542969 56 C 0.542969 73.582031 14.792969 87.832031 32.375 87.832031 C 49.953125 87.832031 64.203125 73.582031 64.203125 56 C 64.203125 38.421875 49.953125 24.171875 32.375 24.171875 Z M 32.375 24.171875 " clip-rule="nonzero"/></clipPath><clipPath id="7d974e8172"><path d="M 0.542969 24.171875 L 63.851562 24.171875 L 63.851562 87.480469 L 0.542969 87.480469 Z M 0.542969 24.171875 " clip-rule="nonzero"/></clipPath><clipPath id="67e3e0bc3c"><path d="M 32.371094 24.171875 C 14.792969 24.171875 0.542969 38.421875 0.542969 56 C 0.542969 73.578125 14.792969 87.828125 32.371094 87.828125 C 49.949219 87.828125 64.199219 73.578125 64.199219 56 C 64.199219 38.421875 49.949219 24.171875 32.371094 24.171875 Z M 32.371094 24.171875 " clip-rule="nonzero"/></clipPath></defs><g clip-path="url(#7ad492848e)"><g clip-path="url(#dde67cf4ce)"><path fill="#ffffff" d="M 0.542969 24.171875 L 64.203125 24.171875 L 64.203125 87.832031 L 0.542969 87.832031 Z M 0.542969 24.171875 " fill-opacity="1" fill-rule="nonzero"/></g></g><g clip-path="url(#7d974e8172)"><g clip-path="url(#67e3e0bc3c)"><path stroke-linecap="butt" transform="matrix(0.744806, 0, 0, 0.744806, 0.543189, 24.170253)" fill="none" stroke-linejoin="miter" d="M 42.733125 0.00217838 C 19.132193 0.00217838 -0.000295425 19.134667 -0.000295425 42.735599 C -0.000295425 66.336531 19.132193 85.46902 42.733125 85.46902 C 66.334057 85.46902 85.466546 66.336531 85.466546 42.735599 C 85.466546 19.134667 66.334057 0.00217838 42.733125 0.00217838 Z M 42.733125 0.00217838 " stroke="#000000" stroke-width="8.02014" stroke-opacity="1" stroke-miterlimit="4"/></g></g><path stroke-linecap="butt" transform="matrix(0.744806, 0, 0, 0.744806, 15.45307, 28.443268)" fill="none" stroke-linejoin="miter" d="M 11.931656 54.431739 C 10.830279 54.431739 9.980646 54.11706 9.393245 53.492946 C 8.800599 52.868833 8.506899 52.003465 8.506899 50.902088 L 8.506899 19.87473 C 8.506899 18.726151 8.811088 17.866028 9.419468 17.283872 C 10.027848 16.691226 10.882726 16.397526 11.984103 16.397526 L 24.833499 16.397526 C 28.955795 16.397526 32.139299 17.388765 34.378765 19.365999 C 36.618231 21.337988 37.735342 24.101919 37.735342 27.663037 C 37.735342 29.970684 37.231855 31.963652 36.214393 33.636695 C 35.20742 35.304495 33.738917 36.58419 31.81413 37.47578 C 29.894588 38.362127 27.571207 38.807922 24.833499 38.807922 L 25.316007 38.000246 L 27.072965 38.000246 C 28.530978 38.000246 29.805429 38.356882 30.891071 39.06491 C 31.97147 39.778182 32.925996 40.895293 33.738917 42.426731 L 37.735342 49.847913 C 38.165403 50.592654 38.359455 51.321661 38.322743 52.034933 C 38.291275 52.737716 38.018553 53.314628 37.515066 53.765668 C 37.022069 54.206219 36.298307 54.431739 35.343781 54.431739 C 34.378765 54.431739 33.592067 54.227197 32.983687 53.818115 C 32.385797 53.409032 31.856087 52.774429 31.394558 51.914306 L 26.008301 41.99667 C 25.363209 40.7904 24.602734 39.982724 23.726877 39.573641 C 22.86151 39.164558 21.754888 38.960017 20.407013 38.960017 L 15.34068 38.960017 L 15.34068 50.902088 C 15.34068 52.003465 15.057468 52.868833 14.485801 53.492946 C 13.919379 54.11706 13.069746 54.431739 11.931656 54.431739 Z M 15.34068 33.898928 L 23.663942 33.898928 C 26.113194 33.898928 27.964556 33.390197 29.223272 32.372734 C 30.487233 31.360517 31.121836 29.839568 31.121836 27.815132 C 31.121836 25.822165 30.487233 24.31695 29.223272 23.309977 C 27.964556 22.297759 26.113194 21.789028 23.663942 21.789028 L 15.34068 21.789028 Z M 15.34068 33.898928 " stroke="#000000" stroke-width="3.999998" stroke-opacity="1" stroke-miterlimit="4"/><g fill="#000000" fill-opacity="1"><g transform="translate(18.734873, 68.662813)"><g><path d="M 5.59375 0.3125 C 4.78125 0.3125 4.15625 0.0820312 3.71875 -0.375 C 3.28125 -0.84375 3.0625 -1.484375 3.0625 -2.296875 L 3.0625 -25.421875 C 3.0625 -26.265625 3.285156 -26.90625 3.734375 -27.34375 C 4.179688 -27.78125 4.816406 -28 5.640625 -28 L 15.21875 -28 C 18.28125 -28 20.644531 -27.265625 22.3125 -25.796875 C 23.988281 -24.328125 24.828125 -22.269531 24.828125 -19.625 C 24.828125 -17.90625 24.445312 -16.421875 23.6875 -15.171875 C 22.9375 -13.929688 21.84375 -12.976562 20.40625 -12.3125 C 18.976562 -11.644531 17.25 -11.3125 15.21875 -11.3125 L 15.5625 -11.921875 L 16.875 -11.921875 C 17.96875 -11.921875 18.914062 -11.65625 19.71875 -11.125 C 20.53125 -10.59375 21.238281 -9.757812 21.84375 -8.625 L 24.828125 -3.09375 C 25.140625 -2.539062 25.28125 -2 25.25 -1.46875 C 25.226562 -0.9375 25.03125 -0.503906 24.65625 -0.171875 C 24.289062 0.148438 23.75 0.3125 23.03125 0.3125 C 22.320312 0.3125 21.738281 0.160156 21.28125 -0.140625 C 20.832031 -0.441406 20.4375 -0.910156 20.09375 -1.546875 L 16.09375 -8.9375 C 15.613281 -9.832031 15.046875 -10.429688 14.390625 -10.734375 C 13.742188 -11.046875 12.921875 -11.203125 11.921875 -11.203125 L 8.140625 -11.203125 L 8.140625 -2.296875 C 8.140625 -1.484375 7.925781 -0.84375 7.5 -0.375 C 7.082031 0.0820312 6.445312 0.3125 5.59375 0.3125 Z M 8.140625 -14.96875 L 14.34375 -14.96875 C 16.164062 -14.96875 17.546875 -15.34375 18.484375 -16.09375 C 19.429688 -16.851562 19.90625 -17.988281 19.90625 -19.5 C 19.90625 -20.976562 19.429688 -22.09375 18.484375 -22.84375 C 17.546875 -23.601562 16.164062 -23.984375 14.34375 -23.984375 L 8.140625 -23.984375 Z M 8.140625 -14.96875 "/></g></g></g><g fill="#000000" fill-opacity="1"><g transform="translate(78.846669, 80.95223)"><g><path d="M 1.96875 0 C 1.75 0 1.582031 -0.0546875 1.46875 -0.171875 C 1.351562 -0.285156 1.296875 -0.453125 1.296875 -0.671875 L 1.296875 -9.828125 C 1.296875 -10.046875 1.351562 -10.210938 1.46875 -10.328125 C 1.582031 -10.441406 1.75 -10.5 1.96875 -10.5 L 4.84375 -10.5 C 6.539062 -10.5 7.847656 -10.050781 8.765625 -9.15625 C 9.691406 -8.257812 10.15625 -6.957031 10.15625 -5.25 C 10.15625 -4.394531 10.035156 -3.644531 9.796875 -3 C 9.566406 -2.351562 9.222656 -1.804688 8.765625 -1.359375 C 8.304688 -0.910156 7.75 -0.570312 7.09375 -0.34375 C 6.445312 -0.113281 5.695312 0 4.84375 0 Z M 2.515625 -1.046875 L 4.75 -1.046875 C 5.445312 -1.046875 6.050781 -1.132812 6.5625 -1.3125 C 7.070312 -1.488281 7.5 -1.75 7.84375 -2.09375 C 8.1875 -2.445312 8.441406 -2.890625 8.609375 -3.421875 C 8.773438 -3.953125 8.859375 -4.5625 8.859375 -5.25 C 8.859375 -6.65625 8.515625 -7.707031 7.828125 -8.40625 C 7.148438 -9.101562 6.125 -9.453125 4.75 -9.453125 L 2.515625 -9.453125 Z M 2.515625 -1.046875 "/></g></g></g><g fill="#000000" fill-opacity="1"><g transform="translate(91.165753, 80.95223)"><g><path d="M 1.96875 0 C 1.75 0 1.582031 -0.0546875 1.46875 -0.171875 C 1.351562 -0.285156 1.296875 -0.453125 1.296875 -0.671875 L 1.296875 -9.828125 C 1.296875 -10.046875 1.351562 -10.210938 1.46875 -10.328125 C 1.582031 -10.441406 1.75 -10.5 1.96875 -10.5 L 7.5 -10.5 C 7.675781 -10.5 7.804688 -10.453125 7.890625 -10.359375 C 7.984375 -10.273438 8.03125 -10.148438 8.03125 -9.984375 C 8.03125 -9.816406 7.984375 -9.6875 7.890625 -9.59375 C 7.804688 -9.507812 7.675781 -9.46875 7.5 -9.46875 L 2.484375 -9.46875 L 2.484375 -5.84375 L 7.1875 -5.84375 C 7.363281 -5.84375 7.492188 -5.796875 7.578125 -5.703125 C 7.671875 -5.617188 7.71875 -5.492188 7.71875 -5.328125 C 7.71875 -5.160156 7.671875 -5.03125 7.578125 -4.9375 C 7.492188 -4.851562 7.363281 -4.8125 7.1875 -4.8125 L 2.484375 -4.8125 L 2.484375 -1.03125 L 7.5 -1.03125 C 7.675781 -1.03125 7.804688 -0.984375 7.890625 -0.890625 C 7.984375 -0.804688 8.03125 -0.679688 8.03125 -0.515625 C 8.03125 -0.347656 7.984375 -0.21875 7.890625 -0.125 C 7.804688 -0.0390625 7.675781 0 7.5 0 Z M 1.96875 0 "/></g></g></g><g fill="#000000" fill-opacity="1"><g transform="translate(101.116358, 80.95223)"><g><path d="M 4.6875 0.140625 C 4.21875 0.140625 3.757812 0.0976562 3.3125 0.015625 C 2.875 -0.0664062 2.460938 -0.179688 2.078125 -0.328125 C 1.691406 -0.472656 1.347656 -0.660156 1.046875 -0.890625 C 0.921875 -0.984375 0.835938 -1.085938 0.796875 -1.203125 C 0.753906 -1.316406 0.742188 -1.429688 0.765625 -1.546875 C 0.785156 -1.660156 0.832031 -1.753906 0.90625 -1.828125 C 0.988281 -1.910156 1.082031 -1.957031 1.1875 -1.96875 C 1.300781 -1.976562 1.421875 -1.941406 1.546875 -1.859375 C 1.992188 -1.546875 2.46875 -1.316406 2.96875 -1.171875 C 3.476562 -1.023438 4.050781 -0.953125 4.6875 -0.953125 C 5.582031 -0.953125 6.242188 -1.117188 6.671875 -1.453125 C 7.109375 -1.785156 7.328125 -2.222656 7.328125 -2.765625 C 7.328125 -3.210938 7.171875 -3.5625 6.859375 -3.8125 C 6.546875 -4.070312 6.019531 -4.273438 5.28125 -4.421875 L 3.734375 -4.734375 C 2.804688 -4.929688 2.109375 -5.253906 1.640625 -5.703125 C 1.179688 -6.160156 0.953125 -6.765625 0.953125 -7.515625 C 0.953125 -7.984375 1.046875 -8.40625 1.234375 -8.78125 C 1.421875 -9.164062 1.679688 -9.492188 2.015625 -9.765625 C 2.359375 -10.046875 2.765625 -10.257812 3.234375 -10.40625 C 3.703125 -10.550781 4.21875 -10.625 4.78125 -10.625 C 5.40625 -10.625 5.988281 -10.535156 6.53125 -10.359375 C 7.070312 -10.191406 7.5625 -9.9375 8 -9.59375 C 8.101562 -9.5 8.175781 -9.394531 8.21875 -9.28125 C 8.257812 -9.164062 8.265625 -9.054688 8.234375 -8.953125 C 8.203125 -8.847656 8.148438 -8.757812 8.078125 -8.6875 C 8.003906 -8.625 7.910156 -8.585938 7.796875 -8.578125 C 7.679688 -8.566406 7.554688 -8.609375 7.421875 -8.703125 C 7.015625 -8.992188 6.597656 -9.207031 6.171875 -9.34375 C 5.753906 -9.476562 5.285156 -9.546875 4.765625 -9.546875 C 4.234375 -9.546875 3.773438 -9.460938 3.390625 -9.296875 C 3.015625 -9.140625 2.71875 -8.910156 2.5 -8.609375 C 2.289062 -8.304688 2.1875 -7.957031 2.1875 -7.5625 C 2.1875 -7.082031 2.332031 -6.703125 2.625 -6.421875 C 2.914062 -6.148438 3.394531 -5.953125 4.0625 -5.828125 L 5.609375 -5.5 C 6.617188 -5.289062 7.363281 -4.972656 7.84375 -4.546875 C 8.320312 -4.128906 8.5625 -3.554688 8.5625 -2.828125 C 8.5625 -2.390625 8.472656 -1.988281 8.296875 -1.625 C 8.117188 -1.257812 7.859375 -0.941406 7.515625 -0.671875 C 7.179688 -0.410156 6.773438 -0.207031 6.296875 -0.0625 C 5.816406 0.0703125 5.28125 0.140625 4.6875 0.140625 Z M 4.6875 0.140625 "/></g></g></g><g fill="#000000" fill-opacity="1"><g transform="translate(111.543639, 80.95223)"><g><path d="M 1.96875 0 C 1.75 0 1.582031 -0.0546875 1.46875 -0.171875 C 1.351562 -0.285156 1.296875 -0.453125 1.296875 -0.671875 L 1.296875 -9.828125 C 1.296875 -10.046875 1.351562 -10.210938 1.46875 -10.328125 C 1.582031 -10.441406 1.75 -10.5 1.96875 -10.5 L 7.5 -10.5 C 7.675781 -10.5 7.804688 -10.453125 7.890625 -10.359375 C 7.984375 -10.273438 8.03125 -10.148438 8.03125 -9.984375 C 8.03125 -9.816406 7.984375 -9.6875 7.890625 -9.59375 C 7.804688 -9.507812 7.675781 -9.46875 7.5 -9.46875 L 2.484375 -9.46875 L 2.484375 -5.84375 L 7.1875 -5.84375 C 7.363281 -5.84375 7.492188 -5.796875 7.578125 -5.703125 C 7.671875 -5.617188 7.71875 -5.492188 7.71875 -5.328125 C 7.71875 -5.160156 7.671875 -5.03125 7.578125 -4.9375 C 7.492188 -4.851562 7.363281 -4.8125 7.1875 -4.8125 L 2.484375 -4.8125 L 2.484375 -1.03125 L 7.5 -1.03125 C 7.675781 -1.03125 7.804688 -0.984375 7.890625 -0.890625 C 7.984375 -0.804688 8.03125 -0.679688 8.03125 -0.515625 C 8.03125 -0.347656 7.984375 -0.21875 7.890625 -0.125 C 7.804688 -0.0390625 7.675781 0 7.5 0 Z M 1.96875 0 "/></g></g></g><g fill="#000000" fill-opacity="1"><g transform="translate(121.494245, 80.95223)"><g><path d="M 1.875 0.109375 C 1.6875 0.109375 1.539062 0.0546875 1.4375 -0.046875 C 1.34375 -0.148438 1.296875 -0.300781 1.296875 -0.5 L 1.296875 -9.984375 C 1.296875 -10.179688 1.34375 -10.332031 1.4375 -10.4375 C 1.539062 -10.550781 1.671875 -10.609375 1.828125 -10.609375 C 1.984375 -10.609375 2.097656 -10.578125 2.171875 -10.515625 C 2.253906 -10.460938 2.34375 -10.367188 2.4375 -10.234375 L 8.9375 -1.578125 L 8.578125 -1.578125 L 8.578125 -10 C 8.578125 -10.195312 8.625 -10.347656 8.71875 -10.453125 C 8.820312 -10.554688 8.96875 -10.609375 9.15625 -10.609375 C 9.332031 -10.609375 9.46875 -10.554688 9.5625 -10.453125 C 9.65625 -10.347656 9.703125 -10.195312 9.703125 -10 L 9.703125 -0.484375 C 9.703125 -0.296875 9.660156 -0.148438 9.578125 -0.046875 C 9.492188 0.0546875 9.375 0.109375 9.21875 0.109375 C 9.070312 0.109375 8.953125 0.078125 8.859375 0.015625 C 8.765625 -0.046875 8.671875 -0.140625 8.578125 -0.265625 L 2.09375 -8.921875 L 2.4375 -8.921875 L 2.4375 -0.5 C 2.4375 -0.300781 2.382812 -0.148438 2.28125 -0.046875 C 2.1875 0.0546875 2.050781 0.109375 1.875 0.109375 Z M 1.875 0.109375 "/></g></g></g><g fill="#000000" fill-opacity="1"><g transform="translate(133.783539, 80.95223)"><g><path d="M 5.140625 0.109375 C 4.953125 0.109375 4.796875 0.0664062 4.671875 -0.015625 C 4.554688 -0.109375 4.460938 -0.25 4.390625 -0.4375 L 0.296875 -9.796875 C 0.222656 -9.960938 0.203125 -10.101562 0.234375 -10.21875 C 0.265625 -10.332031 0.332031 -10.425781 0.4375 -10.5 C 0.539062 -10.570312 0.660156 -10.609375 0.796875 -10.609375 C 0.992188 -10.609375 1.140625 -10.5625 1.234375 -10.46875 C 1.328125 -10.382812 1.398438 -10.265625 1.453125 -10.109375 L 5.390625 -0.984375 L 4.90625 -0.984375 L 8.828125 -10.125 C 8.898438 -10.269531 8.984375 -10.382812 9.078125 -10.46875 C 9.179688 -10.5625 9.320312 -10.609375 9.5 -10.609375 C 9.632812 -10.609375 9.75 -10.570312 9.84375 -10.5 C 9.9375 -10.425781 9.992188 -10.328125 10.015625 -10.203125 C 10.046875 -10.085938 10.03125 -9.953125 9.96875 -9.796875 L 5.859375 -0.4375 C 5.796875 -0.25 5.707031 -0.109375 5.59375 -0.015625 C 5.476562 0.0664062 5.328125 0.109375 5.140625 0.109375 Z M 5.140625 0.109375 "/></g></g></g><g fill="#000000" fill-opacity="1"><g transform="translate(145.313127, 80.95223)"><g><path d="M 5.703125 0.140625 C 4.734375 0.140625 3.882812 -0.078125 3.15625 -0.515625 C 2.4375 -0.960938 1.878906 -1.585938 1.484375 -2.390625 C 1.097656 -3.203125 0.90625 -4.15625 0.90625 -5.25 C 0.90625 -6.082031 1.015625 -6.828125 1.234375 -7.484375 C 1.460938 -8.148438 1.785156 -8.710938 2.203125 -9.171875 C 2.617188 -9.640625 3.117188 -10 3.703125 -10.25 C 4.296875 -10.5 4.960938 -10.625 5.703125 -10.625 C 6.691406 -10.625 7.546875 -10.40625 8.265625 -9.96875 C 8.984375 -9.539062 9.539062 -8.925781 9.9375 -8.125 C 10.332031 -7.320312 10.53125 -6.367188 10.53125 -5.265625 C 10.53125 -4.429688 10.414062 -3.679688 10.1875 -3.015625 C 9.957031 -2.359375 9.632812 -1.796875 9.21875 -1.328125 C 8.800781 -0.859375 8.296875 -0.492188 7.703125 -0.234375 C 7.109375 0.015625 6.441406 0.140625 5.703125 0.140625 Z M 5.703125 -0.953125 C 6.453125 -0.953125 7.085938 -1.117188 7.609375 -1.453125 C 8.128906 -1.796875 8.53125 -2.289062 8.8125 -2.9375 C 9.09375 -3.582031 9.234375 -4.351562 9.234375 -5.25 C 9.234375 -6.613281 8.925781 -7.671875 8.3125 -8.421875 C 7.707031 -9.171875 6.835938 -9.546875 5.703125 -9.546875 C 4.960938 -9.546875 4.332031 -9.375 3.8125 -9.03125 C 3.289062 -8.695312 2.890625 -8.207031 2.609375 -7.5625 C 2.335938 -6.925781 2.203125 -6.15625 2.203125 -5.25 C 2.203125 -3.90625 2.507812 -2.851562 3.125 -2.09375 C 3.738281 -1.332031 4.597656 -0.953125 5.703125 -0.953125 Z M 5.703125 -0.953125 "/></g></g></g><g fill="#000000" fill-opacity="1"><g transform="translate(158.004612, 80.95223)"><g><path d="M 1.921875 0 C 1.722656 0 1.566406 -0.0546875 1.453125 -0.171875 C 1.347656 -0.285156 1.296875 -0.441406 1.296875 -0.640625 L 1.296875 -9.9375 C 1.296875 -10.144531 1.347656 -10.300781 1.453125 -10.40625 C 1.554688 -10.519531 1.707031 -10.578125 1.90625 -10.578125 C 2.101562 -10.578125 2.253906 -10.519531 2.359375 -10.40625 C 2.460938 -10.300781 2.515625 -10.144531 2.515625 -9.9375 L 2.515625 -1.078125 L 7.40625 -1.078125 C 7.582031 -1.078125 7.71875 -1.03125 7.8125 -0.9375 C 7.914062 -0.84375 7.96875 -0.707031 7.96875 -0.53125 C 7.96875 -0.363281 7.914062 -0.234375 7.8125 -0.140625 C 7.71875 -0.046875 7.582031 0 7.40625 0 Z M 1.921875 0 "/></g></g></g><g fill="#000000" fill-opacity="1"><g transform="translate(167.359367, 80.95223)"><g><path d="M 5.140625 0.109375 C 4.953125 0.109375 4.796875 0.0664062 4.671875 -0.015625 C 4.554688 -0.109375 4.460938 -0.25 4.390625 -0.4375 L 0.296875 -9.796875 C 0.222656 -9.960938 0.203125 -10.101562 0.234375 -10.21875 C 0.265625 -10.332031 0.332031 -10.425781 0.4375 -10.5 C 0.539062 -10.570312 0.660156 -10.609375 0.796875 -10.609375 C 0.992188 -10.609375 1.140625 -10.5625 1.234375 -10.46875 C 1.328125 -10.382812 1.398438 -10.265625 1.453125 -10.109375 L 5.390625 -0.984375 L 4.90625 -0.984375 L 8.828125 -10.125 C 8.898438 -10.269531 8.984375 -10.382812 9.078125 -10.46875 C 9.179688 -10.5625 9.320312 -10.609375 9.5 -10.609375 C 9.632812 -10.609375 9.75 -10.570312 9.84375 -10.5 C 9.9375 -10.425781 9.992188 -10.328125 10.015625 -10.203125 C 10.046875 -10.085938 10.03125 -9.953125 9.96875 -9.796875 L 5.859375 -0.4375 C 5.796875 -0.25 5.707031 -0.109375 5.59375 -0.015625 C 5.476562 0.0664062 5.328125 0.109375 5.140625 0.109375 Z M 5.140625 0.109375 "/></g></g></g><g fill="#000000" fill-opacity="1"><g transform="translate(178.888955, 80.95223)"><g><path d="M 1.96875 0 C 1.75 0 1.582031 -0.0546875 1.46875 -0.171875 C 1.351562 -0.285156 1.296875 -0.453125 1.296875 -0.671875 L 1.296875 -9.828125 C 1.296875 -10.046875 1.351562 -10.210938 1.46875 -10.328125 C 1.582031 -10.441406 1.75 -10.5 1.96875 -10.5 L 7.5 -10.5 C 7.675781 -10.5 7.804688 -10.453125 7.890625 -10.359375 C 7.984375 -10.273438 8.03125 -10.148438 8.03125 -9.984375 C 8.03125 -9.816406 7.984375 -9.6875 7.890625 -9.59375 C 7.804688 -9.507812 7.675781 -9.46875 7.5 -9.46875 L 2.484375 -9.46875 L 2.484375 -5.84375 L 7.1875 -5.84375 C 7.363281 -5.84375 7.492188 -5.796875 7.578125 -5.703125 C 7.671875 -5.617188 7.71875 -5.492188 7.71875 -5.328125 C 7.71875 -5.160156 7.671875 -5.03125 7.578125 -4.9375 C 7.492188 -4.851562 7.363281 -4.8125 7.1875 -4.8125 L 2.484375 -4.8125 L 2.484375 -1.03125 L 7.5 -1.03125 C 7.675781 -1.03125 7.804688 -0.984375 7.890625 -0.890625 C 7.984375 -0.804688 8.03125 -0.679688 8.03125 -0.515625 C 8.03125 -0.347656 7.984375 -0.21875 7.890625 -0.125 C 7.804688 -0.0390625 7.675781 0 7.5 0 Z M 1.96875 0 "/></g></g></g><g fill="#000000" fill-opacity="1"><g transform="translate(188.839558, 80.95223)"><g><path d="M 1.96875 0 C 1.75 0 1.582031 -0.0546875 1.46875 -0.171875 C 1.351562 -0.285156 1.296875 -0.453125 1.296875 -0.671875 L 1.296875 -9.828125 C 1.296875 -10.046875 1.351562 -10.210938 1.46875 -10.328125 C 1.582031 -10.441406 1.75 -10.5 1.96875 -10.5 L 4.84375 -10.5 C 6.539062 -10.5 7.847656 -10.050781 8.765625 -9.15625 C 9.691406 -8.257812 10.15625 -6.957031 10.15625 -5.25 C 10.15625 -4.394531 10.035156 -3.644531 9.796875 -3 C 9.566406 -2.351562 9.222656 -1.804688 8.765625 -1.359375 C 8.304688 -0.910156 7.75 -0.570312 7.09375 -0.34375 C 6.445312 -0.113281 5.695312 0 4.84375 0 Z M 2.515625 -1.046875 L 4.75 -1.046875 C 5.445312 -1.046875 6.050781 -1.132812 6.5625 -1.3125 C 7.070312 -1.488281 7.5 -1.75 7.84375 -2.09375 C 8.1875 -2.445312 8.441406 -2.890625 8.609375 -3.421875 C 8.773438 -3.953125 8.859375 -4.5625 8.859375 -5.25 C 8.859375 -6.65625 8.515625 -7.707031 7.828125 -8.40625 C 7.148438 -9.101562 6.125 -9.453125 4.75 -9.453125 L 2.515625 -9.453125 Z M 2.515625 -1.046875 "/></g></g></g><g fill="#000000" fill-opacity="1"><g transform="translate(201.158639, 80.95223)"><g><path d="M 5.703125 0.140625 C 4.734375 0.140625 3.882812 -0.078125 3.15625 -0.515625 C 2.4375 -0.960938 1.878906 -1.585938 1.484375 -2.390625 C 1.097656 -3.203125 0.90625 -4.15625 0.90625 -5.25 C 0.90625 -6.082031 1.015625 -6.828125 1.234375 -7.484375 C 1.460938 -8.148438 1.785156 -8.710938 2.203125 -9.171875 C 2.617188 -9.640625 3.117188 -10 3.703125 -10.25 C 4.296875 -10.5 4.960938 -10.625 5.703125 -10.625 C 6.691406 -10.625 7.546875 -10.40625 8.265625 -9.96875 C 8.984375 -9.539062 9.539062 -8.925781 9.9375 -8.125 C 10.332031 -7.320312 10.53125 -6.367188 10.53125 -5.265625 C 10.53125 -4.429688 10.414062 -3.679688 10.1875 -3.015625 C 9.957031 -2.359375 9.632812 -1.796875 9.21875 -1.328125 C 8.800781 -0.859375 8.296875 -0.492188 7.703125 -0.234375 C 7.109375 0.015625 6.441406 0.140625 5.703125 0.140625 Z M 5.703125 -0.953125 C 6.453125 -0.953125 7.085938 -1.117188 7.609375 -1.453125 C 8.128906 -1.796875 8.53125 -2.289062 8.8125 -2.9375 C 9.09375 -3.582031 9.234375 -4.351562 9.234375 -5.25 C 9.234375 -6.613281 8.925781 -7.671875 8.3125 -8.421875 C 7.707031 -9.171875 6.835938 -9.546875 5.703125 -9.546875 C 4.960938 -9.546875 4.332031 -9.375 3.8125 -9.03125 C 3.289062 -8.695312 2.890625 -8.207031 2.609375 -7.5625 C 2.335938 -6.925781 2.203125 -6.15625 2.203125 -5.25 C 2.203125 -3.90625 2.507812 -2.851562 3.125 -2.09375 C 3.738281 -1.332031 4.597656 -0.953125 5.703125 -0.953125 Z M 5.703125 -0.953125 "/></g></g></g><g fill="#000000" fill-opacity="1"><g transform="translate(213.850124, 80.95223)"><g><path d="M 1.90625 0.109375 C 1.707031 0.109375 1.554688 0.0507812 1.453125 -0.0625 C 1.347656 -0.175781 1.296875 -0.332031 1.296875 -0.53125 L 1.296875 -9.875 C 1.296875 -10.082031 1.347656 -10.238281 1.453125 -10.34375 C 1.566406 -10.445312 1.722656 -10.5 1.921875 -10.5 L 5.453125 -10.5 C 6.566406 -10.5 7.425781 -10.234375 8.03125 -9.703125 C 8.644531 -9.179688 8.953125 -8.429688 8.953125 -7.453125 C 8.953125 -6.835938 8.8125 -6.304688 8.53125 -5.859375 C 8.257812 -5.410156 7.859375 -5.066406 7.328125 -4.828125 C 6.804688 -4.597656 6.179688 -4.484375 5.453125 -4.484375 L 5.59375 -4.671875 L 5.890625 -4.671875 C 6.285156 -4.671875 6.625 -4.570312 6.90625 -4.375 C 7.195312 -4.175781 7.460938 -3.859375 7.703125 -3.421875 L 9.125 -0.765625 C 9.207031 -0.617188 9.242188 -0.476562 9.234375 -0.34375 C 9.234375 -0.21875 9.1875 -0.109375 9.09375 -0.015625 C 9.007812 0.0664062 8.882812 0.109375 8.71875 0.109375 C 8.539062 0.109375 8.394531 0.0664062 8.28125 -0.015625 C 8.175781 -0.0976562 8.085938 -0.210938 8.015625 -0.359375 L 6.390625 -3.359375 C 6.160156 -3.785156 5.894531 -4.070312 5.59375 -4.21875 C 5.300781 -4.363281 4.910156 -4.4375 4.421875 -4.4375 L 2.515625 -4.4375 L 2.515625 -0.53125 C 2.515625 -0.332031 2.460938 -0.175781 2.359375 -0.0625 C 2.265625 0.0507812 2.113281 0.109375 1.90625 0.109375 Z M 2.515625 -5.40625 L 5.265625 -5.40625 C 6.085938 -5.40625 6.707031 -5.578125 7.125 -5.921875 C 7.539062 -6.265625 7.75 -6.773438 7.75 -7.453125 C 7.75 -8.117188 7.539062 -8.625 7.125 -8.96875 C 6.707031 -9.3125 6.085938 -9.484375 5.265625 -9.484375 L 2.515625 -9.484375 Z M 2.515625 -5.40625 "/></g></g></g><g fill="#000000" fill-opacity="1"><g transform="translate(225.081794, 80.95223)"><g/></g></g><g fill="#000000" fill-opacity="1"><g transform="translate(230.191155, 80.95223)"><g><path d="M 1.953125 0.109375 C 1.742188 0.109375 1.582031 0.0507812 1.46875 -0.0625 C 1.351562 -0.175781 1.296875 -0.34375 1.296875 -0.5625 L 1.296875 -9.828125 C 1.296875 -10.046875 1.351562 -10.210938 1.46875 -10.328125 C 1.582031 -10.441406 1.75 -10.5 1.96875 -10.5 L 7.375 -10.5 C 7.539062 -10.5 7.664062 -10.453125 7.75 -10.359375 C 7.84375 -10.273438 7.890625 -10.148438 7.890625 -9.984375 C 7.890625 -9.816406 7.84375 -9.6875 7.75 -9.59375 C 7.664062 -9.507812 7.539062 -9.46875 7.375 -9.46875 L 2.515625 -9.46875 L 2.515625 -5.8125 L 7.0625 -5.8125 C 7.226562 -5.8125 7.359375 -5.765625 7.453125 -5.671875 C 7.546875 -5.585938 7.59375 -5.460938 7.59375 -5.296875 C 7.59375 -5.128906 7.546875 -5 7.453125 -4.90625 C 7.359375 -4.820312 7.226562 -4.78125 7.0625 -4.78125 L 2.515625 -4.78125 L 2.515625 -0.5625 C 2.515625 -0.113281 2.328125 0.109375 1.953125 0.109375 Z M 1.953125 0.109375 "/></g></g></g><g fill="#000000" fill-opacity="1"><g transform="translate(239.620395, 80.95223)"><g><path d="M 5.4375 0.140625 C 4.738281 0.140625 4.128906 0.046875 3.609375 -0.140625 C 3.085938 -0.328125 2.644531 -0.597656 2.28125 -0.953125 C 1.925781 -1.316406 1.660156 -1.765625 1.484375 -2.296875 C 1.304688 -2.835938 1.21875 -3.457031 1.21875 -4.15625 L 1.21875 -9.984375 C 1.21875 -10.191406 1.269531 -10.347656 1.375 -10.453125 C 1.476562 -10.554688 1.628906 -10.609375 1.828125 -10.609375 C 2.023438 -10.609375 2.175781 -10.554688 2.28125 -10.453125 C 2.382812 -10.347656 2.4375 -10.191406 2.4375 -9.984375 L 2.4375 -4.21875 C 2.4375 -3.125 2.6875 -2.304688 3.1875 -1.765625 C 3.695312 -1.222656 4.445312 -0.953125 5.4375 -0.953125 C 6.414062 -0.953125 7.148438 -1.222656 7.640625 -1.765625 C 8.140625 -2.304688 8.390625 -3.125 8.390625 -4.21875 L 8.390625 -9.984375 C 8.390625 -10.191406 8.441406 -10.347656 8.546875 -10.453125 C 8.660156 -10.554688 8.820312 -10.609375 9.03125 -10.609375 C 9.21875 -10.609375 9.363281 -10.554688 9.46875 -10.453125 C 9.570312 -10.347656 9.625 -10.191406 9.625 -9.984375 L 9.625 -4.15625 C 9.625 -3.226562 9.46875 -2.441406 9.15625 -1.796875 C 8.84375 -1.148438 8.375 -0.664062 7.75 -0.34375 C 7.125 -0.0195312 6.351562 0.140625 5.4375 0.140625 Z M 5.4375 0.140625 "/></g></g></g><g fill="#000000" fill-opacity="1"><g transform="translate(251.730932, 80.95223)"><g><path d="M 1.921875 0 C 1.722656 0 1.566406 -0.0546875 1.453125 -0.171875 C 1.347656 -0.285156 1.296875 -0.441406 1.296875 -0.640625 L 1.296875 -9.9375 C 1.296875 -10.144531 1.347656 -10.300781 1.453125 -10.40625 C 1.554688 -10.519531 1.707031 -10.578125 1.90625 -10.578125 C 2.101562 -10.578125 2.253906 -10.519531 2.359375 -10.40625 C 2.460938 -10.300781 2.515625 -10.144531 2.515625 -9.9375 L 2.515625 -1.078125 L 7.40625 -1.078125 C 7.582031 -1.078125 7.71875 -1.03125 7.8125 -0.9375 C 7.914062 -0.84375 7.96875 -0.707031 7.96875 -0.53125 C 7.96875 -0.363281 7.914062 -0.234375 7.8125 -0.140625 C 7.71875 -0.046875 7.582031 0 7.40625 0 Z M 1.921875 0 "/></g></g></g><g fill="#000000" fill-opacity="1"><g transform="translate(261.085687, 80.95223)"><g><path d="M 1.921875 0 C 1.722656 0 1.566406 -0.0546875 1.453125 -0.171875 C 1.347656 -0.285156 1.296875 -0.441406 1.296875 -0.640625 L 1.296875 -9.9375 C 1.296875 -10.144531 1.347656 -10.300781 1.453125 -10.40625 C 1.554688 -10.519531 1.707031 -10.578125 1.90625 -10.578125 C 2.101562 -10.578125 2.253906 -10.519531 2.359375 -10.40625 C 2.460938 -10.300781 2.515625 -10.144531 2.515625 -9.9375 L 2.515625 -1.078125 L 7.40625 -1.078125 C 7.582031 -1.078125 7.71875 -1.03125 7.8125 -0.9375 C 7.914062 -0.84375 7.96875 -0.707031 7.96875 -0.53125 C 7.96875 -0.363281 7.914062 -0.234375 7.8125 -0.140625 C 7.71875 -0.046875 7.582031 0 7.40625 0 Z M 1.921875 0 "/></g></g></g><g fill="#000000" fill-opacity="1"><g transform="translate(270.440453, 80.95223)"><g/></g></g><g fill="#000000" fill-opacity="1"><g transform="translate(275.549814, 80.95223)"><g><path d="M 4.6875 0.140625 C 4.21875 0.140625 3.757812 0.0976562 3.3125 0.015625 C 2.875 -0.0664062 2.460938 -0.179688 2.078125 -0.328125 C 1.691406 -0.472656 1.347656 -0.660156 1.046875 -0.890625 C 0.921875 -0.984375 0.835938 -1.085938 0.796875 -1.203125 C 0.753906 -1.316406 0.742188 -1.429688 0.765625 -1.546875 C 0.785156 -1.660156 0.832031 -1.753906 0.90625 -1.828125 C 0.988281 -1.910156 1.082031 -1.957031 1.1875 -1.96875 C 1.300781 -1.976562 1.421875 -1.941406 1.546875 -1.859375 C 1.992188 -1.546875 2.46875 -1.316406 2.96875 -1.171875 C 3.476562 -1.023438 4.050781 -0.953125 4.6875 -0.953125 C 5.582031 -0.953125 6.242188 -1.117188 6.671875 -1.453125 C 7.109375 -1.785156 7.328125 -2.222656 7.328125 -2.765625 C 7.328125 -3.210938 7.171875 -3.5625 6.859375 -3.8125 C 6.546875 -4.070312 6.019531 -4.273438 5.28125 -4.421875 L 3.734375 -4.734375 C 2.804688 -4.929688 2.109375 -5.253906 1.640625 -5.703125 C 1.179688 -6.160156 0.953125 -6.765625 0.953125 -7.515625 C 0.953125 -7.984375 1.046875 -8.40625 1.234375 -8.78125 C 1.421875 -9.164062 1.679688 -9.492188 2.015625 -9.765625 C 2.359375 -10.046875 2.765625 -10.257812 3.234375 -10.40625 C 3.703125 -10.550781 4.21875 -10.625 4.78125 -10.625 C 5.40625 -10.625 5.988281 -10.535156 6.53125 -10.359375 C 7.070312 -10.191406 7.5625 -9.9375 8 -9.59375 C 8.101562 -9.5 8.175781 -9.394531 8.21875 -9.28125 C 8.257812 -9.164062 8.265625 -9.054688 8.234375 -8.953125 C 8.203125 -8.847656 8.148438 -8.757812 8.078125 -8.6875 C 8.003906 -8.625 7.910156 -8.585938 7.796875 -8.578125 C 7.679688 -8.566406 7.554688 -8.609375 7.421875 -8.703125 C 7.015625 -8.992188 6.597656 -9.207031 6.171875 -9.34375 C 5.753906 -9.476562 5.285156 -9.546875 4.765625 -9.546875 C 4.234375 -9.546875 3.773438 -9.460938 3.390625 -9.296875 C 3.015625 -9.140625 2.71875 -8.910156 2.5 -8.609375 C 2.289062 -8.304688 2.1875 -7.957031 2.1875 -7.5625 C 2.1875 -7.082031 2.332031 -6.703125 2.625 -6.421875 C 2.914062 -6.148438 3.394531 -5.953125 4.0625 -5.828125 L 5.609375 -5.5 C 6.617188 -5.289062 7.363281 -4.972656 7.84375 -4.546875 C 8.320312 -4.128906 8.5625 -3.554688 8.5625 -2.828125 C 8.5625 -2.390625 8.472656 -1.988281 8.296875 -1.625 C 8.117188 -1.257812 7.859375 -0.941406 7.515625 -0.671875 C 7.179688 -0.410156 6.773438 -0.207031 6.296875 -0.0625 C 5.816406 0.0703125 5.28125 0.140625 4.6875 0.140625 Z M 4.6875 0.140625 "/></g></g></g><g fill="#000000" fill-opacity="1"><g transform="translate(285.977104, 80.95223)"><g><path d="M 4.484375 0.109375 C 4.296875 0.109375 4.144531 0.0507812 4.03125 -0.0625 C 3.925781 -0.175781 3.875 -0.332031 3.875 -0.53125 L 3.875 -9.4375 L 0.515625 -9.4375 C 0.335938 -9.4375 0.195312 -9.484375 0.09375 -9.578125 C 0 -9.679688 -0.046875 -9.816406 -0.046875 -9.984375 C -0.046875 -10.148438 0 -10.273438 0.09375 -10.359375 C 0.195312 -10.453125 0.335938 -10.5 0.515625 -10.5 L 8.453125 -10.5 C 8.628906 -10.5 8.769531 -10.453125 8.875 -10.359375 C 8.976562 -10.273438 9.03125 -10.148438 9.03125 -9.984375 C 9.03125 -9.804688 8.976562 -9.671875 8.875 -9.578125 C 8.769531 -9.484375 8.628906 -9.4375 8.453125 -9.4375 L 5.109375 -9.4375 L 5.109375 -0.53125 C 5.109375 -0.332031 5.054688 -0.175781 4.953125 -0.0625 C 4.847656 0.0507812 4.691406 0.109375 4.484375 0.109375 Z M 4.484375 0.109375 "/></g></g></g><g fill="#000000" fill-opacity="1"><g transform="translate(296.210736, 80.95223)"><g><path d="M 1.078125 0.109375 C 0.910156 0.109375 0.78125 0.0703125 0.6875 0 C 0.59375 -0.0820312 0.535156 -0.179688 0.515625 -0.296875 C 0.503906 -0.421875 0.535156 -0.566406 0.609375 -0.734375 L 4.703125 -10.046875 C 4.796875 -10.242188 4.90625 -10.382812 5.03125 -10.46875 C 5.15625 -10.5625 5.289062 -10.609375 5.4375 -10.609375 C 5.582031 -10.609375 5.71875 -10.5625 5.84375 -10.46875 C 5.96875 -10.382812 6.070312 -10.242188 6.15625 -10.046875 L 10.265625 -0.734375 C 10.335938 -0.566406 10.363281 -0.421875 10.34375 -0.296875 C 10.332031 -0.171875 10.28125 -0.0703125 10.1875 0 C 10.101562 0.0703125 9.984375 0.109375 9.828125 0.109375 C 9.648438 0.109375 9.503906 0.0625 9.390625 -0.03125 C 9.285156 -0.125 9.195312 -0.265625 9.125 -0.453125 L 8.03125 -3 L 8.625 -2.6875 L 2.21875 -2.6875 L 2.828125 -3 L 1.75 -0.453125 C 1.65625 -0.253906 1.554688 -0.109375 1.453125 -0.015625 C 1.359375 0.0664062 1.234375 0.109375 1.078125 0.109375 Z M 5.421875 -9.0625 L 3.015625 -3.421875 L 2.671875 -3.703125 L 8.171875 -3.703125 L 7.84375 -3.421875 L 5.453125 -9.0625 Z M 5.421875 -9.0625 "/></g></g></g><g fill="#000000" fill-opacity="1"><g transform="translate(308.336183, 80.95223)"><g><path d="M 5.84375 0.140625 C 4.800781 0.140625 3.910156 -0.078125 3.171875 -0.515625 C 2.441406 -0.953125 1.878906 -1.570312 1.484375 -2.375 C 1.097656 -3.1875 0.90625 -4.144531 0.90625 -5.25 C 0.90625 -6.082031 1.015625 -6.828125 1.234375 -7.484375 C 1.460938 -8.148438 1.785156 -8.710938 2.203125 -9.171875 C 2.628906 -9.640625 3.148438 -10 3.765625 -10.25 C 4.378906 -10.5 5.070312 -10.625 5.84375 -10.625 C 6.457031 -10.625 7.039062 -10.535156 7.59375 -10.359375 C 8.144531 -10.191406 8.625 -9.941406 9.03125 -9.609375 C 9.164062 -9.503906 9.253906 -9.390625 9.296875 -9.265625 C 9.335938 -9.140625 9.34375 -9.019531 9.3125 -8.90625 C 9.28125 -8.789062 9.222656 -8.695312 9.140625 -8.625 C 9.054688 -8.550781 8.953125 -8.515625 8.828125 -8.515625 C 8.710938 -8.515625 8.578125 -8.566406 8.421875 -8.671875 C 8.066406 -8.953125 7.675781 -9.160156 7.25 -9.296875 C 6.820312 -9.441406 6.359375 -9.515625 5.859375 -9.515625 C 5.078125 -9.515625 4.410156 -9.347656 3.859375 -9.015625 C 3.316406 -8.679688 2.90625 -8.195312 2.625 -7.5625 C 2.351562 -6.925781 2.21875 -6.15625 2.21875 -5.25 C 2.21875 -4.351562 2.351562 -3.582031 2.625 -2.9375 C 2.90625 -2.300781 3.316406 -1.816406 3.859375 -1.484375 C 4.410156 -1.148438 5.078125 -0.984375 5.859375 -0.984375 C 6.347656 -0.984375 6.8125 -1.054688 7.25 -1.203125 C 7.6875 -1.347656 8.085938 -1.5625 8.453125 -1.84375 C 8.609375 -1.945312 8.742188 -1.992188 8.859375 -1.984375 C 8.972656 -1.984375 9.070312 -1.945312 9.15625 -1.875 C 9.238281 -1.800781 9.296875 -1.707031 9.328125 -1.59375 C 9.359375 -1.488281 9.359375 -1.378906 9.328125 -1.265625 C 9.296875 -1.148438 9.21875 -1.046875 9.09375 -0.953125 C 8.675781 -0.597656 8.1875 -0.328125 7.625 -0.140625 C 7.070312 0.046875 6.476562 0.140625 5.84375 0.140625 Z M 5.84375 0.140625 "/></g></g></g><g fill="#000000" fill-opacity="1"><g transform="translate(319.627451, 80.95223)"><g><path d="M 1.90625 0.109375 C 1.707031 0.109375 1.554688 0.0507812 1.453125 -0.0625 C 1.347656 -0.175781 1.296875 -0.332031 1.296875 -0.53125 L 1.296875 -9.984375 C 1.296875 -10.191406 1.347656 -10.347656 1.453125 -10.453125 C 1.554688 -10.554688 1.707031 -10.609375 1.90625 -10.609375 C 2.101562 -10.609375 2.253906 -10.554688 2.359375 -10.453125 C 2.460938 -10.347656 2.515625 -10.191406 2.515625 -9.984375 L 2.515625 -5.734375 L 2.546875 -5.734375 L 7.40625 -10.265625 C 7.519531 -10.378906 7.632812 -10.460938 7.75 -10.515625 C 7.875 -10.578125 8.003906 -10.609375 8.140625 -10.609375 C 8.328125 -10.609375 8.460938 -10.5625 8.546875 -10.46875 C 8.640625 -10.375 8.675781 -10.265625 8.65625 -10.140625 C 8.632812 -10.015625 8.5625 -9.890625 8.4375 -9.765625 L 3.359375 -5.0625 L 3.375 -5.71875 L 8.6875 -0.8125 C 8.832031 -0.675781 8.910156 -0.535156 8.921875 -0.390625 C 8.929688 -0.242188 8.890625 -0.125 8.796875 -0.03125 C 8.703125 0.0625 8.5625 0.109375 8.375 0.109375 C 8.21875 0.109375 8.085938 0.0703125 7.984375 0 C 7.878906 -0.0625 7.765625 -0.15625 7.640625 -0.28125 L 2.546875 -4.9375 L 2.515625 -4.9375 L 2.515625 -0.53125 C 2.515625 -0.332031 2.460938 -0.175781 2.359375 -0.0625 C 2.265625 0.0507812 2.113281 0.109375 1.90625 0.109375 Z M 1.90625 0.109375 "/></g></g></g><path stroke-linecap="butt" transform="matrix(0.744806, 0, 0, 0.744806, 78.846669, 22.857324)" fill="none" stroke-linejoin="miter" d="M 6.03792 42.342826 C 5.151574 42.342826 4.475014 42.096327 4.002995 41.592841 C 3.530976 41.094599 3.294967 40.402305 3.294967 39.521203 L 3.294967 14.703512 C 3.294967 13.785698 3.541466 13.093404 4.023974 12.631875 C 4.511726 12.159856 5.193531 11.923847 6.074632 11.923847 L 16.359394 11.923847 C 19.653035 11.923847 22.201936 12.710545 23.990362 14.294429 C 25.784033 15.87307 26.675624 18.081068 26.675624 20.928914 C 26.675624 22.775031 26.271786 24.369405 25.458865 25.712036 C 24.656433 27.044177 23.481631 28.066884 21.939703 28.785402 C 20.40302 29.49343 18.546414 29.844821 16.359394 29.844821 L 16.742254 29.199729 L 18.14782 29.199729 C 19.312133 29.199729 20.329595 29.48294 21.200207 30.054607 C 22.065575 30.62103 22.826049 31.517865 23.481631 32.739869 L 26.675624 38.676814 C 27.016526 39.274705 27.173866 39.856861 27.147642 40.428528 C 27.121419 40.989706 26.906388 41.451235 26.50255 41.813116 C 26.103957 42.164508 25.527045 42.342826 24.761326 42.342826 C 23.990362 42.342826 23.361004 42.180242 22.878496 41.855073 C 22.395988 41.529905 21.976416 41.021174 21.604046 40.334124 L 17.292942 32.398967 C 16.778966 31.433951 16.170587 30.788859 15.473048 30.458445 C 14.775509 30.133277 13.894408 29.970693 12.81401 29.970693 L 8.765139 29.970693 L 8.765139 39.521203 C 8.765139 40.402305 8.534374 41.094599 8.078089 41.592841 C 7.627049 42.096327 6.945245 42.342826 6.03792 42.342826 Z M 8.765139 25.916577 L 15.420601 25.916577 C 17.376856 25.916577 18.861093 25.512739 19.868066 24.699818 C 20.880284 23.886897 21.389015 22.675383 21.389015 21.054785 C 21.389015 19.460411 20.880284 18.259386 19.868066 17.45171 C 18.861093 16.638789 17.376856 16.23495 15.420601 16.23495 L 8.765139 16.23495 Z M 41.565189 42.42674 C 39.399148 42.42674 37.521563 41.98619 35.932434 41.105088 C 34.343304 40.223987 33.105566 38.96527 32.224465 37.334184 C 31.343364 35.697852 30.902813 33.762576 30.902813 31.544088 C 30.902813 29.871044 31.149311 28.371074 31.642309 27.054667 C 32.140551 25.72777 32.859068 24.58968 33.79786 23.640398 C 34.736653 22.680627 35.859009 21.956865 37.159682 21.463868 C 38.47609 20.960382 39.944592 20.713883 41.565189 20.713883 C 43.725986 20.713883 45.603571 21.154434 47.192701 22.035535 C 48.787075 22.916637 50.030057 24.170108 50.911158 25.79595 C 51.79226 27.411303 52.232811 29.330845 52.232811 31.544088 C 52.232811 33.222377 51.981067 34.732836 51.482826 36.075467 C 50.984584 37.407609 50.266066 38.550943 49.327274 39.510714 C 48.388481 40.459996 47.266126 41.189003 45.949718 41.687244 C 44.649045 42.180242 43.185787 42.42674 41.565189 42.42674 Z M 41.565189 38.377869 C 42.61412 38.377869 43.537178 38.120881 44.33961 37.606906 C 45.136797 37.09293 45.755666 36.332455 46.190972 35.325482 C 46.636767 34.318509 46.857043 33.054548 46.857043 31.544088 C 46.857043 29.273154 46.374535 27.573887 45.39903 26.451532 C 44.434014 25.323932 43.159564 24.762754 41.565189 24.762754 C 40.511014 24.762754 39.582711 25.014497 38.785524 25.512739 C 37.993582 26.010981 37.374713 26.766211 36.934162 27.773184 C 36.493611 28.780157 36.278581 30.038873 36.278581 31.544088 C 36.278581 33.794044 36.761089 35.493311 37.726104 36.647134 C 38.69112 37.800958 39.970815 38.377869 41.565189 38.377869 Z M 66.346168 50.10491 C 64.809485 50.10491 63.325249 49.95806 61.888214 49.674849 C 60.45118 49.391638 59.150506 48.951087 57.980949 48.353197 C 57.44075 48.069985 57.078869 47.729083 56.890061 47.33049 C 56.706498 46.937141 56.654052 46.528058 56.722232 46.11373 C 56.800902 45.704648 56.973976 45.342767 57.241453 45.033332 C 57.514175 44.718653 57.844588 44.503622 58.243181 44.382995 C 58.63653 44.272858 59.050858 44.330549 59.480919 44.561313 C 60.734391 45.185427 61.914437 45.589265 63.031548 45.772828 C 64.159148 45.956391 65.11892 46.050795 65.921351 46.050795 C 67.830404 46.050795 69.25695 45.589265 70.211476 44.666207 C 71.160758 43.743148 71.638021 42.369049 71.638021 40.5544 L 71.638021 36.71007 L 72.020881 36.71007 C 71.59082 38.162839 70.699229 39.321907 69.346109 40.187274 C 67.998233 41.057886 66.47204 41.487948 64.772773 41.487948 C 62.889943 41.487948 61.253611 41.057886 59.858534 40.187274 C 58.468701 39.321907 57.388303 38.105147 56.617339 36.542241 C 55.856865 34.97409 55.474005 33.148952 55.474005 31.07207 C 55.474005 29.514408 55.689036 28.098352 56.129587 26.834391 C 56.575382 25.57043 57.199496 24.484787 58.001927 23.577463 C 58.814848 22.659649 59.795598 21.956865 60.949422 21.463868 C 62.103245 20.960382 63.377695 20.713883 64.772773 20.713883 C 66.534975 20.713883 68.076903 21.143944 69.398555 22.014556 C 70.714963 22.879924 71.575086 24.028503 71.978924 25.449803 L 71.554107 26.514468 L 71.554107 23.483059 C 71.554107 22.601957 71.784872 21.935887 72.251646 21.484847 C 72.723664 21.023317 73.374001 20.792553 74.197411 20.792553 C 75.05229 20.792553 75.707871 21.023317 76.158911 21.484847 C 76.615196 21.935887 76.84596 22.601957 76.84596 23.483059 L 76.84596 39.904063 C 76.84596 43.297352 75.949125 45.841008 74.155454 47.540276 C 72.367028 49.250032 69.760436 50.10491 66.346168 50.10491 Z M 66.220296 37.439077 C 67.332163 37.439077 68.281444 37.182089 69.073387 36.668113 C 69.870574 36.154137 70.489443 35.419886 70.929993 34.470604 C 71.370544 33.516077 71.596064 32.388477 71.596064 31.07207 C 71.596064 29.115815 71.108312 27.573887 70.138051 26.451532 C 69.173035 25.323932 67.867117 24.762754 66.220296 24.762754 C 65.10843 24.762754 64.153904 25.019742 63.356717 25.533718 C 62.564774 26.047694 61.945905 26.771455 61.505355 27.710248 C 61.064804 28.649041 60.844529 29.771396 60.844529 31.07207 C 60.844529 33.038814 61.327036 34.591231 62.292052 35.72932 C 63.257068 36.86741 64.568231 37.439077 66.220296 37.439077 Z M 92.663829 42.42674 C 90.303736 42.42674 88.268811 41.98619 86.559055 41.105088 C 84.859788 40.223987 83.54338 38.970515 82.620322 37.355162 C 81.697263 35.72932 81.235734 33.809778 81.235734 31.596535 C 81.235734 29.430494 81.686774 27.537175 82.578365 25.916577 C 83.4752 24.29598 84.712938 23.02153 86.286333 22.098471 C 87.864973 21.175412 89.663889 20.713883 91.68308 20.713883 C 93.162071 20.713883 94.494213 20.955137 95.674259 21.442889 C 96.854306 21.920153 97.861279 22.617691 98.700423 23.535505 C 99.544812 24.44283 100.179415 25.544207 100.619966 26.834391 C 101.065761 28.124576 101.286037 29.587833 101.286037 31.208431 C 101.286037 31.717162 101.107718 32.105266 100.745838 32.377988 C 100.389201 32.645465 99.885715 32.781826 99.235378 32.781826 L 85.536348 32.781826 L 85.536348 29.70846 L 97.525621 29.70846 L 96.849061 30.353552 C 96.849061 29.04239 96.655009 27.946257 96.266905 27.065156 C 95.884046 26.184054 95.328112 25.507494 94.599106 25.045965 C 93.875344 24.573946 92.978509 24.337937 91.903355 24.337937 C 90.707574 24.337937 89.690112 24.615904 88.850968 25.171837 C 88.011824 25.722525 87.366731 26.509223 86.920936 27.521441 C 86.48563 28.528414 86.265355 29.729439 86.265355 31.124516 L 86.265355 31.418217 C 86.265355 33.752087 86.810798 35.493311 87.901686 36.647134 C 88.997818 37.800958 90.618415 38.377869 92.758233 38.377869 C 93.492484 38.377869 94.321139 38.283466 95.244198 38.105147 C 96.167257 37.91634 97.043114 37.596416 97.871768 37.134887 C 98.464414 36.793985 98.988879 36.647134 99.439919 36.689092 C 99.901449 36.731049 100.26333 36.893633 100.536051 37.176844 C 100.808773 37.460055 100.971358 37.811447 101.023804 38.231019 C 101.081495 38.640102 101.002825 39.059674 100.787795 39.489735 C 100.578009 39.914552 100.216128 40.281678 99.702152 40.596357 C 98.710913 41.22047 97.562334 41.682 96.266905 41.980945 C 94.976721 42.27989 93.770451 42.42674 92.663829 42.42674 Z M 108.229955 42.342826 C 107.348854 42.342826 106.672294 42.112061 106.200275 41.645287 C 105.733501 41.173269 105.502736 40.496709 105.502736 39.615607 L 105.502736 23.483059 C 105.502736 22.601957 105.728257 21.935887 106.179297 21.484847 C 106.635581 21.023317 107.280673 20.792553 108.104084 20.792553 C 108.932739 20.792553 109.572586 21.023317 110.023626 21.484847 C 110.479911 21.935887 110.710675 22.601957 110.710675 23.483059 L 110.710675 26.168321 L 110.280614 26.168321 C 110.679208 24.469053 111.460661 23.178869 112.624973 22.292523 C 113.794531 21.411422 115.341703 20.886956 117.282224 20.713883 C 117.880114 20.656192 118.352133 20.803042 118.708769 21.159678 C 119.060161 21.51107 119.264702 22.061758 119.322393 22.806499 C 119.385329 23.514527 119.222745 24.091438 118.834641 24.531989 C 118.451781 24.97254 117.874869 25.229528 117.103906 25.313442 L 116.165113 25.407846 C 114.429133 25.575675 113.123215 26.105385 112.242114 27.00222 C 111.361012 27.899056 110.920462 29.157772 110.920462 30.783614 L 110.920462 39.615607 C 110.920462 40.496709 110.689697 41.173269 110.228168 41.645287 C 109.777128 42.112061 109.111057 42.342826 108.229955 42.342826 Z M 124.871235 42.300869 C 124.016356 42.300869 123.360775 42.043881 122.899246 41.529905 C 122.448206 41.015929 122.222686 40.307901 122.222686 39.395332 L 122.222686 23.740047 C 122.222686 22.806499 122.448206 22.087982 122.899246 21.584495 C 123.360775 21.086253 124.016356 20.83451 124.871235 20.83451 C 125.720868 20.83451 126.381694 21.086253 126.848468 21.584495 C 127.320487 22.087982 127.556496 22.806499 127.556496 23.740047 L 127.556496 39.395332 C 127.556496 40.307901 127.325732 41.015929 126.869447 41.529905 C 126.418407 42.043881 125.752336 42.300869 124.871235 42.300869 Z M 124.871235 16.869553 C 123.874751 16.869553 123.103787 16.623055 122.547854 16.130057 C 121.991921 15.626571 121.713954 14.939522 121.713954 14.05842 C 121.713954 13.145851 121.991921 12.453557 122.547854 11.971049 C 123.103787 11.488541 123.874751 11.242042 124.871235 11.242042 C 125.893942 11.242042 126.675395 11.488541 127.210349 11.971049 C 127.755793 12.453557 128.02327 13.145851 128.02327 14.05842 C 128.02327 14.939522 127.755793 15.626571 127.210349 16.130057 C 126.675395 16.623055 125.893942 16.869553 124.871235 16.869553 Z M 142.619136 42.42674 C 140.453094 42.42674 138.575509 41.98619 136.98638 41.105088 C 135.39725 40.223987 134.159513 38.96527 133.278411 37.334184 C 132.39731 35.697852 131.956759 33.762576 131.956759 31.544088 C 131.956759 29.871044 132.203258 28.371074 132.696255 27.054667 C 133.194497 25.72777 133.913014 24.58968 134.851807 23.640398 C 135.785355 22.680627 136.90771 21.956865 138.213628 21.463868 C 139.524791 20.960382 140.993294 20.713883 142.619136 20.713883 C 144.779932 20.713883 146.652273 21.154434 148.246647 22.035535 C 149.841021 22.916637 151.078758 24.170108 151.95986 25.79595 C 152.846206 27.411303 153.286757 29.330845 153.286757 31.544088 C 153.286757 33.222377 153.035013 34.732836 152.536772 36.075467 C 152.033285 37.407609 151.314768 38.550943 150.38122 39.510714 C 149.442427 40.459996 148.314827 41.189003 147.003664 41.687244 C 145.697746 42.180242 144.239733 42.42674 142.619136 42.42674 Z M 142.619136 38.377869 C 143.668066 38.377869 144.591124 38.120881 145.388312 37.606906 C 146.190743 37.09293 146.804367 36.332455 147.244918 35.325482 C 147.690714 34.318509 147.910989 33.054548 147.910989 31.544088 C 147.910989 29.273154 147.423236 27.573887 146.452976 26.451532 C 145.48796 25.323932 144.208265 24.762754 142.619136 24.762754 C 141.564961 24.762754 140.636657 25.014497 139.83947 25.512739 C 139.047528 26.010981 138.428659 26.766211 137.982864 27.773184 C 137.547557 28.780157 137.327282 30.038873 137.327282 31.544088 C 137.327282 33.794044 137.80979 35.493311 138.774806 36.647134 C 139.739822 37.800958 141.024761 38.377869 142.619136 38.377869 Z M 183.737204 42.42674 C 180.606147 42.42674 177.92613 41.797382 175.686664 40.533421 C 173.457687 39.258971 171.74793 37.470545 170.55215 35.157653 C 169.356369 32.839517 168.763723 30.096565 168.763723 26.939284 C 168.763723 24.579191 169.099381 22.455107 169.781186 20.567033 C 170.468235 18.668469 171.45423 17.047871 172.72868 15.699996 C 174.008375 14.346876 175.576526 13.308435 177.438377 12.589918 C 179.305473 11.860911 181.403334 11.493785 183.737204 11.493785 C 185.30011 11.493785 186.836793 11.698327 188.342008 12.09692 C 189.847223 12.495514 191.168875 13.061936 192.312209 13.806677 C 192.904855 14.173802 193.308693 14.624842 193.50799 15.149308 C 193.707286 15.668528 193.749243 16.182504 193.633861 16.680746 C 193.523723 17.178988 193.287714 17.59856 192.925833 17.939462 C 192.569197 18.280365 192.128646 18.474417 191.604181 18.516374 C 191.079716 18.558331 190.508049 18.380013 189.883935 17.981419 C 189.002834 17.414997 188.048307 17.00067 187.020356 16.743682 C 185.997648 16.486694 184.959207 16.355577 183.905033 16.355577 C 181.885842 16.355577 180.176085 16.769905 178.781008 17.59856 C 177.391175 18.42197 176.342245 19.617751 175.623728 21.180657 C 174.9157 22.743563 174.564308 24.663106 174.564308 26.939284 C 174.564308 29.18924 174.9157 31.108782 175.623728 32.697912 C 176.342245 34.287041 177.391175 35.498556 178.781008 36.321966 C 180.176085 37.150621 181.885842 37.564948 183.905033 37.564948 C 184.990675 37.564948 186.05534 37.428587 187.10427 37.155866 C 188.158445 36.888388 189.154929 36.463571 190.093721 35.897149 C 190.717835 35.530024 191.279013 35.367439 191.777254 35.409397 C 192.280741 35.451354 192.700313 35.624427 193.041216 35.939106 C 193.376873 36.248541 193.607638 36.64189 193.717776 37.113908 C 193.833158 37.585927 193.806935 38.07368 193.633861 38.571921 C 193.466032 39.064919 193.12513 39.49498 192.611154 39.86735 C 191.473065 40.690761 190.1147 41.325363 188.530815 41.771159 C 186.952175 42.206465 185.357801 42.42674 183.737204 42.42674 Z M 207.757708 42.42674 C 205.591667 42.42674 203.714081 41.98619 202.119707 41.105088 C 200.530578 40.223987 199.298085 38.96527 198.411739 37.334184 C 197.530637 35.697852 197.090087 33.762576 197.090087 31.544088 C 197.090087 29.871044 197.336585 28.371074 197.829582 27.054667 C 198.327824 25.72777 199.051586 24.58968 199.985134 23.640398 C 200.923927 22.680627 202.046282 21.956865 203.3522 21.463868 C 204.663363 20.960382 206.131866 20.713883 207.757708 20.713883 C 209.91326 20.713883 211.790845 21.154434 213.379974 22.035535 C 214.979593 22.916637 216.217331 24.170108 217.098432 25.79595 C 217.979534 27.411303 218.420084 29.330845 218.420084 31.544088 C 218.420084 33.222377 218.173586 34.732836 217.670099 36.075467 C 217.171857 37.407609 216.45334 38.550943 215.514547 39.510714 C 214.575755 40.459996 213.453399 41.189003 212.142236 41.687244 C 210.836318 42.180242 209.37306 42.42674 207.757708 42.42674 Z M 207.757708 38.377869 C 208.806638 38.377869 209.729697 38.120881 210.526884 37.606906 C 211.324071 37.09293 211.94294 36.332455 212.378246 35.325482 C 212.824041 34.318509 213.044317 33.054548 213.044317 31.544088 C 213.044317 29.273154 212.561809 27.573887 211.586303 26.451532 C 210.621288 25.323932 209.346837 24.762754 207.757708 24.762754 C 206.698288 24.762754 205.775229 25.014497 204.972798 25.512739 C 204.1861 26.010981 203.567231 26.766211 203.121436 27.773184 C 202.68613 28.780157 202.465854 30.038873 202.465854 31.544088 C 202.465854 33.794044 202.948362 35.493311 203.913378 36.647134 C 204.878394 37.800958 206.158089 38.377869 207.757708 38.377869 Z M 225.537077 42.342826 C 224.655975 42.342826 223.97417 42.112061 223.502152 41.645287 C 223.040622 41.173269 222.804613 40.496709 222.804613 39.615607 L 222.804613 23.483059 C 222.804613 22.601957 223.030133 21.935887 223.481173 21.484847 C 223.942702 21.023317 224.58255 20.792553 225.411205 20.792553 C 226.234615 20.792553 226.874463 21.023317 227.325503 21.484847 C 227.787032 21.935887 228.012552 22.601957 228.012552 23.483059 L 228.012552 26.168321 L 227.587735 26.168321 C 227.981084 24.469053 228.762537 23.178869 229.932095 22.292523 C 231.096407 21.411422 232.648824 20.886956 234.5841 20.713883 C 235.181991 20.656192 235.659254 20.803042 236.010646 21.159678 C 236.367282 21.51107 236.571823 22.061758 236.629515 22.806499 C 236.69245 23.514527 236.524622 24.091438 236.136517 24.531989 C 235.753658 24.97254 235.181991 25.229528 234.411027 25.313442 L 233.472234 25.407846 C 231.736255 25.575675 230.425092 26.105385 229.54399 27.00222 C 228.662889 27.899056 228.222338 29.157772 228.222338 30.783614 L 228.222338 39.615607 C 228.222338 40.496709 227.991573 41.173269 227.535289 41.645287 C 227.084249 42.112061 226.418178 42.342826 225.537077 42.342826 Z M 247.548879 42.42674 C 245.728985 42.42674 244.129366 41.98619 242.744778 41.105088 C 241.37068 40.223987 240.300771 38.96527 239.529807 37.334184 C 238.764088 35.697852 238.381228 33.762576 238.381228 31.544088 C 238.381228 29.299377 238.764088 27.379835 239.529807 25.774972 C 240.300771 24.164864 241.37068 22.916637 242.744778 22.035535 C 244.129366 21.154434 245.728985 20.713883 247.548879 20.713883 C 249.284859 20.713883 250.795318 21.1387 252.090747 21.993578 C 253.386176 22.848456 254.262033 23.970812 254.713073 25.365889 L 254.246299 25.365889 L 254.246299 14.273451 C 254.246299 13.392349 254.471819 12.726279 254.922859 12.275239 C 255.379144 11.818954 256.034725 11.588189 256.889603 11.588189 C 257.744482 11.588189 258.405308 11.818954 258.866837 12.275239 C 259.338856 12.726279 259.574865 13.392349 259.574865 14.273451 L 259.574865 39.615607 C 259.574865 40.496709 259.349345 41.173269 258.887816 41.645287 C 258.436776 42.112061 257.786439 42.342826 256.931561 42.342826 C 256.081927 42.342826 255.43159 42.112061 254.975306 41.645287 C 254.513776 41.173269 254.288256 40.496709 254.288256 39.615607 L 254.288256 36.280009 L 254.76552 37.564948 C 254.335458 39.04394 253.464846 40.223987 252.148438 41.105088 C 250.847765 41.98619 249.311082 42.42674 247.548879 42.42674 Z M 249.048849 38.377869 C 250.09778 38.377869 251.020838 38.120881 251.818025 37.606906 C 252.615212 37.09293 253.234081 36.332455 253.669387 35.325482 C 254.115183 34.318509 254.335458 33.054548 254.335458 31.544088 C 254.335458 29.273154 253.85295 27.573887 252.877445 26.451532 C 251.912429 25.323932 250.637979 24.762754 249.048849 24.762754 C 247.98943 24.762754 247.066371 25.014497 246.263939 25.512739 C 245.477242 26.010981 244.858373 26.766211 244.412577 27.773184 C 243.977271 28.780157 243.756996 30.038873 243.756996 31.544088 C 243.756996 33.794044 244.239504 35.493311 245.20452 36.647134 C 246.169536 37.800958 247.449231 38.377869 249.048849 38.377869 Z M 275.403223 42.42674 C 273.037886 42.42674 271.008205 41.98619 269.298449 41.105088 C 267.599182 40.223987 266.282774 38.970515 265.359716 37.355162 C 264.436657 35.72932 263.975128 33.809778 263.975128 31.596535 C 263.975128 29.430494 264.426168 27.537175 265.317759 25.916577 C 266.214594 24.29598 267.452332 23.02153 269.025727 22.098471 C 270.604367 21.175412 272.403283 20.713883 274.422474 20.713883 C 275.901465 20.713883 277.228362 20.955137 278.413653 21.442889 C 279.5937 21.920153 280.600673 22.617691 281.439817 23.535505 C 282.284206 24.44283 282.918809 25.544207 283.35936 26.834391 C 283.805155 28.124576 284.025431 29.587833 284.025431 31.208431 C 284.025431 31.717162 283.841868 32.105266 283.485232 32.377988 C 283.128595 32.645465 282.625109 32.781826 281.974772 32.781826 L 268.275742 32.781826 L 268.275742 29.70846 L 280.265015 29.70846 L 279.588455 30.353552 C 279.588455 29.04239 279.394403 27.946257 279.006299 27.065156 C 278.62344 26.184054 278.067506 25.507494 277.3385 25.045965 C 276.614738 24.573946 275.717903 24.337937 274.642749 24.337937 C 273.446968 24.337937 272.429506 24.615904 271.590362 25.171837 C 270.751218 25.722525 270.106125 26.509223 269.66033 27.521441 C 269.225024 28.528414 269.004749 29.729439 269.004749 31.124516 L 269.004749 31.418217 C 269.004749 33.752087 269.550192 35.493311 270.64108 36.647134 C 271.737212 37.800958 273.357809 38.377869 275.492383 38.377869 C 276.231878 38.377869 277.060533 38.283466 277.983592 38.105147 C 278.906651 37.91634 279.782508 37.596416 280.611162 37.134887 C 281.203808 36.793985 281.728273 36.647134 282.179313 36.689092 C 282.640843 36.731049 283.002724 36.893633 283.275445 37.176844 C 283.548167 37.460055 283.710752 37.811447 283.763198 38.231019 C 283.820889 38.640102 283.742219 39.059674 283.527189 39.489735 C 283.317403 39.914552 282.955522 40.281678 282.441546 40.596357 C 281.450307 41.22047 280.301728 41.682 279.006299 41.980945 C 277.71087 42.27989 276.509845 42.42674 275.403223 42.42674 Z M 290.885435 42.300869 C 290.030557 42.300869 289.374975 42.043881 288.918691 41.529905 C 288.46765 41.015929 288.24213 40.307901 288.24213 39.395332 L 288.24213 23.740047 C 288.24213 22.806499 288.46765 22.087982 288.918691 21.584495 C 289.374975 21.086253 290.030557 20.83451 290.885435 20.83451 C 291.740313 20.83451 292.401139 21.086253 292.867913 21.584495 C 293.339932 22.087982 293.575941 22.806499 293.575941 23.740047 L 293.575941 39.395332 C 293.575941 40.307901 293.345176 41.015929 292.883647 41.529905 C 292.432607 42.043881 291.766536 42.300869 290.885435 42.300869 Z M 290.885435 16.869553 C 289.894196 16.869553 289.117987 16.623055 288.562054 16.130057 C 288.006121 15.626571 287.733399 14.939522 287.733399 14.05842 C 287.733399 13.145851 288.006121 12.453557 288.562054 11.971049 C 289.117987 11.488541 289.894196 11.242042 290.885435 11.242042 C 291.913387 11.242042 292.69484 11.488541 293.229794 11.971049 C 293.769993 12.453557 294.042715 13.145851 294.042715 14.05842 C 294.042715 14.939522 293.769993 15.626571 293.229794 16.130057 C 292.69484 16.623055 291.913387 16.869553 290.885435 16.869553 Z M 301.846757 42.342826 C 300.965655 42.342826 300.289095 42.112061 299.817076 41.645287 C 299.350302 41.173269 299.119538 40.496709 299.119538 39.615607 L 299.119538 23.483059 C 299.119538 22.601957 299.345058 21.935887 299.796098 21.484847 C 300.252383 21.023317 300.897475 20.792553 301.720885 20.792553 C 302.54954 20.792553 303.189387 21.023317 303.640427 21.484847 C 304.096712 21.935887 304.327477 22.601957 304.327477 23.483059 L 304.327477 26.168321 L 303.897415 26.168321 C 304.296009 24.469053 305.077462 23.178869 306.241775 22.292523 C 307.411332 21.411422 308.958504 20.886956 310.899025 20.713883 C 311.496915 20.656192 311.968934 20.803042 312.32557 21.159678 C 312.676962 21.51107 312.881503 22.061758 312.939195 22.806499 C 313.00213 23.514527 312.839546 24.091438 312.451442 24.531989 C 312.068582 24.97254 311.491671 25.229528 310.720707 25.313442 L 309.781914 25.407846 C 308.045935 25.575675 306.740016 26.105385 305.858915 27.00222 C 304.977814 27.899056 304.532018 29.157772 304.532018 30.783614 L 304.532018 39.615607 C 304.532018 40.496709 304.306498 41.173269 303.844969 41.645287 C 303.393929 42.112061 302.727858 42.342826 301.846757 42.342826 Z M 325.358529 42.42674 C 323.192488 42.42674 321.314903 41.98619 319.725774 41.105088 C 318.136644 40.223987 316.898907 38.96527 316.017805 37.334184 C 315.136704 35.697852 314.696153 33.762576 314.696153 31.544088 C 314.696153 29.871044 314.942652 28.371074 315.435649 27.054667 C 315.933891 25.72777 316.652408 24.58968 317.591201 23.640398 C 318.524749 22.680627 319.647104 21.956865 320.953022 21.463868 C 322.264185 20.960382 323.732688 20.713883 325.358529 20.713883 C 327.519326 20.713883 329.391667 21.154434 330.980796 22.035535 C 332.580415 22.916637 333.818152 24.170108 334.699254 25.79595 C 335.5856 27.411303 336.026151 29.330845 336.026151 31.544088 C 336.026151 33.222377 335.774407 34.732836 335.276166 36.075467 C 334.772679 37.407609 334.054162 38.550943 333.120614 39.510714 C 332.181821 40.459996 331.054221 41.189003 329.743058 41.687244 C 328.43714 42.180242 326.979127 42.42674 325.358529 42.42674 Z M 325.358529 38.377869 C 326.40746 38.377869 327.330518 38.120881 328.127706 37.606906 C 328.930137 37.09293 329.543761 36.332455 329.984312 35.325482 C 330.430108 34.318509 330.650383 33.054548 330.650383 31.544088 C 330.650383 29.273154 330.16263 27.573887 329.19237 26.451532 C 328.227354 25.323932 326.947659 24.762754 325.358529 24.762754 C 324.304355 24.762754 323.376051 25.014497 322.578864 25.512739 C 321.786922 26.010981 321.168053 26.766211 320.722258 27.773184 C 320.286951 28.780157 320.066676 30.038873 320.066676 31.544088 C 320.066676 33.794044 320.549184 35.493311 321.5142 36.647134 C 322.479216 37.800958 323.764155 38.377869 325.358529 38.377869 Z M 325.358529 38.377869 " stroke="#000000" stroke-width="1.866668" stroke-opacity="1" stroke-miterlimit="4"/><g fill="#000000" fill-opacity="1"><g transform="translate(78.858306, 54.139192)"><g><path d="M 4.484375 0.25 C 3.828125 0.25 3.320312 0.0664062 2.96875 -0.296875 C 2.625 -0.671875 2.453125 -1.1875 2.453125 -1.84375 L 2.453125 -20.34375 C 2.453125 -21.019531 2.628906 -21.53125 2.984375 -21.875 C 3.347656 -22.226562 3.859375 -22.40625 4.515625 -22.40625 L 12.171875 -22.40625 C 14.628906 -22.40625 16.523438 -21.816406 17.859375 -20.640625 C 19.191406 -19.460938 19.859375 -17.816406 19.859375 -15.703125 C 19.859375 -14.328125 19.554688 -13.140625 18.953125 -12.140625 C 18.347656 -11.140625 17.472656 -10.375 16.328125 -9.84375 C 15.191406 -9.320312 13.804688 -9.0625 12.171875 -9.0625 L 12.453125 -9.53125 L 13.5 -9.53125 C 14.375 -9.53125 15.132812 -9.316406 15.78125 -8.890625 C 16.425781 -8.472656 16.992188 -7.804688 17.484375 -6.890625 L 19.859375 -2.484375 C 20.117188 -2.035156 20.238281 -1.597656 20.21875 -1.171875 C 20.195312 -0.753906 20.035156 -0.410156 19.734375 -0.140625 C 19.441406 0.117188 19.007812 0.25 18.4375 0.25 C 17.863281 0.25 17.394531 0.128906 17.03125 -0.109375 C 16.675781 -0.359375 16.359375 -0.734375 16.078125 -1.234375 L 12.875 -7.15625 C 12.488281 -7.875 12.035156 -8.351562 11.515625 -8.59375 C 10.992188 -8.84375 10.332031 -8.96875 9.53125 -8.96875 L 6.515625 -8.96875 L 6.515625 -1.84375 C 6.515625 -1.1875 6.34375 -0.671875 6 -0.296875 C 5.664062 0.0664062 5.160156 0.25 4.484375 0.25 Z M 6.515625 -11.984375 L 11.46875 -11.984375 C 12.9375 -11.984375 14.046875 -12.285156 14.796875 -12.890625 C 15.546875 -13.492188 15.921875 -14.398438 15.921875 -15.609375 C 15.921875 -16.796875 15.546875 -17.691406 14.796875 -18.296875 C 14.046875 -18.898438 12.9375 -19.203125 11.46875 -19.203125 L 6.515625 -19.203125 Z M 6.515625 -11.984375 "/></g></g></g><g fill="#000000" fill-opacity="1"><g transform="translate(100.65294, 54.139192)"><g><path d="M 9.15625 0.3125 C 7.539062 0.3125 6.140625 -0.015625 4.953125 -0.671875 C 3.765625 -1.328125 2.84375 -2.265625 2.1875 -3.484375 C 1.53125 -4.703125 1.203125 -6.132812 1.203125 -7.78125 C 1.203125 -9.03125 1.382812 -10.144531 1.75 -11.125 C 2.125 -12.113281 2.660156 -12.960938 3.359375 -13.671875 C 4.066406 -14.390625 4.90625 -14.929688 5.875 -15.296875 C 6.851562 -15.671875 7.945312 -15.859375 9.15625 -15.859375 C 10.757812 -15.859375 12.15625 -15.53125 13.34375 -14.875 C 14.53125 -14.21875 15.453125 -13.285156 16.109375 -12.078125 C 16.765625 -10.867188 17.09375 -9.4375 17.09375 -7.78125 C 17.09375 -6.53125 16.90625 -5.40625 16.53125 -4.40625 C 16.164062 -3.414062 15.632812 -2.566406 14.9375 -1.859375 C 14.238281 -1.148438 13.398438 -0.609375 12.421875 -0.234375 C 11.453125 0.128906 10.363281 0.3125 9.15625 0.3125 Z M 9.15625 -2.703125 C 9.9375 -2.703125 10.625 -2.890625 11.21875 -3.265625 C 11.8125 -3.648438 12.269531 -4.21875 12.59375 -4.96875 C 12.925781 -5.726562 13.09375 -6.664062 13.09375 -7.78125 C 13.09375 -9.476562 12.734375 -10.742188 12.015625 -11.578125 C 11.296875 -12.421875 10.34375 -12.84375 9.15625 -12.84375 C 8.375 -12.84375 7.6875 -12.65625 7.09375 -12.28125 C 6.5 -11.914062 6.035156 -11.351562 5.703125 -10.59375 C 5.378906 -9.84375 5.21875 -8.90625 5.21875 -7.78125 C 5.21875 -6.113281 5.578125 -4.847656 6.296875 -3.984375 C 7.015625 -3.128906 7.96875 -2.703125 9.15625 -2.703125 Z M 9.15625 -2.703125 "/></g></g></g><g fill="#000000" fill-opacity="1"><g transform="translate(118.952804, 54.139192)"><g><path d="M 9.3125 6.03125 C 8.164062 6.03125 7.054688 5.925781 5.984375 5.71875 C 4.921875 5.507812 3.953125 5.179688 3.078125 4.734375 C 2.679688 4.523438 2.410156 4.269531 2.265625 3.96875 C 2.128906 3.675781 2.085938 3.375 2.140625 3.0625 C 2.191406 2.757812 2.316406 2.488281 2.515625 2.25 C 2.722656 2.019531 2.972656 1.863281 3.265625 1.78125 C 3.566406 1.695312 3.875 1.738281 4.1875 1.90625 C 5.125 2.375 6.007812 2.675781 6.84375 2.8125 C 7.6875 2.945312 8.40625 3.015625 9 3.015625 C 10.414062 3.015625 11.476562 2.671875 12.1875 1.984375 C 12.894531 1.296875 13.25 0.273438 13.25 -1.078125 L 13.25 -3.9375 L 13.53125 -3.9375 C 13.21875 -2.851562 12.554688 -1.988281 11.546875 -1.34375 C 10.546875 -0.695312 9.410156 -0.375 8.140625 -0.375 C 6.734375 -0.375 5.507812 -0.695312 4.46875 -1.34375 C 3.4375 -1.988281 2.632812 -2.894531 2.0625 -4.0625 C 1.488281 -5.226562 1.203125 -6.585938 1.203125 -8.140625 C 1.203125 -9.304688 1.363281 -10.359375 1.6875 -11.296875 C 2.019531 -12.242188 2.488281 -13.054688 3.09375 -13.734375 C 3.695312 -14.410156 4.425781 -14.929688 5.28125 -15.296875 C 6.144531 -15.671875 7.097656 -15.859375 8.140625 -15.859375 C 9.453125 -15.859375 10.597656 -15.535156 11.578125 -14.890625 C 12.566406 -14.242188 13.207031 -13.390625 13.5 -12.328125 L 13.1875 -11.53125 L 13.1875 -13.796875 C 13.1875 -14.453125 13.359375 -14.945312 13.703125 -15.28125 C 14.054688 -15.625 14.539062 -15.796875 15.15625 -15.796875 C 15.789062 -15.796875 16.273438 -15.625 16.609375 -15.28125 C 16.953125 -14.945312 17.125 -14.453125 17.125 -13.796875 L 17.125 -1.5625 C 17.125 0.957031 16.457031 2.851562 15.125 4.125 C 13.789062 5.394531 11.851562 6.03125 9.3125 6.03125 Z M 9.21875 -3.40625 C 10.039062 -3.40625 10.75 -3.59375 11.34375 -3.96875 C 11.9375 -4.351562 12.394531 -4.898438 12.71875 -5.609375 C 13.050781 -6.316406 13.21875 -7.160156 13.21875 -8.140625 C 13.21875 -9.597656 12.859375 -10.742188 12.140625 -11.578125 C 11.421875 -12.421875 10.445312 -12.84375 9.21875 -12.84375 C 8.394531 -12.84375 7.6875 -12.648438 7.09375 -12.265625 C 6.5 -11.890625 6.035156 -11.347656 5.703125 -10.640625 C 5.378906 -9.941406 5.21875 -9.109375 5.21875 -8.140625 C 5.21875 -6.671875 5.578125 -5.515625 6.296875 -4.671875 C 7.015625 -3.828125 7.988281 -3.40625 9.21875 -3.40625 Z M 9.21875 -3.40625 "/></g></g></g><g fill="#000000" fill-opacity="1"><g transform="translate(138.142241, 54.139192)"><g><path d="M 9.71875 0.3125 C 7.96875 0.3125 6.457031 -0.015625 5.1875 -0.671875 C 3.914062 -1.328125 2.929688 -2.257812 2.234375 -3.46875 C 1.546875 -4.675781 1.203125 -6.101562 1.203125 -7.75 C 1.203125 -9.363281 1.535156 -10.773438 2.203125 -11.984375 C 2.867188 -13.191406 3.789062 -14.140625 4.96875 -14.828125 C 6.144531 -15.515625 7.488281 -15.859375 9 -15.859375 C 10.09375 -15.859375 11.078125 -15.675781 11.953125 -15.3125 C 12.835938 -14.957031 13.59375 -14.441406 14.21875 -13.765625 C 14.84375 -13.085938 15.316406 -12.265625 15.640625 -11.296875 C 15.972656 -10.335938 16.140625 -9.253906 16.140625 -8.046875 C 16.140625 -7.660156 16.003906 -7.363281 15.734375 -7.15625 C 15.472656 -6.957031 15.101562 -6.859375 14.625 -6.859375 L 4.421875 -6.859375 L 4.421875 -9.15625 L 13.34375 -9.15625 L 12.84375 -8.671875 C 12.84375 -9.648438 12.695312 -10.46875 12.40625 -11.125 C 12.125 -11.78125 11.710938 -12.28125 11.171875 -12.625 C 10.628906 -12.976562 9.957031 -13.15625 9.15625 -13.15625 C 8.257812 -13.15625 7.5 -12.945312 6.875 -12.53125 C 6.25 -12.125 5.769531 -11.539062 5.4375 -10.78125 C 5.113281 -10.03125 4.953125 -9.140625 4.953125 -8.109375 L 4.953125 -7.875 C 4.953125 -6.144531 5.359375 -4.847656 6.171875 -3.984375 C 6.992188 -3.128906 8.195312 -2.703125 9.78125 -2.703125 C 10.332031 -2.703125 10.953125 -2.769531 11.640625 -2.90625 C 12.335938 -3.039062 12.992188 -3.28125 13.609375 -3.625 C 14.046875 -3.875 14.429688 -3.984375 14.765625 -3.953125 C 15.109375 -3.921875 15.378906 -3.800781 15.578125 -3.59375 C 15.785156 -3.382812 15.910156 -3.125 15.953125 -2.8125 C 15.992188 -2.507812 15.9375 -2.195312 15.78125 -1.875 C 15.625 -1.550781 15.351562 -1.273438 14.96875 -1.046875 C 14.226562 -0.578125 13.375 -0.234375 12.40625 -0.015625 C 11.445312 0.203125 10.550781 0.3125 9.71875 0.3125 Z M 9.71875 0.3125 "/></g></g></g><g fill="#000000" fill-opacity="1"><g transform="translate(155.361899, 54.139192)"><g><path d="M 4.09375 0.25 C 3.4375 0.25 2.929688 0.078125 2.578125 -0.265625 C 2.234375 -0.617188 2.0625 -1.125 2.0625 -1.78125 L 2.0625 -13.796875 C 2.0625 -14.453125 2.226562 -14.945312 2.5625 -15.28125 C 2.90625 -15.625 3.382812 -15.796875 4 -15.796875 C 4.613281 -15.796875 5.085938 -15.625 5.421875 -15.28125 C 5.765625 -14.945312 5.9375 -14.453125 5.9375 -13.796875 L 5.9375 -11.796875 L 5.625 -11.796875 C 5.914062 -13.066406 6.492188 -14.03125 7.359375 -14.6875 C 8.234375 -15.34375 9.394531 -15.734375 10.84375 -15.859375 C 11.28125 -15.898438 11.628906 -15.785156 11.890625 -15.515625 C 12.160156 -15.253906 12.316406 -14.847656 12.359375 -14.296875 C 12.398438 -13.765625 12.273438 -13.332031 11.984375 -13 C 11.703125 -12.675781 11.273438 -12.484375 10.703125 -12.421875 L 10.015625 -12.359375 C 8.722656 -12.234375 7.75 -11.835938 7.09375 -11.171875 C 6.4375 -10.503906 6.109375 -9.566406 6.109375 -8.359375 L 6.109375 -1.78125 C 6.109375 -1.125 5.9375 -0.617188 5.59375 -0.265625 C 5.25 0.078125 4.75 0.25 4.09375 0.25 Z M 4.09375 0.25 "/></g></g></g><g fill="#000000" fill-opacity="1"><g transform="translate(167.815972, 54.139192)"><g><path d="M 4.03125 0.21875 C 3.394531 0.21875 2.90625 0.03125 2.5625 -0.34375 C 2.226562 -0.726562 2.0625 -1.257812 2.0625 -1.9375 L 2.0625 -13.609375 C 2.0625 -14.304688 2.226562 -14.835938 2.5625 -15.203125 C 2.90625 -15.578125 3.394531 -15.765625 4.03125 -15.765625 C 4.664062 -15.765625 5.15625 -15.578125 5.5 -15.203125 C 5.851562 -14.835938 6.03125 -14.304688 6.03125 -13.609375 L 6.03125 -1.9375 C 6.03125 -1.257812 5.859375 -0.726562 5.515625 -0.34375 C 5.179688 0.03125 4.6875 0.21875 4.03125 0.21875 Z M 4.03125 -18.71875 C 3.289062 -18.71875 2.710938 -18.898438 2.296875 -19.265625 C 1.890625 -19.640625 1.6875 -20.15625 1.6875 -20.8125 C 1.6875 -21.488281 1.890625 -22.007812 2.296875 -22.375 C 2.710938 -22.738281 3.289062 -22.921875 4.03125 -22.921875 C 4.800781 -22.921875 5.382812 -22.738281 5.78125 -22.375 C 6.1875 -22.007812 6.390625 -21.488281 6.390625 -20.8125 C 6.390625 -20.15625 6.1875 -19.640625 5.78125 -19.265625 C 5.382812 -18.898438 4.800781 -18.71875 4.03125 -18.71875 Z M 4.03125 -18.71875 "/></g></g></g><g fill="#000000" fill-opacity="1"><g transform="translate(175.917469, 54.139192)"><g><path d="M 9.15625 0.3125 C 7.539062 0.3125 6.140625 -0.015625 4.953125 -0.671875 C 3.765625 -1.328125 2.84375 -2.265625 2.1875 -3.484375 C 1.53125 -4.703125 1.203125 -6.132812 1.203125 -7.78125 C 1.203125 -9.03125 1.382812 -10.144531 1.75 -11.125 C 2.125 -12.113281 2.660156 -12.960938 3.359375 -13.671875 C 4.066406 -14.390625 4.90625 -14.929688 5.875 -15.296875 C 6.851562 -15.671875 7.945312 -15.859375 9.15625 -15.859375 C 10.757812 -15.859375 12.15625 -15.53125 13.34375 -14.875 C 14.53125 -14.21875 15.453125 -13.285156 16.109375 -12.078125 C 16.765625 -10.867188 17.09375 -9.4375 17.09375 -7.78125 C 17.09375 -6.53125 16.90625 -5.40625 16.53125 -4.40625 C 16.164062 -3.414062 15.632812 -2.566406 14.9375 -1.859375 C 14.238281 -1.148438 13.398438 -0.609375 12.421875 -0.234375 C 11.453125 0.128906 10.363281 0.3125 9.15625 0.3125 Z M 9.15625 -2.703125 C 9.9375 -2.703125 10.625 -2.890625 11.21875 -3.265625 C 11.8125 -3.648438 12.269531 -4.21875 12.59375 -4.96875 C 12.925781 -5.726562 13.09375 -6.664062 13.09375 -7.78125 C 13.09375 -9.476562 12.734375 -10.742188 12.015625 -11.578125 C 11.296875 -12.421875 10.34375 -12.84375 9.15625 -12.84375 C 8.375 -12.84375 7.6875 -12.65625 7.09375 -12.28125 C 6.5 -11.914062 6.035156 -11.351562 5.703125 -10.59375 C 5.378906 -9.84375 5.21875 -8.90625 5.21875 -7.78125 C 5.21875 -6.113281 5.578125 -4.847656 6.296875 -3.984375 C 7.015625 -3.128906 7.96875 -2.703125 9.15625 -2.703125 Z M 9.15625 -2.703125 "/></g></g></g><g fill="#000000" fill-opacity="1"><g transform="translate(194.217334, 54.139192)"><g/></g></g><g fill="#000000" fill-opacity="1"><g transform="translate(202.827169, 54.139192)"><g><path d="M 12.875 0.3125 C 10.539062 0.3125 8.539062 -0.15625 6.875 -1.09375 C 5.21875 -2.039062 3.941406 -3.375 3.046875 -5.09375 C 2.160156 -6.820312 1.71875 -8.863281 1.71875 -11.21875 C 1.71875 -12.976562 1.96875 -14.5625 2.46875 -15.96875 C 2.976562 -17.375 3.710938 -18.582031 4.671875 -19.59375 C 5.628906 -20.601562 6.800781 -21.375 8.1875 -21.90625 C 9.570312 -22.445312 11.132812 -22.71875 12.875 -22.71875 C 14.039062 -22.71875 15.179688 -22.566406 16.296875 -22.265625 C 17.421875 -21.972656 18.410156 -21.550781 19.265625 -21 C 19.703125 -20.726562 19.992188 -20.394531 20.140625 -20 C 20.296875 -19.613281 20.332031 -19.234375 20.25 -18.859375 C 20.164062 -18.492188 19.988281 -18.179688 19.71875 -17.921875 C 19.457031 -17.671875 19.128906 -17.53125 18.734375 -17.5 C 18.335938 -17.46875 17.910156 -17.597656 17.453125 -17.890625 C 16.796875 -18.316406 16.082031 -18.625 15.3125 -18.8125 C 14.550781 -19 13.78125 -19.09375 13 -19.09375 C 11.488281 -19.09375 10.210938 -18.785156 9.171875 -18.171875 C 8.140625 -17.554688 7.359375 -16.664062 6.828125 -15.5 C 6.296875 -14.34375 6.03125 -12.914062 6.03125 -11.21875 C 6.03125 -9.539062 6.296875 -8.109375 6.828125 -6.921875 C 7.359375 -5.742188 8.140625 -4.847656 9.171875 -4.234375 C 10.210938 -3.617188 11.488281 -3.3125 13 -3.3125 C 13.800781 -3.3125 14.59375 -3.410156 15.375 -3.609375 C 16.164062 -3.804688 16.910156 -4.117188 17.609375 -4.546875 C 18.078125 -4.816406 18.492188 -4.9375 18.859375 -4.90625 C 19.234375 -4.875 19.546875 -4.738281 19.796875 -4.5 C 20.054688 -4.269531 20.226562 -3.976562 20.3125 -3.625 C 20.394531 -3.28125 20.367188 -2.921875 20.234375 -2.546875 C 20.109375 -2.179688 19.859375 -1.863281 19.484375 -1.59375 C 18.628906 -0.976562 17.613281 -0.503906 16.4375 -0.171875 C 15.269531 0.148438 14.082031 0.3125 12.875 0.3125 Z M 12.875 0.3125 "/></g></g></g><g fill="#000000" fill-opacity="1"><g transform="translate(224.43118, 54.139192)"><g><path d="M 9.15625 0.3125 C 7.539062 0.3125 6.140625 -0.015625 4.953125 -0.671875 C 3.765625 -1.328125 2.84375 -2.265625 2.1875 -3.484375 C 1.53125 -4.703125 1.203125 -6.132812 1.203125 -7.78125 C 1.203125 -9.03125 1.382812 -10.144531 1.75 -11.125 C 2.125 -12.113281 2.660156 -12.960938 3.359375 -13.671875 C 4.066406 -14.390625 4.90625 -14.929688 5.875 -15.296875 C 6.851562 -15.671875 7.945312 -15.859375 9.15625 -15.859375 C 10.757812 -15.859375 12.15625 -15.53125 13.34375 -14.875 C 14.53125 -14.21875 15.453125 -13.285156 16.109375 -12.078125 C 16.765625 -10.867188 17.09375 -9.4375 17.09375 -7.78125 C 17.09375 -6.53125 16.90625 -5.40625 16.53125 -4.40625 C 16.164062 -3.414062 15.632812 -2.566406 14.9375 -1.859375 C 14.238281 -1.148438 13.398438 -0.609375 12.421875 -0.234375 C 11.453125 0.128906 10.363281 0.3125 9.15625 0.3125 Z M 9.15625 -2.703125 C 9.9375 -2.703125 10.625 -2.890625 11.21875 -3.265625 C 11.8125 -3.648438 12.269531 -4.21875 12.59375 -4.96875 C 12.925781 -5.726562 13.09375 -6.664062 13.09375 -7.78125 C 13.09375 -9.476562 12.734375 -10.742188 12.015625 -11.578125 C 11.296875 -12.421875 10.34375 -12.84375 9.15625 -12.84375 C 8.375 -12.84375 7.6875 -12.65625 7.09375 -12.28125 C 6.5 -11.914062 6.035156 -11.351562 5.703125 -10.59375 C 5.378906 -9.84375 5.21875 -8.90625 5.21875 -7.78125 C 5.21875 -6.113281 5.578125 -4.847656 6.296875 -3.984375 C 7.015625 -3.128906 7.96875 -2.703125 9.15625 -2.703125 Z M 9.15625 -2.703125 "/></g></g></g><g fill="#000000" fill-opacity="1"><g transform="translate(242.731044, 54.139192)"><g><path d="M 4.09375 0.25 C 3.4375 0.25 2.929688 0.078125 2.578125 -0.265625 C 2.234375 -0.617188 2.0625 -1.125 2.0625 -1.78125 L 2.0625 -13.796875 C 2.0625 -14.453125 2.226562 -14.945312 2.5625 -15.28125 C 2.90625 -15.625 3.382812 -15.796875 4 -15.796875 C 4.613281 -15.796875 5.085938 -15.625 5.421875 -15.28125 C 5.765625 -14.945312 5.9375 -14.453125 5.9375 -13.796875 L 5.9375 -11.796875 L 5.625 -11.796875 C 5.914062 -13.066406 6.492188 -14.03125 7.359375 -14.6875 C 8.234375 -15.34375 9.394531 -15.734375 10.84375 -15.859375 C 11.28125 -15.898438 11.628906 -15.785156 11.890625 -15.515625 C 12.160156 -15.253906 12.316406 -14.847656 12.359375 -14.296875 C 12.398438 -13.765625 12.273438 -13.332031 11.984375 -13 C 11.703125 -12.675781 11.273438 -12.484375 10.703125 -12.421875 L 10.015625 -12.359375 C 8.722656 -12.234375 7.75 -11.835938 7.09375 -11.171875 C 6.4375 -10.503906 6.109375 -9.566406 6.109375 -8.359375 L 6.109375 -1.78125 C 6.109375 -1.125 5.9375 -0.617188 5.59375 -0.265625 C 5.25 0.078125 4.75 0.25 4.09375 0.25 Z M 4.09375 0.25 "/></g></g></g><g fill="#000000" fill-opacity="1"><g transform="translate(255.185117, 54.139192)"><g><path d="M 8.046875 0.3125 C 6.679688 0.3125 5.484375 -0.015625 4.453125 -0.671875 C 3.429688 -1.328125 2.632812 -2.265625 2.0625 -3.484375 C 1.488281 -4.703125 1.203125 -6.132812 1.203125 -7.78125 C 1.203125 -9.457031 1.488281 -10.894531 2.0625 -12.09375 C 2.632812 -13.289062 3.429688 -14.21875 4.453125 -14.875 C 5.484375 -15.53125 6.679688 -15.859375 8.046875 -15.859375 C 9.335938 -15.859375 10.460938 -15.539062 11.421875 -14.90625 C 12.390625 -14.269531 13.039062 -13.429688 13.375 -12.390625 L 13.03125 -12.390625 L 13.03125 -20.65625 C 13.03125 -21.3125 13.195312 -21.804688 13.53125 -22.140625 C 13.875 -22.484375 14.363281 -22.65625 15 -22.65625 C 15.632812 -22.65625 16.125 -22.484375 16.46875 -22.140625 C 16.820312 -21.804688 17 -21.3125 17 -20.65625 L 17 -1.78125 C 17 -1.125 16.828125 -0.617188 16.484375 -0.265625 C 16.148438 0.078125 15.664062 0.25 15.03125 0.25 C 14.394531 0.25 13.90625 0.078125 13.5625 -0.265625 C 13.226562 -0.617188 13.0625 -1.125 13.0625 -1.78125 L 13.0625 -4.265625 L 13.40625 -3.3125 C 13.09375 -2.207031 12.445312 -1.328125 11.46875 -0.671875 C 10.5 -0.015625 9.359375 0.3125 8.046875 0.3125 Z M 9.15625 -2.703125 C 9.9375 -2.703125 10.625 -2.890625 11.21875 -3.265625 C 11.8125 -3.648438 12.269531 -4.21875 12.59375 -4.96875 C 12.925781 -5.726562 13.09375 -6.664062 13.09375 -7.78125 C 13.09375 -9.476562 12.734375 -10.742188 12.015625 -11.578125 C 11.296875 -12.421875 10.34375 -12.84375 9.15625 -12.84375 C 8.375 -12.84375 7.6875 -12.65625 7.09375 -12.28125 C 6.5 -11.914062 6.035156 -11.351562 5.703125 -10.59375 C 5.378906 -9.84375 5.21875 -8.90625 5.21875 -7.78125 C 5.21875 -6.113281 5.578125 -4.847656 6.296875 -3.984375 C 7.015625 -3.128906 7.96875 -2.703125 9.15625 -2.703125 Z M 9.15625 -2.703125 "/></g></g></g><g fill="#000000" fill-opacity="1"><g transform="translate(274.247472, 54.139192)"><g><path d="M 9.71875 0.3125 C 7.96875 0.3125 6.457031 -0.015625 5.1875 -0.671875 C 3.914062 -1.328125 2.929688 -2.257812 2.234375 -3.46875 C 1.546875 -4.675781 1.203125 -6.101562 1.203125 -7.75 C 1.203125 -9.363281 1.535156 -10.773438 2.203125 -11.984375 C 2.867188 -13.191406 3.789062 -14.140625 4.96875 -14.828125 C 6.144531 -15.515625 7.488281 -15.859375 9 -15.859375 C 10.09375 -15.859375 11.078125 -15.675781 11.953125 -15.3125 C 12.835938 -14.957031 13.59375 -14.441406 14.21875 -13.765625 C 14.84375 -13.085938 15.316406 -12.265625 15.640625 -11.296875 C 15.972656 -10.335938 16.140625 -9.253906 16.140625 -8.046875 C 16.140625 -7.660156 16.003906 -7.363281 15.734375 -7.15625 C 15.472656 -6.957031 15.101562 -6.859375 14.625 -6.859375 L 4.421875 -6.859375 L 4.421875 -9.15625 L 13.34375 -9.15625 L 12.84375 -8.671875 C 12.84375 -9.648438 12.695312 -10.46875 12.40625 -11.125 C 12.125 -11.78125 11.710938 -12.28125 11.171875 -12.625 C 10.628906 -12.976562 9.957031 -13.15625 9.15625 -13.15625 C 8.257812 -13.15625 7.5 -12.945312 6.875 -12.53125 C 6.25 -12.125 5.769531 -11.539062 5.4375 -10.78125 C 5.113281 -10.03125 4.953125 -9.140625 4.953125 -8.109375 L 4.953125 -7.875 C 4.953125 -6.144531 5.359375 -4.847656 6.171875 -3.984375 C 6.992188 -3.128906 8.195312 -2.703125 9.78125 -2.703125 C 10.332031 -2.703125 10.953125 -2.769531 11.640625 -2.90625 C 12.335938 -3.039062 12.992188 -3.28125 13.609375 -3.625 C 14.046875 -3.875 14.429688 -3.984375 14.765625 -3.953125 C 15.109375 -3.921875 15.378906 -3.800781 15.578125 -3.59375 C 15.785156 -3.382812 15.910156 -3.125 15.953125 -2.8125 C 15.992188 -2.507812 15.9375 -2.195312 15.78125 -1.875 C 15.625 -1.550781 15.351562 -1.273438 14.96875 -1.046875 C 14.226562 -0.578125 13.375 -0.234375 12.40625 -0.015625 C 11.445312 0.203125 10.550781 0.3125 9.71875 0.3125 Z M 9.71875 0.3125 "/></g></g></g><g fill="#000000" fill-opacity="1"><g transform="translate(291.467119, 54.139192)"><g><path d="M 4.03125 0.21875 C 3.394531 0.21875 2.90625 0.03125 2.5625 -0.34375 C 2.226562 -0.726562 2.0625 -1.257812 2.0625 -1.9375 L 2.0625 -13.609375 C 2.0625 -14.304688 2.226562 -14.835938 2.5625 -15.203125 C 2.90625 -15.578125 3.394531 -15.765625 4.03125 -15.765625 C 4.664062 -15.765625 5.15625 -15.578125 5.5 -15.203125 C 5.851562 -14.835938 6.03125 -14.304688 6.03125 -13.609375 L 6.03125 -1.9375 C 6.03125 -1.257812 5.859375 -0.726562 5.515625 -0.34375 C 5.179688 0.03125 4.6875 0.21875 4.03125 0.21875 Z M 4.03125 -18.71875 C 3.289062 -18.71875 2.710938 -18.898438 2.296875 -19.265625 C 1.890625 -19.640625 1.6875 -20.15625 1.6875 -20.8125 C 1.6875 -21.488281 1.890625 -22.007812 2.296875 -22.375 C 2.710938 -22.738281 3.289062 -22.921875 4.03125 -22.921875 C 4.800781 -22.921875 5.382812 -22.738281 5.78125 -22.375 C 6.1875 -22.007812 6.390625 -21.488281 6.390625 -20.8125 C 6.390625 -20.15625 6.1875 -19.640625 5.78125 -19.265625 C 5.382812 -18.898438 4.800781 -18.71875 4.03125 -18.71875 Z M 4.03125 -18.71875 "/></g></g></g><g fill="#000000" fill-opacity="1"><g transform="translate(299.568616, 54.139192)"><g><path d="M 4.09375 0.25 C 3.4375 0.25 2.929688 0.078125 2.578125 -0.265625 C 2.234375 -0.617188 2.0625 -1.125 2.0625 -1.78125 L 2.0625 -13.796875 C 2.0625 -14.453125 2.226562 -14.945312 2.5625 -15.28125 C 2.90625 -15.625 3.382812 -15.796875 4 -15.796875 C 4.613281 -15.796875 5.085938 -15.625 5.421875 -15.28125 C 5.765625 -14.945312 5.9375 -14.453125 5.9375 -13.796875 L 5.9375 -11.796875 L 5.625 -11.796875 C 5.914062 -13.066406 6.492188 -14.03125 7.359375 -14.6875 C 8.234375 -15.34375 9.394531 -15.734375 10.84375 -15.859375 C 11.28125 -15.898438 11.628906 -15.785156 11.890625 -15.515625 C 12.160156 -15.253906 12.316406 -14.847656 12.359375 -14.296875 C 12.398438 -13.765625 12.273438 -13.332031 11.984375 -13 C 11.703125 -12.675781 11.273438 -12.484375 10.703125 -12.421875 L 10.015625 -12.359375 C 8.722656 -12.234375 7.75 -11.835938 7.09375 -11.171875 C 6.4375 -10.503906 6.109375 -9.566406 6.109375 -8.359375 L 6.109375 -1.78125 C 6.109375 -1.125 5.9375 -0.617188 5.59375 -0.265625 C 5.25 0.078125 4.75 0.25 4.09375 0.25 Z M 4.09375 0.25 "/></g></g></g><g fill="#000000" fill-opacity="1"><g transform="translate(312.022689, 54.139192)"><g><path d="M 9.15625 0.3125 C 7.539062 0.3125 6.140625 -0.015625 4.953125 -0.671875 C 3.765625 -1.328125 2.84375 -2.265625 2.1875 -3.484375 C 1.53125 -4.703125 1.203125 -6.132812 1.203125 -7.78125 C 1.203125 -9.03125 1.382812 -10.144531 1.75 -11.125 C 2.125 -12.113281 2.660156 -12.960938 3.359375 -13.671875 C 4.066406 -14.390625 4.90625 -14.929688 5.875 -15.296875 C 6.851562 -15.671875 7.945312 -15.859375 9.15625 -15.859375 C 10.757812 -15.859375 12.15625 -15.53125 13.34375 -14.875 C 14.53125 -14.21875 15.453125 -13.285156 16.109375 -12.078125 C 16.765625 -10.867188 17.09375 -9.4375 17.09375 -7.78125 C 17.09375 -6.53125 16.90625 -5.40625 16.53125 -4.40625 C 16.164062 -3.414062 15.632812 -2.566406 14.9375 -1.859375 C 14.238281 -1.148438 13.398438 -0.609375 12.421875 -0.234375 C 11.453125 0.128906 10.363281 0.3125 9.15625 0.3125 Z M 9.15625 -2.703125 C 9.9375 -2.703125 10.625 -2.890625 11.21875 -3.265625 C 11.8125 -3.648438 12.269531 -4.21875 12.59375 -4.96875 C 12.925781 -5.726562 13.09375 -6.664062 13.09375 -7.78125 C 13.09375 -9.476562 12.734375 -10.742188 12.015625 -11.578125 C 11.296875 -12.421875 10.34375 -12.84375 9.15625 -12.84375 C 8.375 -12.84375 7.6875 -12.65625 7.09375 -12.28125 C 6.5 -11.914062 6.035156 -11.351562 5.703125 -10.59375 C 5.378906 -9.84375 5.21875 -8.90625 5.21875 -7.78125 C 5.21875 -6.113281 5.578125 -4.847656 6.296875 -3.984375 C 7.015625 -3.128906 7.96875 -2.703125 9.15625 -2.703125 Z M 9.15625 -2.703125 "/></g></g></g></svg>