<svg xmlns="http://www.w3.org/2000/svg" xmlns:xlink="http://www.w3.org/1999/xlink" width="205" zoomAndPan="magnify" viewBox="0 0 153.75 153.749995" height="205" preserveAspectRatio="xMidYMid meet" version="1.0"><defs><g/><clipPath id="6af621f516"><path d="M 0 0 L 153.5 0 L 153.5 153.5 L 0 153.5 Z M 0 0 " clip-rule="nonzero"/></clipPath><clipPath id="381fda7856"><path d="M 76.75 0 C 34.363281 0 0 34.363281 0 76.75 C 0 119.136719 34.363281 153.5 76.75 153.5 C 119.136719 153.5 153.5 119.136719 153.5 76.75 C 153.5 34.363281 119.136719 0 76.75 0 Z M 76.75 0 " clip-rule="nonzero"/></clipPath></defs><g clip-path="url(#6af621f516)"><g clip-path="url(#381fda7856)"><path fill="#ffffff" d="M 0 0 L 153.5 0 L 153.5 153.5 L 0 153.5 Z M 0 0 " fill-opacity="1" fill-rule="nonzero"/><path stroke-linecap="butt" transform="matrix(0.748782, 0, 0, 0.748782, 0.0000025, -0.000000000000010641)" fill="none" stroke-linejoin="miter" d="M 102.499733 0.000000000000014211 C 45.892209 0.000000000000014211 -0.00000333875 45.892212 -0.00000333875 102.499737 C -0.00000333875 159.107261 45.892209 204.999473 102.499733 204.999473 C 159.107258 204.999473 204.99947 159.107261 204.99947 102.499737 C 204.99947 45.892212 159.107258 0.000000000000014211 102.499733 0.000000000000014211 Z M 102.499733 0.000000000000014211 " stroke="#000000" stroke-width="20" stroke-opacity="1" stroke-miterlimit="4"/></g></g><g fill="#000000" fill-opacity="1"><g transform="translate(32.366689, 117.952929)"><g><path d="M 18.21875 1.03125 C 15.550781 1.03125 13.503906 0.28125 12.078125 -1.21875 C 10.660156 -2.726562 9.953125 -4.820312 9.953125 -7.5 L 9.953125 -82.71875 C 9.953125 -85.476562 10.679688 -87.566406 12.140625 -88.984375 C 13.609375 -90.410156 15.679688 -91.125 18.359375 -91.125 L 49.5 -91.125 C 59.5 -91.125 67.210938 -88.734375 72.640625 -83.953125 C 78.066406 -79.171875 80.78125 -72.46875 80.78125 -63.84375 C 80.78125 -58.25 79.550781 -53.425781 77.09375 -49.375 C 74.632812 -45.320312 71.078125 -42.21875 66.421875 -40.0625 C 61.773438 -37.914062 56.132812 -36.84375 49.5 -36.84375 L 50.671875 -38.78125 L 54.9375 -38.78125 C 58.46875 -38.78125 61.546875 -37.914062 64.171875 -36.1875 C 66.796875 -34.46875 69.101562 -31.753906 71.09375 -28.046875 L 80.78125 -10.078125 C 81.8125 -8.273438 82.285156 -6.507812 82.203125 -4.78125 C 82.117188 -3.0625 81.472656 -1.660156 80.265625 -0.578125 C 79.054688 0.492188 77.289062 1.03125 74.96875 1.03125 C 72.632812 1.03125 70.734375 0.535156 69.265625 -0.453125 C 67.804688 -1.441406 66.519531 -2.972656 65.40625 -5.046875 L 52.34375 -29.078125 C 50.789062 -32.003906 48.957031 -33.960938 46.84375 -34.953125 C 44.738281 -35.953125 42.050781 -36.453125 38.78125 -36.453125 L 26.5 -36.453125 L 26.5 -7.5 C 26.5 -4.820312 25.804688 -2.726562 24.421875 -1.21875 C 23.046875 0.28125 20.976562 1.03125 18.21875 1.03125 Z M 26.5 -48.734375 L 46.65625 -48.734375 C 52.601562 -48.734375 57.101562 -49.957031 60.15625 -52.40625 C 63.21875 -54.863281 64.75 -58.550781 64.75 -63.46875 C 64.75 -68.289062 63.21875 -71.925781 60.15625 -74.375 C 57.101562 -76.832031 52.601562 -78.0625 46.65625 -78.0625 L 26.5 -78.0625 Z M 26.5 -48.734375 "/></g></g></g></svg>