<svg xmlns="http://www.w3.org/2000/svg" xmlns:xlink="http://www.w3.org/1999/xlink" width="926" zoomAndPan="magnify" viewBox="0 0 694.5 153.750002" height="205" preserveAspectRatio="xMidYMid meet" version="1.0"><defs><g/><clipPath id="c232d6f312"><path d="M 0.3125 2 L 693.6875 2 L 693.6875 101 L 0.3125 101 Z M 0.3125 2 " clip-rule="nonzero"/></clipPath></defs><g clip-path="url(#c232d6f312)"><path stroke-linecap="butt" transform="matrix(1.419035, 0, 0, 1.419035, 0.44467, -13.196099)" fill="none" stroke-linejoin="miter" d="M 8.778975 62.493499 C 7.512709 62.493499 6.538236 62.135642 5.861059 61.417174 C 5.18113 60.698706 4.842541 59.704963 4.842541 58.435945 L 4.842541 22.754791 C 4.842541 21.438976 5.192141 20.445233 5.888586 19.776315 C 6.587785 19.096385 7.570517 18.757797 8.839535 18.757797 L 23.619053 18.757797 C 28.35929 18.757797 32.017696 19.894683 34.59427 22.171208 C 37.168092 24.436722 38.456379 27.616149 38.456379 31.709489 C 38.456379 34.365893 37.872796 36.656182 36.70563 38.583107 C 35.546722 40.499022 33.859286 41.971743 31.643321 42.998519 C 29.438368 44.017037 26.762695 44.526296 23.619053 44.526296 L 24.172356 43.598619 L 26.192875 43.598619 C 27.8693 43.598619 29.333764 44.006026 30.58076 44.826346 C 31.827756 45.643913 32.920598 46.9322 33.859286 48.688455 L 38.456379 57.224735 C 38.946369 58.08084 39.169342 58.920429 39.130803 59.737996 C 39.089512 60.547305 38.781204 61.210718 38.200374 61.730987 C 37.633307 62.240246 36.799223 62.493499 35.700876 62.493499 C 34.59427 62.493499 33.688615 62.259516 32.992169 61.791548 C 32.301229 61.320828 31.692871 60.591349 31.164343 59.603111 L 24.965148 48.195713 C 24.227411 46.808326 23.352037 45.877897 22.34453 45.409929 C 21.348034 44.941961 20.073511 44.705225 18.526465 44.705225 L 12.701644 44.705225 L 12.701644 58.435945 C 12.701644 59.704963 12.374067 60.698706 11.713407 61.417174 C 11.06651 62.135642 10.086531 62.493499 8.778975 62.493499 Z M 12.701644 38.880404 L 22.270206 38.880404 C 25.086269 38.880404 27.216898 38.296821 28.664845 37.129655 C 30.12105 35.962489 30.850529 34.214492 30.850529 31.888418 C 30.850529 29.592624 30.12105 27.866649 28.664845 26.707741 C 27.216898 25.540575 25.086269 24.956992 22.270206 24.956992 L 12.701644 24.956992 Z M 60.048955 62.61462 C 56.932842 62.61462 54.235146 61.978735 51.94761 60.71247 C 49.662827 59.443452 47.88455 57.637647 46.618285 55.292304 C 45.349267 52.935949 44.716134 50.161177 44.716134 46.967986 C 44.716134 44.562082 45.071239 42.409431 45.778696 40.512785 C 46.497164 38.607882 47.532198 36.969995 48.878293 35.601878 C 50.227141 34.225503 51.8375 33.182211 53.714876 32.472001 C 55.60051 31.753533 57.71187 31.395675 60.048955 31.395675 C 63.154058 31.395675 65.849001 32.028808 68.133784 33.297826 C 70.429578 34.564091 72.210608 36.367143 73.479626 38.701476 C 74.745891 41.02755 75.381776 43.783053 75.381776 46.967986 C 75.381776 49.382148 75.021166 51.554068 74.302698 53.480994 C 73.58423 55.396908 72.551949 57.043053 71.203101 58.422181 C 69.857006 59.790298 68.238389 60.830838 66.352754 61.552059 C 64.475378 62.259516 62.37503 62.61462 60.048955 62.61462 Z M 60.048955 56.7898 C 61.55471 56.7898 62.884289 56.420931 64.032186 55.680442 C 65.180083 54.942704 66.066468 53.849862 66.696848 52.401916 C 67.335486 50.953969 67.654805 49.142659 67.654805 46.967986 C 67.654805 43.703223 66.955607 41.261534 65.557209 39.645669 C 64.169823 38.027052 62.333738 37.220496 60.048955 37.220496 C 58.53219 37.220496 57.199858 37.578353 56.051961 38.296821 C 54.912323 39.015289 54.023184 40.099873 53.384546 41.54782 C 52.756919 42.993014 52.443105 44.801571 52.443105 46.967986 C 52.443105 50.202468 53.136799 52.64691 54.524185 54.304066 C 55.911571 55.961222 57.753161 56.7898 60.048955 56.7898 Z M 95.856736 73.650398 C 93.651783 73.650398 91.515648 73.443941 89.448332 73.036534 C 87.381017 72.626375 85.509146 71.993242 83.832721 71.134384 C 83.053693 70.724224 82.53067 70.234234 82.2609 69.667168 C 82.002142 69.097348 81.922312 68.513765 82.021411 67.913665 C 82.131521 67.324577 82.382021 66.80706 82.770159 66.358361 C 83.16105 65.90691 83.640028 65.598602 84.207095 65.427932 C 84.776914 65.268272 85.371509 65.353607 85.990877 65.683937 C 87.785671 66.581334 89.489624 67.159412 91.094477 67.420923 C 92.713095 67.690693 94.094975 67.825577 95.242872 67.825577 C 97.987365 67.825577 100.04367 67.159412 101.411787 65.832586 C 102.779904 64.50576 103.462586 62.534791 103.462586 59.919678 L 103.462586 54.394907 L 104.018641 54.394907 C 103.399273 56.478739 102.116491 58.146906 100.170296 59.393902 C 98.23236 60.643651 96.04117 61.265773 93.596728 61.265773 C 90.890774 61.265773 88.534419 60.643651 86.527664 59.393902 C 84.53192 58.146906 82.979368 56.398909 81.872763 54.155418 C 80.774415 51.898162 80.223865 49.277544 80.223865 46.293562 C 80.223865 44.047317 80.540431 42.015787 81.168058 40.198972 C 81.806696 38.382156 82.706846 36.821347 83.863001 35.51379 C 85.030167 34.195223 86.445081 33.182211 88.099484 32.472001 C 89.75664 31.753533 91.589972 31.395675 93.596728 31.395675 C 96.132011 31.395675 98.347975 32.017797 100.24462 33.267546 C 102.141266 34.514542 103.377251 36.160687 103.958081 38.208733 L 103.344218 39.733757 L 103.344218 35.378906 C 103.344218 34.109887 103.6773 33.15193 104.346219 32.502281 C 105.026148 31.844374 105.959331 31.514044 107.145766 31.514044 C 108.373493 31.514044 109.312181 31.844374 109.96183 32.502281 C 110.619738 33.15193 110.950068 34.109887 110.950068 35.378906 L 110.950068 58.989248 C 110.950068 63.861616 109.66178 67.520022 107.087958 69.964465 C 104.511384 72.422671 100.767643 73.650398 95.856736 73.650398 Z M 95.677807 55.440952 C 97.274402 55.440952 98.642519 55.072084 99.779405 54.334346 C 100.927302 53.593857 101.816441 52.542306 102.444068 51.174189 C 103.082706 49.806072 103.402025 48.179196 103.402025 46.293562 C 103.402025 43.477498 102.705579 41.261534 101.307182 39.645669 C 99.919796 38.027052 98.04242 37.220496 95.677807 37.220496 C 94.081212 37.220496 92.707589 37.589364 91.559692 38.327101 C 90.422806 39.064839 89.533668 40.108131 88.895029 41.456979 C 88.26465 42.803074 87.950836 44.416186 87.950836 46.293562 C 87.950836 49.117884 88.644529 51.350365 90.031915 52.985499 C 91.419302 54.623385 93.302183 55.440952 95.677807 55.440952 Z M 133.877728 62.61462 C 130.483586 62.61462 127.557412 61.978735 125.101959 60.71247 C 122.657516 59.443452 120.769129 57.648658 119.442303 55.322584 C 118.115478 52.985499 117.452065 50.227243 117.452065 47.04231 C 117.452065 43.926196 118.096208 41.206479 119.381743 38.880404 C 120.67003 36.546072 122.448307 34.71274 124.713821 33.385914 C 126.979335 32.059088 129.564167 31.395675 132.468319 31.395675 C 134.596196 31.395675 136.506605 31.745275 138.205052 32.441721 C 139.900746 33.132661 141.354198 34.134662 142.559903 35.45323 C 143.768361 36.760786 144.687779 38.343618 145.315407 40.198972 C 145.954045 42.057079 146.273364 44.151922 146.273364 46.489007 C 146.273364 47.215733 146.014605 47.774542 145.497088 48.165432 C 144.987829 48.55357 144.263856 48.749015 143.325168 48.749015 L 123.634743 48.749015 L 123.634743 44.330851 L 140.869714 44.330851 L 139.895241 45.26128 C 139.895241 43.372893 139.617213 41.795567 139.058404 40.529302 C 138.507854 39.260284 137.709557 38.291316 136.660759 37.622397 C 135.622972 36.945221 134.331932 36.606632 132.784886 36.606632 C 131.067169 36.606632 129.605459 37.005781 128.397001 37.804079 C 127.188544 38.602377 126.266372 39.731004 125.627734 41.187209 C 124.997354 42.635156 124.683541 44.361131 124.683541 46.367886 L 124.683541 46.786304 C 124.683541 50.141907 125.468074 52.64691 127.03439 54.304066 C 128.611716 55.961222 130.93779 56.7898 134.012612 56.7898 C 135.069669 56.7898 136.26161 56.660421 137.591188 56.398909 C 138.918014 56.131893 140.176021 55.666678 141.362457 55.00877 C 142.221315 54.518781 142.975569 54.304066 143.625218 54.364627 C 144.283125 54.422435 144.806148 54.659171 145.197038 55.066578 C 145.585176 55.476738 145.81916 55.980491 145.89899 56.580591 C 145.97882 57.16968 145.865957 57.772532 145.554896 58.391901 C 145.257599 59.000259 144.737329 59.528787 143.999592 59.977485 C 142.570914 60.877635 140.924769 61.541048 139.058404 61.970477 C 137.200298 62.399906 135.474323 62.61462 133.877728 62.61462 Z M 156.444778 62.493499 C 155.178512 62.493499 154.204038 62.160417 153.524109 61.491498 C 152.855191 60.811569 152.522108 59.839848 152.522108 58.57083 L 152.522108 35.378906 C 152.522108 34.109887 152.846932 33.15193 153.496582 32.502281 C 154.154489 31.844374 155.07666 31.514044 156.265849 31.514044 C 157.452284 31.514044 158.371703 31.844374 159.021352 32.502281 C 159.67926 33.15193 160.00959 34.109887 160.00959 35.378906 L 160.00959 39.241015 L 159.395726 39.241015 C 159.962793 36.796572 161.085915 34.938465 162.765093 33.669447 C 164.441518 32.403182 166.671246 31.643423 169.45703 31.395675 C 170.315888 31.315846 170.99857 31.53056 171.507829 32.039819 C 172.017088 32.549078 172.311632 33.336365 172.391462 34.404432 C 172.482303 35.42295 172.245566 36.251527 171.686758 36.890166 C 171.13896 37.517793 170.310383 37.892167 169.201024 38.013288 L 167.854929 38.148173 C 165.358184 38.387662 163.478055 39.150174 162.209037 40.438461 C 160.942772 41.726749 160.306887 43.538058 160.306887 45.875144 L 160.306887 58.57083 C 160.306887 59.839848 159.979309 60.811569 159.318649 61.491498 C 158.671753 62.160417 157.713796 62.493499 156.444778 62.493499 Z M 180.550615 62.432939 C 179.322888 62.432939 178.378695 62.06407 177.720787 61.326333 C 177.071138 60.588596 176.746314 59.564573 176.746314 58.257016 L 176.746314 35.75328 C 176.746314 34.404432 177.071138 33.37215 177.720787 32.653682 C 178.378695 31.935214 179.322888 31.574604 180.550615 31.574604 C 181.778342 31.574604 182.725288 31.935214 183.394206 32.653682 C 184.074136 33.37215 184.412724 34.404432 184.412724 35.75328 L 184.412724 58.257016 C 184.412724 59.564573 184.082394 60.588596 183.424487 61.326333 C 182.774837 62.06407 181.81688 62.432939 180.550615 62.432939 Z M 180.550615 25.870905 C 179.121937 25.870905 178.009826 25.5158 177.211528 24.80559 C 176.413231 24.087122 176.014082 23.096132 176.014082 21.827114 C 176.014082 20.519558 176.413231 19.520309 177.211528 18.832121 C 178.009826 18.132923 179.121937 17.783323 180.550615 17.783323 C 182.026089 17.783323 183.149212 18.132923 183.919982 18.832121 C 184.696257 19.520309 185.087148 20.519558 185.087148 21.827114 C 185.087148 23.096132 184.696257 24.087122 183.919982 24.80559 C 183.149212 25.5158 182.026089 25.870905 180.550615 25.870905 Z M 206.2558 62.61462 C 203.139687 62.61462 200.439238 61.978735 198.154455 60.71247 C 195.869672 59.443452 194.091395 57.637647 192.82513 55.292304 C 191.556112 52.935949 190.922979 50.161177 190.922979 46.967986 C 190.922979 44.562082 191.278084 42.409431 191.985541 40.512785 C 192.704009 38.607882 193.736291 36.969995 195.085138 35.601878 C 196.431233 34.225503 198.044345 33.182211 199.921721 32.472001 C 201.807355 31.753533 203.918715 31.395675 206.2558 31.395675 C 209.35815 31.395675 212.055846 32.028808 214.340629 33.297826 C 216.636423 34.564091 218.417453 36.367143 219.686471 38.701476 C 220.952736 41.02755 221.588622 43.783053 221.588622 46.967986 C 221.588622 49.382148 221.228011 51.554068 220.509543 53.480994 C 219.791075 55.396908 218.758794 57.043053 217.409946 58.422181 C 216.061098 59.790298 214.445234 60.830838 212.559599 61.552059 C 210.682223 62.259516 208.581875 62.61462 206.2558 62.61462 Z M 206.2558 56.7898 C 207.761555 56.7898 209.091134 56.420931 210.239031 55.680442 C 211.386928 54.942704 212.273313 53.849862 212.903693 52.401916 C 213.542331 50.953969 213.86165 49.142659 213.86165 46.967986 C 213.86165 43.703223 213.162452 41.261534 211.764054 39.645669 C 210.376668 38.027052 208.540583 37.220496 206.2558 37.220496 C 204.736282 37.220496 203.403951 37.578353 202.256054 38.296821 C 201.119168 39.015289 200.230029 40.099873 199.591391 41.54782 C 198.963764 42.993014 198.647198 44.801571 198.647198 46.967986 C 198.647198 50.202468 199.343644 52.64691 200.73103 54.304066 C 202.118416 55.961222 203.960006 56.7898 206.2558 56.7898 Z M 265.739989 62.61462 C 261.239242 62.61462 257.379885 61.706213 254.164673 59.889397 C 250.960471 58.061571 248.502265 55.487749 246.784548 52.162426 C 245.066832 48.828845 244.207974 44.889659 244.207974 40.34762 C 244.207974 36.956232 244.697963 33.900678 245.67519 31.186466 C 246.663427 28.461243 248.075588 26.129663 249.914426 24.191727 C 251.75051 22.245532 254.005013 20.753541 256.680687 19.715754 C 259.367371 18.666956 262.387139 18.143934 265.739989 18.143934 C 267.986234 18.143934 270.191187 18.432973 272.357602 19.01105 C 274.524016 19.58087 276.426167 20.398437 278.064054 21.466504 C 278.920159 21.997785 279.495484 22.641928 279.784523 23.398935 C 280.073562 24.147683 280.134122 24.882667 279.963452 25.601135 C 279.803792 26.319603 279.465204 26.922456 278.947687 27.412445 C 278.438428 27.902435 277.802542 28.174957 277.045536 28.235518 C 276.296788 28.296078 275.473715 28.040072 274.573566 27.473006 C 273.307301 26.652686 271.933678 26.058092 270.455451 25.689223 C 268.988235 25.320355 267.496244 25.13592 265.979478 25.13592 C 263.075327 25.13592 260.619873 25.730515 258.613118 26.91695 C 256.617374 28.106138 255.103361 29.823855 254.076585 32.067347 C 253.058067 34.313591 252.548808 37.0746 252.548808 40.34762 C 252.548808 43.582102 253.058067 46.343111 254.076585 48.627894 C 255.103361 50.91543 256.617374 52.652416 258.613118 53.838851 C 260.619873 55.02804 263.075327 55.622634 265.979478 55.622634 C 267.537535 55.622634 269.068065 55.427188 270.576572 55.036298 C 272.093338 54.64816 273.524768 54.045308 274.873616 53.224988 C 275.771013 52.69646 276.580321 52.462476 277.298789 52.523037 C 278.017257 52.580844 278.622862 52.83685 279.110099 53.285548 C 279.600089 53.734247 279.924913 54.298561 280.084573 54.97849 C 280.255243 55.655667 280.213952 56.354865 279.963452 57.073333 C 279.723962 57.783543 279.236726 58.400159 278.496236 58.93144 C 276.861102 60.117876 274.903896 61.031789 272.627371 61.670427 C 270.361857 62.300807 268.066063 62.61462 265.739989 62.61462 Z M 300.454928 62.61462 C 297.341567 62.61462 294.641118 61.978735 292.353582 60.71247 C 290.068799 59.443452 288.290522 57.637647 287.024257 55.292304 C 285.755239 52.935949 285.122106 50.161177 285.122106 46.967986 C 285.122106 44.562082 285.477211 42.409431 286.184668 40.512785 C 286.903136 38.607882 287.93817 36.969995 289.284265 35.601878 C 290.633113 34.225503 292.243472 33.182211 294.120848 32.472001 C 296.009235 31.753533 298.117842 31.395675 300.454928 31.395675 C 303.56003 31.395675 306.254973 32.028808 308.539756 33.297826 C 310.83555 34.564091 312.619333 36.367143 313.885598 38.701476 C 315.154616 41.02755 315.787749 43.783053 315.787749 46.967986 C 315.787749 49.382148 315.427138 51.554068 314.70867 53.480994 C 313.990202 55.396908 312.957921 57.043053 311.609073 58.422181 C 310.262978 59.790298 308.644361 60.830838 306.758727 61.552059 C 304.881351 62.259516 302.781002 62.61462 300.454928 62.61462 Z M 300.454928 56.7898 C 301.963435 56.7898 303.290261 56.420931 304.438158 55.680442 C 305.586055 54.942704 306.475193 53.849862 307.10282 52.401916 C 307.741459 50.953969 308.060778 49.142659 308.060778 46.967986 C 308.060778 43.703223 307.361579 41.261534 305.965934 39.645669 C 304.578548 38.027052 302.739711 37.220496 300.454928 37.220496 C 298.938162 37.220496 297.605831 37.578353 296.457934 38.296821 C 295.318295 39.015289 294.431909 40.099873 293.793271 41.54782 C 293.162891 42.993014 292.849078 44.801571 292.849078 46.967986 C 292.849078 50.202468 293.542771 52.64691 294.930157 54.304066 C 296.317543 55.961222 298.159134 56.7898 300.454928 56.7898 Z M 326.201404 62.493499 C 324.935139 62.493499 323.960665 62.160417 323.280736 61.491498 C 322.611817 60.811569 322.278735 59.839848 322.278735 58.57083 L 322.278735 35.378906 C 322.278735 34.109887 322.603559 33.15193 323.253208 32.502281 C 323.911116 31.844374 324.833287 31.514044 326.022476 31.514044 C 327.208911 31.514044 328.12833 31.844374 328.777979 32.502281 C 329.435886 33.15193 329.766216 34.109887 329.766216 35.378906 L 329.766216 39.241015 L 329.152353 39.241015 C 329.71942 36.796572 330.842542 34.938465 332.518967 33.669447 C 334.198145 32.403182 336.427873 31.643423 339.213657 31.395675 C 340.072515 31.315846 340.755197 31.53056 341.264456 32.039819 C 341.773715 32.549078 342.068259 33.336365 342.148089 34.404432 C 342.23893 35.42295 342.002193 36.251527 341.443385 36.890166 C 340.895587 37.517793 340.067009 37.892167 338.957651 38.013288 L 337.611556 38.148173 C 335.114811 38.387662 333.234682 39.150174 331.965664 40.438461 C 330.699399 41.726749 330.063513 43.538058 330.063513 45.875144 L 330.063513 58.57083 C 330.063513 59.839848 329.735936 60.811569 329.075276 61.491498 C 328.42838 62.160417 327.470422 62.493499 326.201404 62.493499 Z M 358.03146 62.61462 C 355.416347 62.61462 353.115047 61.978735 351.130314 60.71247 C 349.153839 59.443452 347.612299 57.637647 346.50294 55.292304 C 345.404593 52.935949 344.856795 50.161177 344.856795 46.967986 C 344.856795 43.741762 345.404593 40.978 346.50294 38.671195 C 347.612299 36.356132 349.153839 34.564091 351.130314 33.297826 C 353.115047 32.028808 355.416347 31.395675 358.03146 31.395675 C 360.528205 31.395675 362.702878 32.009539 364.560985 33.237266 C 366.42735 34.464992 367.685357 36.080857 368.335006 38.087612 L 367.660582 38.087612 L 367.660582 22.140928 C 367.660582 20.874662 367.985406 19.916705 368.632303 19.267056 C 369.292963 18.609149 370.234404 18.278819 371.46213 18.278819 C 372.69261 18.278819 373.639556 18.609149 374.308475 19.267056 C 374.988404 19.916705 375.326992 20.874662 375.326992 22.140928 L 375.326992 58.57083 C 375.326992 59.839848 374.996662 60.811569 374.338755 61.491498 C 373.689106 62.160417 372.750418 62.493499 371.522691 62.493499 C 370.305975 62.493499 369.367287 62.160417 368.70938 61.491498 C 368.04872 60.811569 367.721142 59.839848 367.721142 58.57083 L 367.721142 53.781044 L 368.40933 55.622634 C 367.789961 57.747757 366.53746 59.443452 364.651825 60.71247 C 362.774449 61.978735 360.566743 62.61462 358.03146 62.61462 Z M 360.189617 56.7898 C 361.695371 56.7898 363.02495 56.420931 364.172847 55.680442 C 365.320744 54.942704 366.207129 53.849862 366.837509 52.401916 C 367.476148 50.953969 367.795467 49.142659 367.795467 46.967986 C 367.795467 43.703223 367.096268 41.261534 365.697871 39.645669 C 364.310484 38.027052 362.4744 37.220496 360.189617 37.220496 C 358.670098 37.220496 357.337767 37.578353 356.18987 38.296821 C 355.052984 39.015289 354.163845 40.099873 353.525207 41.54782 C 352.89758 42.993014 352.581014 44.801571 352.581014 46.967986 C 352.581014 50.202468 353.27746 52.64691 354.664846 54.304066 C 356.052232 55.961222 357.893823 56.7898 360.189617 56.7898 Z M 398.262911 62.61462 C 394.868769 62.61462 391.942595 61.978735 389.487142 60.71247 C 387.042699 59.443452 385.157065 57.648658 383.827486 55.322584 C 382.500661 52.985499 381.837248 50.227243 381.837248 47.04231 C 381.837248 43.926196 382.481391 41.206479 383.769679 38.880404 C 385.055213 36.546072 386.83349 34.71274 389.099004 33.385914 C 391.364518 32.059088 393.94935 31.395675 396.856255 31.395675 C 398.981379 31.395675 400.891788 31.745275 402.590235 32.441721 C 404.285929 33.132661 405.739381 34.134662 406.947839 35.45323 C 408.153544 36.760786 409.072963 38.343618 409.703342 40.198972 C 410.341981 42.057079 410.6613 44.151922 410.6613 46.489007 C 410.6613 47.215733 410.399788 47.774542 409.882271 48.165432 C 409.373012 48.55357 408.649039 48.749015 407.710351 48.749015 L 388.019926 48.749015 L 388.019926 44.330851 L 405.254897 44.330851 L 404.283176 45.26128 C 404.283176 43.372893 404.002396 41.795567 403.443587 40.529302 C 402.893037 39.260284 402.09474 38.291316 401.048694 37.622397 C 400.008155 36.945221 398.717115 36.606632 397.170069 36.606632 C 395.452352 36.606632 393.990642 37.005781 392.782184 37.804079 C 391.573727 38.602377 390.651555 39.731004 390.012917 41.187209 C 389.382537 42.635156 389.068724 44.361131 389.068724 46.367886 L 389.068724 46.786304 C 389.068724 50.141907 389.853258 52.64691 391.419573 54.304066 C 392.996899 55.961222 395.322973 56.7898 398.397796 56.7898 C 399.454852 56.7898 400.649546 56.660421 401.976371 56.398909 C 403.303197 56.131893 404.561204 55.666678 405.750392 55.00877 C 406.606498 54.518781 407.360752 54.304066 408.010401 54.364627 C 408.668308 54.422435 409.194084 54.659171 409.582221 55.066578 C 409.970359 55.476738 410.207096 55.980491 410.286926 56.580591 C 410.366755 57.16968 410.25114 57.772532 409.942832 58.391901 C 409.642782 59.000259 409.122512 59.528787 408.384775 59.977485 C 406.956097 60.877635 405.309952 61.541048 403.443587 61.970477 C 401.585481 62.399906 399.859506 62.61462 398.262911 62.61462 Z M 420.711592 62.432939 C 419.483865 62.432939 418.539672 62.06407 417.881765 61.326333 C 417.232115 60.588596 416.907291 59.564573 416.907291 58.257016 L 416.907291 35.75328 C 416.907291 34.404432 417.232115 33.37215 417.881765 32.653682 C 418.539672 31.935214 419.483865 31.574604 420.711592 31.574604 C 421.939319 31.574604 422.886265 31.935214 423.555184 32.653682 C 424.235113 33.37215 424.573701 34.404432 424.573701 35.75328 L 424.573701 58.257016 C 424.573701 59.564573 424.246124 60.588596 423.585464 61.326333 C 422.935815 62.06407 421.977858 62.432939 420.711592 62.432939 Z M 420.711592 25.870905 C 419.282915 25.870905 418.170803 25.5158 417.372506 24.80559 C 416.574208 24.087122 416.175059 23.096132 416.175059 21.827114 C 416.175059 20.519558 416.574208 19.520309 417.372506 18.832121 C 418.170803 18.132923 419.282915 17.783323 420.711592 17.783323 C 422.189819 17.783323 423.310189 18.132923 424.080959 18.832121 C 424.859987 19.520309 425.248125 20.519558 425.248125 21.827114 C 425.248125 23.096132 424.859987 24.087122 424.080959 24.80559 C 423.310189 25.5158 422.189819 25.870905 420.711592 25.870905 Z M 436.652771 62.493499 C 435.386506 62.493499 434.412032 62.160417 433.734856 61.491498 C 433.065937 60.811569 432.730102 59.839848 432.730102 58.57083 L 432.730102 35.378906 C 432.730102 34.109887 433.054926 33.15193 433.704575 32.502281 C 434.362483 31.844374 435.287407 31.514044 436.473842 31.514044 C 437.663031 31.514044 438.579697 31.844374 439.229346 32.502281 C 439.887253 33.15193 440.217583 34.109887 440.217583 35.378906 L 440.217583 39.241015 L 439.60372 39.241015 C 440.173539 36.796572 441.296662 34.938465 442.973087 33.669447 C 444.649512 32.403182 446.87924 31.643423 449.665024 31.395675 C 450.523882 31.315846 451.206564 31.53056 451.715823 32.039819 C 452.225082 32.549078 452.519626 33.336365 452.599456 34.404432 C 452.690297 35.42295 452.456313 36.251527 451.897504 36.890166 C 451.346954 37.517793 450.518376 37.892167 449.41177 38.013288 L 448.062923 38.148173 C 445.568931 38.387662 443.686049 39.150174 442.417031 40.438461 C 441.150766 41.726749 440.517633 43.538058 440.517633 45.875144 L 440.517633 58.57083 C 440.517633 59.839848 440.187303 60.811569 439.529396 61.491498 C 438.879747 62.160417 437.921789 62.493499 436.652771 62.493499 Z M 470.640983 62.61462 C 467.527622 62.61462 464.827174 61.978735 462.539638 60.71247 C 460.254855 59.443452 458.476578 57.637647 457.210313 55.292304 C 455.941295 52.935949 455.308162 50.161177 455.308162 46.967986 C 455.308162 44.562082 455.663267 42.409431 456.370724 40.512785 C 457.089192 38.607882 458.124226 36.969995 459.470321 35.601878 C 460.819169 34.225503 462.429528 33.182211 464.306904 32.472001 C 466.192538 31.753533 468.303898 31.395675 470.640983 31.395675 C 473.746086 31.395675 476.441029 32.028808 478.725812 33.297826 C 481.021606 34.564091 482.802636 36.367143 484.071654 38.701476 C 485.340672 41.02755 485.973805 43.783053 485.973805 46.967986 C 485.973805 49.382148 485.613194 51.554068 484.894726 53.480994 C 484.176258 55.396908 483.143977 57.043053 481.795129 58.422181 C 480.449034 59.790298 478.830417 60.830838 476.944782 61.552059 C 475.067407 62.259516 472.967058 62.61462 470.640983 62.61462 Z M 470.640983 56.7898 C 472.146738 56.7898 473.476317 56.420931 474.624214 55.680442 C 475.772111 54.942704 476.661249 53.849862 477.288876 52.401916 C 477.927514 50.953969 478.246834 49.142659 478.246834 46.967986 C 478.246834 43.703223 477.547635 41.261534 476.15199 39.645669 C 474.764604 38.027052 472.925767 37.220496 470.640983 37.220496 C 469.124218 37.220496 467.791887 37.578353 466.64399 38.296821 C 465.504351 39.015289 464.615212 40.099873 463.976574 41.54782 C 463.348947 42.993014 463.035133 44.801571 463.035133 46.967986 C 463.035133 50.202468 463.728827 52.64691 465.116213 54.304066 C 466.503599 55.961222 468.345189 56.7898 470.640983 56.7898 Z M 470.640983 56.7898 " stroke="#000000" stroke-width="1.149999" stroke-opacity="1" stroke-miterlimit="4"/></g><g fill="#000000" fill-opacity="1"><g transform="translate(0.622049, 74.784082)"><g><path d="M 12.265625 0.703125 C 10.472656 0.703125 9.097656 0.195312 8.140625 -0.8125 C 7.179688 -1.832031 6.703125 -3.242188 6.703125 -5.046875 L 6.703125 -55.703125 C 6.703125 -57.554688 7.191406 -58.960938 8.171875 -59.921875 C 9.160156 -60.878906 10.554688 -61.359375 12.359375 -61.359375 L 33.328125 -61.359375 C 40.054688 -61.359375 45.25 -59.75 48.90625 -56.53125 C 52.5625 -53.3125 54.390625 -48.800781 54.390625 -43 C 54.390625 -39.226562 53.5625 -35.976562 51.90625 -33.25 C 50.257812 -30.519531 47.867188 -28.425781 44.734375 -26.96875 C 41.597656 -25.519531 37.796875 -24.796875 33.328125 -24.796875 L 34.109375 -26.109375 L 36.984375 -26.109375 C 39.367188 -26.109375 41.441406 -25.523438 43.203125 -24.359375 C 44.972656 -23.203125 46.53125 -21.378906 47.875 -18.890625 L 54.390625 -6.78125 C 55.085938 -5.5625 55.40625 -4.375 55.34375 -3.21875 C 55.289062 -2.0625 54.859375 -1.117188 54.046875 -0.390625 C 53.234375 0.335938 52.046875 0.703125 50.484375 0.703125 C 48.910156 0.703125 47.628906 0.367188 46.640625 -0.296875 C 45.660156 -0.972656 44.789062 -2.003906 44.03125 -3.390625 L 35.25 -19.578125 C 34.207031 -21.554688 32.972656 -22.878906 31.546875 -23.546875 C 30.128906 -24.210938 28.316406 -24.546875 26.109375 -24.546875 L 17.84375 -24.546875 L 17.84375 -5.046875 C 17.84375 -3.242188 17.378906 -1.832031 16.453125 -0.8125 C 15.523438 0.195312 14.128906 0.703125 12.265625 0.703125 Z M 17.84375 -32.8125 L 31.421875 -32.8125 C 35.421875 -32.8125 38.453125 -33.632812 40.515625 -35.28125 C 42.578125 -36.9375 43.609375 -39.421875 43.609375 -42.734375 C 43.609375 -45.984375 42.578125 -48.429688 40.515625 -50.078125 C 38.453125 -51.734375 35.421875 -52.5625 31.421875 -52.5625 L 17.84375 -52.5625 Z M 17.84375 -32.8125 "/></g></g></g><g fill="#000000" fill-opacity="1"><g transform="translate(60.58355, 74.784082)"><g><path d="M 25.0625 0.875 C 20.65625 0.875 16.828125 -0.0234375 13.578125 -1.828125 C 10.328125 -3.628906 7.800781 -6.195312 6 -9.53125 C 4.207031 -12.863281 3.3125 -16.796875 3.3125 -21.328125 C 3.3125 -24.742188 3.816406 -27.800781 4.828125 -30.5 C 5.847656 -33.195312 7.3125 -35.515625 9.21875 -37.453125 C 11.132812 -39.398438 13.425781 -40.878906 16.09375 -41.890625 C 18.769531 -42.910156 21.757812 -43.421875 25.0625 -43.421875 C 29.46875 -43.421875 33.296875 -42.519531 36.546875 -40.71875 C 39.796875 -38.925781 42.320312 -36.375 44.125 -33.0625 C 45.925781 -29.757812 46.828125 -25.847656 46.828125 -21.328125 C 46.828125 -17.898438 46.316406 -14.820312 45.296875 -12.09375 C 44.285156 -9.363281 42.820312 -7.023438 40.90625 -5.078125 C 38.988281 -3.140625 36.695312 -1.660156 34.03125 -0.640625 C 31.363281 0.367188 28.375 0.875 25.0625 0.875 Z M 25.0625 -7.390625 C 27.207031 -7.390625 29.09375 -7.910156 30.71875 -8.953125 C 32.34375 -10.003906 33.601562 -11.554688 34.5 -13.609375 C 35.40625 -15.671875 35.859375 -18.242188 35.859375 -21.328125 C 35.859375 -25.960938 34.867188 -29.425781 32.890625 -31.71875 C 30.921875 -34.007812 28.3125 -35.15625 25.0625 -35.15625 C 22.914062 -35.15625 21.03125 -34.644531 19.40625 -33.625 C 17.78125 -32.613281 16.515625 -31.078125 15.609375 -29.015625 C 14.710938 -26.960938 14.265625 -24.398438 14.265625 -21.328125 C 14.265625 -16.742188 15.25 -13.273438 17.21875 -10.921875 C 19.195312 -8.566406 21.8125 -7.390625 25.0625 -7.390625 Z M 25.0625 -7.390625 "/></g></g></g><g fill="#000000" fill-opacity="1"><g transform="translate(110.972107, 74.784082)"><g><path d="M 25.5 16.53125 C 22.363281 16.53125 19.332031 16.238281 16.40625 15.65625 C 13.476562 15.082031 10.820312 14.1875 8.4375 12.96875 C 7.332031 12.382812 6.59375 11.6875 6.21875 10.875 C 5.84375 10.0625 5.726562 9.234375 5.875 8.390625 C 6.019531 7.554688 6.367188 6.816406 6.921875 6.171875 C 7.472656 5.535156 8.15625 5.101562 8.96875 4.875 C 9.78125 4.644531 10.617188 4.757812 11.484375 5.21875 C 14.035156 6.5 16.457031 7.328125 18.75 7.703125 C 21.039062 8.078125 23 8.265625 24.625 8.265625 C 28.519531 8.265625 31.4375 7.320312 33.375 5.4375 C 35.320312 3.550781 36.296875 0.753906 36.296875 -2.953125 L 36.296875 -10.796875 L 37.078125 -10.796875 C 36.203125 -7.835938 34.382812 -5.472656 31.625 -3.703125 C 28.875 -1.929688 25.757812 -1.046875 22.28125 -1.046875 C 18.445312 -1.046875 15.109375 -1.929688 12.265625 -3.703125 C 9.421875 -5.472656 7.21875 -7.953125 5.65625 -11.140625 C 4.09375 -14.328125 3.3125 -18.039062 3.3125 -22.28125 C 3.3125 -25.46875 3.757812 -28.351562 4.65625 -30.9375 C 5.550781 -33.519531 6.828125 -35.738281 8.484375 -37.59375 C 10.140625 -39.445312 12.140625 -40.878906 14.484375 -41.890625 C 16.835938 -42.910156 19.4375 -43.421875 22.28125 -43.421875 C 25.875 -43.421875 29.019531 -42.535156 31.71875 -40.765625 C 34.414062 -39.003906 36.171875 -36.671875 36.984375 -33.765625 L 36.125 -31.59375 L 36.125 -37.765625 C 36.125 -39.566406 36.597656 -40.929688 37.546875 -41.859375 C 38.503906 -42.785156 39.828125 -43.25 41.515625 -43.25 C 43.253906 -43.25 44.585938 -42.785156 45.515625 -41.859375 C 46.441406 -40.929688 46.90625 -39.566406 46.90625 -37.765625 L 46.90625 -4.265625 C 46.90625 2.640625 45.078125 7.832031 41.421875 11.3125 C 37.765625 14.789062 32.457031 16.53125 25.5 16.53125 Z M 25.234375 -9.3125 C 27.503906 -9.3125 29.445312 -9.832031 31.0625 -10.875 C 32.6875 -11.925781 33.945312 -13.421875 34.84375 -15.359375 C 35.75 -17.304688 36.203125 -19.613281 36.203125 -22.28125 C 36.203125 -26.28125 35.210938 -29.425781 33.234375 -31.71875 C 31.265625 -34.007812 28.597656 -35.15625 25.234375 -35.15625 C 22.972656 -35.15625 21.03125 -34.632812 19.40625 -33.59375 C 17.78125 -32.550781 16.515625 -31.070312 15.609375 -29.15625 C 14.710938 -27.238281 14.265625 -24.945312 14.265625 -22.28125 C 14.265625 -18.28125 15.25 -15.117188 17.21875 -12.796875 C 19.195312 -10.472656 21.867188 -9.3125 25.234375 -9.3125 Z M 25.234375 -9.3125 "/></g></g></g><g fill="#000000" fill-opacity="1"><g transform="translate(163.797421, 74.784082)"><g><path d="M 26.625 0.875 C 21.8125 0.875 17.664062 -0.0234375 14.1875 -1.828125 C 10.707031 -3.628906 8.023438 -6.179688 6.140625 -9.484375 C 4.253906 -12.796875 3.3125 -16.710938 3.3125 -21.234375 C 3.3125 -25.640625 4.222656 -29.492188 6.046875 -32.796875 C 7.878906 -36.109375 10.40625 -38.707031 13.625 -40.59375 C 16.84375 -42.476562 20.507812 -43.421875 24.625 -43.421875 C 27.644531 -43.421875 30.359375 -42.925781 32.765625 -41.9375 C 35.171875 -40.957031 37.226562 -39.539062 38.9375 -37.6875 C 40.65625 -35.832031 41.960938 -33.582031 42.859375 -30.9375 C 43.765625 -28.300781 44.21875 -25.328125 44.21875 -22.015625 C 44.21875 -20.972656 43.851562 -20.175781 43.125 -19.625 C 42.394531 -19.070312 41.363281 -18.796875 40.03125 -18.796875 L 12.09375 -18.796875 L 12.09375 -25.0625 L 36.546875 -25.0625 L 35.15625 -23.765625 C 35.15625 -26.429688 34.765625 -28.660156 33.984375 -30.453125 C 33.203125 -32.253906 32.070312 -33.632812 30.59375 -34.59375 C 29.113281 -35.550781 27.269531 -36.03125 25.0625 -36.03125 C 22.625 -36.03125 20.550781 -35.460938 18.84375 -34.328125 C 17.132812 -33.203125 15.828125 -31.609375 14.921875 -29.546875 C 14.023438 -27.484375 13.578125 -25.03125 13.578125 -22.1875 L 13.578125 -21.578125 C 13.578125 -16.828125 14.691406 -13.273438 16.921875 -10.921875 C 19.160156 -8.566406 22.457031 -7.390625 26.8125 -7.390625 C 28.3125 -7.390625 30.003906 -7.578125 31.890625 -7.953125 C 33.773438 -8.335938 35.5625 -8.992188 37.25 -9.921875 C 38.46875 -10.617188 39.539062 -10.921875 40.46875 -10.828125 C 41.394531 -10.742188 42.132812 -10.410156 42.6875 -9.828125 C 43.238281 -9.253906 43.570312 -8.546875 43.6875 -7.703125 C 43.800781 -6.859375 43.640625 -6 43.203125 -5.125 C 42.773438 -4.257812 42.035156 -3.507812 40.984375 -2.875 C 38.960938 -1.59375 36.628906 -0.644531 33.984375 -0.03125 C 31.347656 0.570312 28.894531 0.875 26.625 0.875 Z M 26.625 0.875 "/></g></g></g><g fill="#000000" fill-opacity="1"><g transform="translate(211.227062, 74.784082)"><g><path d="M 11.234375 0.703125 C 9.429688 0.703125 8.050781 0.222656 7.09375 -0.734375 C 6.132812 -1.691406 5.65625 -3.070312 5.65625 -4.875 L 5.65625 -37.765625 C 5.65625 -39.566406 6.117188 -40.929688 7.046875 -41.859375 C 7.972656 -42.785156 9.28125 -43.25 10.96875 -43.25 C 12.644531 -43.25 13.945312 -42.785156 14.875 -41.859375 C 15.8125 -40.929688 16.28125 -39.566406 16.28125 -37.765625 L 16.28125 -32.28125 L 15.40625 -32.28125 C 16.21875 -35.769531 17.8125 -38.410156 20.1875 -40.203125 C 22.570312 -42.003906 25.734375 -43.078125 29.671875 -43.421875 C 30.890625 -43.546875 31.863281 -43.242188 32.59375 -42.515625 C 33.320312 -41.785156 33.742188 -40.671875 33.859375 -39.171875 C 33.972656 -37.710938 33.632812 -36.535156 32.84375 -35.640625 C 32.0625 -34.742188 30.890625 -34.207031 29.328125 -34.03125 L 27.421875 -33.859375 C 23.878906 -33.503906 21.207031 -32.410156 19.40625 -30.578125 C 17.601562 -28.753906 16.703125 -26.191406 16.703125 -22.890625 L 16.703125 -4.875 C 16.703125 -3.070312 16.238281 -1.691406 15.3125 -0.734375 C 14.382812 0.222656 13.023438 0.703125 11.234375 0.703125 Z M 11.234375 0.703125 "/></g></g></g><g fill="#000000" fill-opacity="1"><g transform="translate(245.6027, 74.784082)"><g><path d="M 11.046875 0.609375 C 9.304688 0.609375 7.972656 0.0859375 7.046875 -0.953125 C 6.117188 -2.003906 5.65625 -3.457031 5.65625 -5.3125 L 5.65625 -37.25 C 5.65625 -39.164062 6.117188 -40.628906 7.046875 -41.640625 C 7.972656 -42.660156 9.304688 -43.171875 11.046875 -43.171875 C 12.785156 -43.171875 14.132812 -42.660156 15.09375 -41.640625 C 16.050781 -40.628906 16.53125 -39.164062 16.53125 -37.25 L 16.53125 -5.3125 C 16.53125 -3.457031 16.066406 -2.003906 15.140625 -0.953125 C 14.210938 0.0859375 12.847656 0.609375 11.046875 0.609375 Z M 11.046875 -51.265625 C 9.015625 -51.265625 7.429688 -51.769531 6.296875 -52.78125 C 5.171875 -53.800781 4.609375 -55.207031 4.609375 -57 C 4.609375 -58.863281 5.171875 -60.285156 6.296875 -61.265625 C 7.429688 -62.253906 9.015625 -62.75 11.046875 -62.75 C 13.140625 -62.75 14.738281 -62.253906 15.84375 -61.265625 C 16.945312 -60.285156 17.5 -58.863281 17.5 -57 C 17.5 -55.207031 16.945312 -53.800781 15.84375 -52.78125 C 14.738281 -51.769531 13.140625 -51.265625 11.046875 -51.265625 Z M 11.046875 -51.265625 "/></g></g></g><g fill="#000000" fill-opacity="1"><g transform="translate(268.055658, 74.784082)"><g><path d="M 25.0625 0.875 C 20.65625 0.875 16.828125 -0.0234375 13.578125 -1.828125 C 10.328125 -3.628906 7.800781 -6.195312 6 -9.53125 C 4.207031 -12.863281 3.3125 -16.796875 3.3125 -21.328125 C 3.3125 -24.742188 3.816406 -27.800781 4.828125 -30.5 C 5.847656 -33.195312 7.3125 -35.515625 9.21875 -37.453125 C 11.132812 -39.398438 13.425781 -40.878906 16.09375 -41.890625 C 18.769531 -42.910156 21.757812 -43.421875 25.0625 -43.421875 C 29.46875 -43.421875 33.296875 -42.519531 36.546875 -40.71875 C 39.796875 -38.925781 42.320312 -36.375 44.125 -33.0625 C 45.925781 -29.757812 46.828125 -25.847656 46.828125 -21.328125 C 46.828125 -17.898438 46.316406 -14.820312 45.296875 -12.09375 C 44.285156 -9.363281 42.820312 -7.023438 40.90625 -5.078125 C 38.988281 -3.140625 36.695312 -1.660156 34.03125 -0.640625 C 31.363281 0.367188 28.375 0.875 25.0625 0.875 Z M 25.0625 -7.390625 C 27.207031 -7.390625 29.09375 -7.910156 30.71875 -8.953125 C 32.34375 -10.003906 33.601562 -11.554688 34.5 -13.609375 C 35.40625 -15.671875 35.859375 -18.242188 35.859375 -21.328125 C 35.859375 -25.960938 34.867188 -29.425781 32.890625 -31.71875 C 30.921875 -34.007812 28.3125 -35.15625 25.0625 -35.15625 C 22.914062 -35.15625 21.03125 -34.644531 19.40625 -33.625 C 17.78125 -32.613281 16.515625 -31.078125 15.609375 -29.015625 C 14.710938 -26.960938 14.265625 -24.398438 14.265625 -21.328125 C 14.265625 -16.742188 15.25 -13.273438 17.21875 -10.921875 C 19.195312 -8.566406 21.8125 -7.390625 25.0625 -7.390625 Z M 25.0625 -7.390625 "/></g></g></g><g fill="#000000" fill-opacity="1"><g transform="translate(318.444225, 74.784082)"><g/></g></g><g fill="#000000" fill-opacity="1"><g transform="translate(342.289607, 74.784082)"><g><path d="M 35.25 0.875 C 28.863281 0.875 23.394531 -0.414062 18.84375 -3 C 14.289062 -5.582031 10.796875 -9.238281 8.359375 -13.96875 C 5.921875 -18.695312 4.703125 -24.28125 4.703125 -30.71875 C 4.703125 -35.539062 5.394531 -39.878906 6.78125 -43.734375 C 8.175781 -47.585938 10.175781 -50.890625 12.78125 -53.640625 C 15.394531 -56.398438 18.601562 -58.519531 22.40625 -60 C 26.207031 -61.488281 30.488281 -62.234375 35.25 -62.234375 C 38.4375 -62.234375 41.566406 -61.828125 44.640625 -61.015625 C 47.722656 -60.203125 50.421875 -59.039062 52.734375 -57.53125 C 53.953125 -56.769531 54.765625 -55.851562 55.171875 -54.78125 C 55.578125 -53.707031 55.664062 -52.660156 55.4375 -51.640625 C 55.207031 -50.628906 54.726562 -49.773438 54 -49.078125 C 53.28125 -48.390625 52.378906 -48 51.296875 -47.90625 C 50.222656 -47.820312 49.050781 -48.1875 47.78125 -49 C 45.976562 -50.15625 44.03125 -50.992188 41.9375 -51.515625 C 39.851562 -52.046875 37.738281 -52.3125 35.59375 -52.3125 C 31.476562 -52.3125 28 -51.46875 25.15625 -49.78125 C 22.3125 -48.101562 20.160156 -45.664062 18.703125 -42.46875 C 17.253906 -39.28125 16.53125 -35.363281 16.53125 -30.71875 C 16.53125 -26.132812 17.253906 -22.21875 18.703125 -18.96875 C 20.160156 -15.71875 22.3125 -13.25 25.15625 -11.5625 C 28 -9.882812 31.476562 -9.046875 35.59375 -9.046875 C 37.800781 -9.046875 39.976562 -9.320312 42.125 -9.875 C 44.269531 -10.425781 46.300781 -11.285156 48.21875 -12.453125 C 49.488281 -13.203125 50.628906 -13.53125 51.640625 -13.4375 C 52.660156 -13.351562 53.519531 -12.992188 54.21875 -12.359375 C 54.914062 -11.722656 55.378906 -10.925781 55.609375 -9.96875 C 55.847656 -9.007812 55.789062 -8.019531 55.4375 -7 C 55.09375 -5.988281 54.394531 -5.109375 53.34375 -4.359375 C 51.03125 -2.671875 48.257812 -1.375 45.03125 -0.46875 C 41.8125 0.425781 38.550781 0.875 35.25 0.875 Z M 35.25 0.875 "/></g></g></g><g fill="#000000" fill-opacity="1"><g transform="translate(401.728962, 74.784082)"><g><path d="M 25.0625 0.875 C 20.65625 0.875 16.828125 -0.0234375 13.578125 -1.828125 C 10.328125 -3.628906 7.800781 -6.195312 6 -9.53125 C 4.207031 -12.863281 3.3125 -16.796875 3.3125 -21.328125 C 3.3125 -24.742188 3.816406 -27.800781 4.828125 -30.5 C 5.847656 -33.195312 7.3125 -35.515625 9.21875 -37.453125 C 11.132812 -39.398438 13.425781 -40.878906 16.09375 -41.890625 C 18.769531 -42.910156 21.757812 -43.421875 25.0625 -43.421875 C 29.46875 -43.421875 33.296875 -42.519531 36.546875 -40.71875 C 39.796875 -38.925781 42.320312 -36.375 44.125 -33.0625 C 45.925781 -29.757812 46.828125 -25.847656 46.828125 -21.328125 C 46.828125 -17.898438 46.316406 -14.820312 45.296875 -12.09375 C 44.285156 -9.363281 42.820312 -7.023438 40.90625 -5.078125 C 38.988281 -3.140625 36.695312 -1.660156 34.03125 -0.640625 C 31.363281 0.367188 28.375 0.875 25.0625 0.875 Z M 25.0625 -7.390625 C 27.207031 -7.390625 29.09375 -7.910156 30.71875 -8.953125 C 32.34375 -10.003906 33.601562 -11.554688 34.5 -13.609375 C 35.40625 -15.671875 35.859375 -18.242188 35.859375 -21.328125 C 35.859375 -25.960938 34.867188 -29.425781 32.890625 -31.71875 C 30.921875 -34.007812 28.3125 -35.15625 25.0625 -35.15625 C 22.914062 -35.15625 21.03125 -34.644531 19.40625 -33.625 C 17.78125 -32.613281 16.515625 -31.078125 15.609375 -29.015625 C 14.710938 -26.960938 14.265625 -24.398438 14.265625 -21.328125 C 14.265625 -16.742188 15.25 -13.273438 17.21875 -10.921875 C 19.195312 -8.566406 21.8125 -7.390625 25.0625 -7.390625 Z M 25.0625 -7.390625 "/></g></g></g><g fill="#000000" fill-opacity="1"><g transform="translate(452.117529, 74.784082)"><g><path d="M 11.234375 0.703125 C 9.429688 0.703125 8.050781 0.222656 7.09375 -0.734375 C 6.132812 -1.691406 5.65625 -3.070312 5.65625 -4.875 L 5.65625 -37.765625 C 5.65625 -39.566406 6.117188 -40.929688 7.046875 -41.859375 C 7.972656 -42.785156 9.28125 -43.25 10.96875 -43.25 C 12.644531 -43.25 13.945312 -42.785156 14.875 -41.859375 C 15.8125 -40.929688 16.28125 -39.566406 16.28125 -37.765625 L 16.28125 -32.28125 L 15.40625 -32.28125 C 16.21875 -35.769531 17.8125 -38.410156 20.1875 -40.203125 C 22.570312 -42.003906 25.734375 -43.078125 29.671875 -43.421875 C 30.890625 -43.546875 31.863281 -43.242188 32.59375 -42.515625 C 33.320312 -41.785156 33.742188 -40.671875 33.859375 -39.171875 C 33.972656 -37.710938 33.632812 -36.535156 32.84375 -35.640625 C 32.0625 -34.742188 30.890625 -34.207031 29.328125 -34.03125 L 27.421875 -33.859375 C 23.878906 -33.503906 21.207031 -32.410156 19.40625 -30.578125 C 17.601562 -28.753906 16.703125 -26.191406 16.703125 -22.890625 L 16.703125 -4.875 C 16.703125 -3.070312 16.238281 -1.691406 15.3125 -0.734375 C 14.382812 0.222656 13.023438 0.703125 11.234375 0.703125 Z M 11.234375 0.703125 "/></g></g></g><g fill="#000000" fill-opacity="1"><g transform="translate(486.493145, 74.784082)"><g><path d="M 22.015625 0.875 C 18.304688 0.875 15.039062 -0.0234375 12.21875 -1.828125 C 9.40625 -3.628906 7.21875 -6.195312 5.65625 -9.53125 C 4.09375 -12.863281 3.3125 -16.796875 3.3125 -21.328125 C 3.3125 -25.910156 4.09375 -29.835938 5.65625 -33.109375 C 7.21875 -36.390625 9.40625 -38.925781 12.21875 -40.71875 C 15.039062 -42.519531 18.304688 -43.421875 22.015625 -43.421875 C 25.554688 -43.421875 28.644531 -42.550781 31.28125 -40.8125 C 33.925781 -39.070312 35.710938 -36.78125 36.640625 -33.9375 L 35.6875 -33.9375 L 35.6875 -56.578125 C 35.6875 -58.367188 36.148438 -59.726562 37.078125 -60.65625 C 38.003906 -61.582031 39.335938 -62.046875 41.078125 -62.046875 C 42.816406 -62.046875 44.164062 -61.582031 45.125 -60.65625 C 46.082031 -59.726562 46.5625 -58.367188 46.5625 -56.578125 L 46.5625 -4.875 C 46.5625 -3.070312 46.097656 -1.691406 45.171875 -0.734375 C 44.242188 0.222656 42.910156 0.703125 41.171875 0.703125 C 39.429688 0.703125 38.09375 0.222656 37.15625 -0.734375 C 36.226562 -1.691406 35.765625 -3.070312 35.765625 -4.875 L 35.765625 -11.65625 L 36.734375 -9.046875 C 35.859375 -6.035156 34.085938 -3.628906 31.421875 -1.828125 C 28.753906 -0.0234375 25.617188 0.875 22.015625 0.875 Z M 25.0625 -7.390625 C 27.207031 -7.390625 29.09375 -7.910156 30.71875 -8.953125 C 32.34375 -10.003906 33.601562 -11.554688 34.5 -13.609375 C 35.40625 -15.671875 35.859375 -18.242188 35.859375 -21.328125 C 35.859375 -25.960938 34.867188 -29.425781 32.890625 -31.71875 C 30.921875 -34.007812 28.3125 -35.15625 25.0625 -35.15625 C 22.914062 -35.15625 21.03125 -34.644531 19.40625 -33.625 C 17.78125 -32.613281 16.515625 -31.078125 15.609375 -29.015625 C 14.710938 -26.960938 14.265625 -24.398438 14.265625 -21.328125 C 14.265625 -16.742188 15.25 -13.273438 17.21875 -10.921875 C 19.195312 -8.566406 21.8125 -7.390625 25.0625 -7.390625 Z M 25.0625 -7.390625 "/></g></g></g><g fill="#000000" fill-opacity="1"><g transform="translate(538.970337, 74.784082)"><g><path d="M 26.625 0.875 C 21.8125 0.875 17.664062 -0.0234375 14.1875 -1.828125 C 10.707031 -3.628906 8.023438 -6.179688 6.140625 -9.484375 C 4.253906 -12.796875 3.3125 -16.710938 3.3125 -21.234375 C 3.3125 -25.640625 4.222656 -29.492188 6.046875 -32.796875 C 7.878906 -36.109375 10.40625 -38.707031 13.625 -40.59375 C 16.84375 -42.476562 20.507812 -43.421875 24.625 -43.421875 C 27.644531 -43.421875 30.359375 -42.925781 32.765625 -41.9375 C 35.171875 -40.957031 37.226562 -39.539062 38.9375 -37.6875 C 40.65625 -35.832031 41.960938 -33.582031 42.859375 -30.9375 C 43.765625 -28.300781 44.21875 -25.328125 44.21875 -22.015625 C 44.21875 -20.972656 43.851562 -20.175781 43.125 -19.625 C 42.394531 -19.070312 41.363281 -18.796875 40.03125 -18.796875 L 12.09375 -18.796875 L 12.09375 -25.0625 L 36.546875 -25.0625 L 35.15625 -23.765625 C 35.15625 -26.429688 34.765625 -28.660156 33.984375 -30.453125 C 33.203125 -32.253906 32.070312 -33.632812 30.59375 -34.59375 C 29.113281 -35.550781 27.269531 -36.03125 25.0625 -36.03125 C 22.625 -36.03125 20.550781 -35.460938 18.84375 -34.328125 C 17.132812 -33.203125 15.828125 -31.609375 14.921875 -29.546875 C 14.023438 -27.484375 13.578125 -25.03125 13.578125 -22.1875 L 13.578125 -21.578125 C 13.578125 -16.828125 14.691406 -13.273438 16.921875 -10.921875 C 19.160156 -8.566406 22.457031 -7.390625 26.8125 -7.390625 C 28.3125 -7.390625 30.003906 -7.578125 31.890625 -7.953125 C 33.773438 -8.335938 35.5625 -8.992188 37.25 -9.921875 C 38.46875 -10.617188 39.539062 -10.921875 40.46875 -10.828125 C 41.394531 -10.742188 42.132812 -10.410156 42.6875 -9.828125 C 43.238281 -9.253906 43.570312 -8.546875 43.6875 -7.703125 C 43.800781 -6.859375 43.640625 -6 43.203125 -5.125 C 42.773438 -4.257812 42.035156 -3.507812 40.984375 -2.875 C 38.960938 -1.59375 36.628906 -0.644531 33.984375 -0.03125 C 31.347656 0.570312 28.894531 0.875 26.625 0.875 Z M 26.625 0.875 "/></g></g></g><g fill="#000000" fill-opacity="1"><g transform="translate(586.399969, 74.784082)"><g><path d="M 11.046875 0.609375 C 9.304688 0.609375 7.972656 0.0859375 7.046875 -0.953125 C 6.117188 -2.003906 5.65625 -3.457031 5.65625 -5.3125 L 5.65625 -37.25 C 5.65625 -39.164062 6.117188 -40.628906 7.046875 -41.640625 C 7.972656 -42.660156 9.304688 -43.171875 11.046875 -43.171875 C 12.785156 -43.171875 14.132812 -42.660156 15.09375 -41.640625 C 16.050781 -40.628906 16.53125 -39.164062 16.53125 -37.25 L 16.53125 -5.3125 C 16.53125 -3.457031 16.066406 -2.003906 15.140625 -0.953125 C 14.210938 0.0859375 12.847656 0.609375 11.046875 0.609375 Z M 11.046875 -51.265625 C 9.015625 -51.265625 7.429688 -51.769531 6.296875 -52.78125 C 5.171875 -53.800781 4.609375 -55.207031 4.609375 -57 C 4.609375 -58.863281 5.171875 -60.285156 6.296875 -61.265625 C 7.429688 -62.253906 9.015625 -62.75 11.046875 -62.75 C 13.140625 -62.75 14.738281 -62.253906 15.84375 -61.265625 C 16.945312 -60.285156 17.5 -58.863281 17.5 -57 C 17.5 -55.207031 16.945312 -53.800781 15.84375 -52.78125 C 14.738281 -51.769531 13.140625 -51.265625 11.046875 -51.265625 Z M 11.046875 -51.265625 "/></g></g></g><g fill="#000000" fill-opacity="1"><g transform="translate(608.852927, 74.784082)"><g><path d="M 11.234375 0.703125 C 9.429688 0.703125 8.050781 0.222656 7.09375 -0.734375 C 6.132812 -1.691406 5.65625 -3.070312 5.65625 -4.875 L 5.65625 -37.765625 C 5.65625 -39.566406 6.117188 -40.929688 7.046875 -41.859375 C 7.972656 -42.785156 9.28125 -43.25 10.96875 -43.25 C 12.644531 -43.25 13.945312 -42.785156 14.875 -41.859375 C 15.8125 -40.929688 16.28125 -39.566406 16.28125 -37.765625 L 16.28125 -32.28125 L 15.40625 -32.28125 C 16.21875 -35.769531 17.8125 -38.410156 20.1875 -40.203125 C 22.570312 -42.003906 25.734375 -43.078125 29.671875 -43.421875 C 30.890625 -43.546875 31.863281 -43.242188 32.59375 -42.515625 C 33.320312 -41.785156 33.742188 -40.671875 33.859375 -39.171875 C 33.972656 -37.710938 33.632812 -36.535156 32.84375 -35.640625 C 32.0625 -34.742188 30.890625 -34.207031 29.328125 -34.03125 L 27.421875 -33.859375 C 23.878906 -33.503906 21.207031 -32.410156 19.40625 -30.578125 C 17.601562 -28.753906 16.703125 -26.191406 16.703125 -22.890625 L 16.703125 -4.875 C 16.703125 -3.070312 16.238281 -1.691406 15.3125 -0.734375 C 14.382812 0.222656 13.023438 0.703125 11.234375 0.703125 Z M 11.234375 0.703125 "/></g></g></g><g fill="#000000" fill-opacity="1"><g transform="translate(643.228543, 74.784082)"><g><path d="M 25.0625 0.875 C 20.65625 0.875 16.828125 -0.0234375 13.578125 -1.828125 C 10.328125 -3.628906 7.800781 -6.195312 6 -9.53125 C 4.207031 -12.863281 3.3125 -16.796875 3.3125 -21.328125 C 3.3125 -24.742188 3.816406 -27.800781 4.828125 -30.5 C 5.847656 -33.195312 7.3125 -35.515625 9.21875 -37.453125 C 11.132812 -39.398438 13.425781 -40.878906 16.09375 -41.890625 C 18.769531 -42.910156 21.757812 -43.421875 25.0625 -43.421875 C 29.46875 -43.421875 33.296875 -42.519531 36.546875 -40.71875 C 39.796875 -38.925781 42.320312 -36.375 44.125 -33.0625 C 45.925781 -29.757812 46.828125 -25.847656 46.828125 -21.328125 C 46.828125 -17.898438 46.316406 -14.820312 45.296875 -12.09375 C 44.285156 -9.363281 42.820312 -7.023438 40.90625 -5.078125 C 38.988281 -3.140625 36.695312 -1.660156 34.03125 -0.640625 C 31.363281 0.367188 28.375 0.875 25.0625 0.875 Z M 25.0625 -7.390625 C 27.207031 -7.390625 29.09375 -7.910156 30.71875 -8.953125 C 32.34375 -10.003906 33.601562 -11.554688 34.5 -13.609375 C 35.40625 -15.671875 35.859375 -18.242188 35.859375 -21.328125 C 35.859375 -25.960938 34.867188 -29.425781 32.890625 -31.71875 C 30.921875 -34.007812 28.3125 -35.15625 25.0625 -35.15625 C 22.914062 -35.15625 21.03125 -34.644531 19.40625 -33.625 C 17.78125 -32.613281 16.515625 -31.078125 15.609375 -29.015625 C 14.710938 -26.960938 14.265625 -24.398438 14.265625 -21.328125 C 14.265625 -16.742188 15.25 -13.273438 17.21875 -10.921875 C 19.195312 -8.566406 21.8125 -7.390625 25.0625 -7.390625 Z M 25.0625 -7.390625 "/></g></g></g><g fill="#000000" fill-opacity="1"><g transform="translate(3.443351, 143.368403)"><g><path d="M 5.25 0 C 4.664062 0 4.222656 -0.148438 3.921875 -0.453125 C 3.617188 -0.765625 3.46875 -1.210938 3.46875 -1.796875 L 3.46875 -26.265625 C 3.46875 -26.847656 3.617188 -27.289062 3.921875 -27.59375 C 4.222656 -27.90625 4.664062 -28.0625 5.25 -28.0625 L 12.9375 -28.0625 C 17.46875 -28.0625 20.96875 -26.863281 23.4375 -24.46875 C 25.90625 -22.082031 27.140625 -18.609375 27.140625 -14.046875 C 27.140625 -11.765625 26.828125 -9.753906 26.203125 -8.015625 C 25.578125 -6.273438 24.65625 -4.804688 23.4375 -3.609375 C 22.21875 -2.421875 20.734375 -1.519531 18.984375 -0.90625 C 17.234375 -0.300781 15.21875 0 12.9375 0 Z M 6.71875 -2.78125 L 12.6875 -2.78125 C 14.550781 -2.78125 16.164062 -3.019531 17.53125 -3.5 C 18.894531 -3.976562 20.035156 -4.679688 20.953125 -5.609375 C 21.867188 -6.535156 22.550781 -7.707031 23 -9.125 C 23.445312 -10.550781 23.671875 -12.191406 23.671875 -14.046875 C 23.671875 -17.785156 22.753906 -20.585938 20.921875 -22.453125 C 19.097656 -24.328125 16.351562 -25.265625 12.6875 -25.265625 L 6.71875 -25.265625 Z M 6.71875 -2.78125 "/></g></g></g><g fill="#000000" fill-opacity="1"><g transform="translate(37.176827, 143.368403)"><g><path d="M 5.25 0 C 4.664062 0 4.222656 -0.148438 3.921875 -0.453125 C 3.617188 -0.765625 3.46875 -1.210938 3.46875 -1.796875 L 3.46875 -26.265625 C 3.46875 -26.847656 3.617188 -27.289062 3.921875 -27.59375 C 4.222656 -27.90625 4.664062 -28.0625 5.25 -28.0625 L 20.0625 -28.0625 C 20.507812 -28.0625 20.851562 -27.941406 21.09375 -27.703125 C 21.332031 -27.460938 21.453125 -27.128906 21.453125 -26.703125 C 21.453125 -26.253906 21.332031 -25.910156 21.09375 -25.671875 C 20.851562 -25.429688 20.507812 -25.3125 20.0625 -25.3125 L 6.640625 -25.3125 L 6.640625 -15.59375 L 19.21875 -15.59375 C 19.664062 -15.59375 20.007812 -15.476562 20.25 -15.25 C 20.488281 -15.03125 20.609375 -14.695312 20.609375 -14.25 C 20.609375 -13.800781 20.488281 -13.457031 20.25 -13.21875 C 20.007812 -12.976562 19.664062 -12.859375 19.21875 -12.859375 L 6.640625 -12.859375 L 6.640625 -2.75 L 20.0625 -2.75 C 20.507812 -2.75 20.851562 -2.628906 21.09375 -2.390625 C 21.332031 -2.148438 21.453125 -1.816406 21.453125 -1.390625 C 21.453125 -0.941406 21.332031 -0.597656 21.09375 -0.359375 C 20.851562 -0.117188 20.507812 0 20.0625 0 Z M 5.25 0 "/></g></g></g><g fill="#000000" fill-opacity="1"><g transform="translate(64.585684, 143.368403)"><g><path d="M 12.53125 0.359375 C 11.289062 0.359375 10.070312 0.25 8.875 0.03125 C 7.675781 -0.175781 6.566406 -0.476562 5.546875 -0.875 C 4.523438 -1.269531 3.601562 -1.773438 2.78125 -2.390625 C 2.46875 -2.628906 2.25 -2.898438 2.125 -3.203125 C 2.007812 -3.503906 1.984375 -3.804688 2.046875 -4.109375 C 2.117188 -4.421875 2.253906 -4.679688 2.453125 -4.890625 C 2.648438 -5.109375 2.894531 -5.226562 3.1875 -5.25 C 3.476562 -5.28125 3.796875 -5.1875 4.140625 -4.96875 C 5.335938 -4.125 6.609375 -3.507812 7.953125 -3.125 C 9.304688 -2.738281 10.832031 -2.546875 12.53125 -2.546875 C 14.925781 -2.546875 16.695312 -2.988281 17.84375 -3.875 C 19 -4.769531 19.578125 -5.945312 19.578125 -7.40625 C 19.578125 -8.59375 19.160156 -9.523438 18.328125 -10.203125 C 17.492188 -10.878906 16.09375 -11.414062 14.125 -11.8125 L 9.984375 -12.65625 C 7.492188 -13.1875 5.628906 -14.054688 4.390625 -15.265625 C 3.160156 -16.472656 2.546875 -18.082031 2.546875 -20.09375 C 2.546875 -21.34375 2.796875 -22.476562 3.296875 -23.5 C 3.804688 -24.519531 4.507812 -25.394531 5.40625 -26.125 C 6.3125 -26.851562 7.382812 -27.414062 8.625 -27.8125 C 9.875 -28.21875 11.257812 -28.421875 12.78125 -28.421875 C 14.445312 -28.421875 16.003906 -28.1875 17.453125 -27.71875 C 18.898438 -27.25 20.207031 -26.550781 21.375 -25.625 C 21.664062 -25.382812 21.863281 -25.113281 21.96875 -24.8125 C 22.070312 -24.507812 22.082031 -24.21875 22 -23.9375 C 21.925781 -23.65625 21.789062 -23.421875 21.59375 -23.234375 C 21.394531 -23.054688 21.140625 -22.953125 20.828125 -22.921875 C 20.523438 -22.898438 20.1875 -23.003906 19.8125 -23.234375 C 18.757812 -24.035156 17.660156 -24.613281 16.515625 -24.96875 C 15.367188 -25.332031 14.109375 -25.515625 12.734375 -25.515625 C 11.328125 -25.515625 10.113281 -25.300781 9.09375 -24.875 C 8.070312 -24.445312 7.273438 -23.828125 6.703125 -23.015625 C 6.128906 -22.210938 5.84375 -21.28125 5.84375 -20.21875 C 5.84375 -18.945312 6.234375 -17.9375 7.015625 -17.1875 C 7.804688 -16.445312 9.085938 -15.90625 10.859375 -15.5625 L 15 -14.6875 C 17.675781 -14.125 19.660156 -13.28125 20.953125 -12.15625 C 22.242188 -11.03125 22.890625 -9.5 22.890625 -7.5625 C 22.890625 -6.394531 22.648438 -5.316406 22.171875 -4.328125 C 21.691406 -3.347656 21 -2.503906 20.09375 -1.796875 C 19.195312 -1.097656 18.109375 -0.5625 16.828125 -0.1875 C 15.554688 0.175781 14.125 0.359375 12.53125 0.359375 Z M 12.53125 0.359375 "/></g></g></g><g fill="#000000" fill-opacity="1"><g transform="translate(93.26742, 143.368403)"><g><path d="M 5.25 0 C 4.664062 0 4.222656 -0.148438 3.921875 -0.453125 C 3.617188 -0.765625 3.46875 -1.210938 3.46875 -1.796875 L 3.46875 -26.265625 C 3.46875 -26.847656 3.617188 -27.289062 3.921875 -27.59375 C 4.222656 -27.90625 4.664062 -28.0625 5.25 -28.0625 L 20.0625 -28.0625 C 20.507812 -28.0625 20.851562 -27.941406 21.09375 -27.703125 C 21.332031 -27.460938 21.453125 -27.128906 21.453125 -26.703125 C 21.453125 -26.253906 21.332031 -25.910156 21.09375 -25.671875 C 20.851562 -25.429688 20.507812 -25.3125 20.0625 -25.3125 L 6.640625 -25.3125 L 6.640625 -15.59375 L 19.21875 -15.59375 C 19.664062 -15.59375 20.007812 -15.476562 20.25 -15.25 C 20.488281 -15.03125 20.609375 -14.695312 20.609375 -14.25 C 20.609375 -13.800781 20.488281 -13.457031 20.25 -13.21875 C 20.007812 -12.976562 19.664062 -12.859375 19.21875 -12.859375 L 6.640625 -12.859375 L 6.640625 -2.75 L 20.0625 -2.75 C 20.507812 -2.75 20.851562 -2.628906 21.09375 -2.390625 C 21.332031 -2.148438 21.453125 -1.816406 21.453125 -1.390625 C 21.453125 -0.941406 21.332031 -0.597656 21.09375 -0.359375 C 20.851562 -0.117188 20.507812 0 20.0625 0 Z M 5.25 0 "/></g></g></g><g fill="#000000" fill-opacity="1"><g transform="translate(120.676278, 143.368403)"><g><path d="M 5.015625 0.28125 C 4.515625 0.28125 4.128906 0.140625 3.859375 -0.140625 C 3.597656 -0.421875 3.46875 -0.828125 3.46875 -1.359375 L 3.46875 -26.65625 C 3.46875 -27.1875 3.597656 -27.597656 3.859375 -27.890625 C 4.128906 -28.179688 4.472656 -28.328125 4.890625 -28.328125 C 5.316406 -28.328125 5.628906 -28.253906 5.828125 -28.109375 C 6.023438 -27.960938 6.257812 -27.707031 6.53125 -27.34375 L 23.875 -4.21875 L 22.921875 -4.21875 L 22.921875 -26.75 C 22.921875 -27.25 23.050781 -27.632812 23.3125 -27.90625 C 23.582031 -28.1875 23.96875 -28.328125 24.46875 -28.328125 C 24.945312 -28.328125 25.3125 -28.1875 25.5625 -27.90625 C 25.820312 -27.632812 25.953125 -27.25 25.953125 -26.75 L 25.953125 -1.3125 C 25.953125 -0.8125 25.835938 -0.421875 25.609375 -0.140625 C 25.378906 0.140625 25.054688 0.28125 24.640625 0.28125 C 24.234375 0.28125 23.910156 0.195312 23.671875 0.03125 C 23.441406 -0.125 23.191406 -0.375 22.921875 -0.71875 L 5.609375 -23.84375 L 6.53125 -23.84375 L 6.53125 -1.359375 C 6.53125 -0.828125 6.394531 -0.421875 6.125 -0.140625 C 5.863281 0.140625 5.492188 0.28125 5.015625 0.28125 Z M 5.015625 0.28125 "/></g></g></g><g fill="#000000" fill-opacity="1"><g transform="translate(154.330207, 143.368403)"><g><path d="M 13.734375 0.28125 C 13.222656 0.28125 12.804688 0.160156 12.484375 -0.078125 C 12.171875 -0.316406 11.921875 -0.675781 11.734375 -1.15625 L 0.796875 -26.1875 C 0.609375 -26.632812 0.550781 -27.007812 0.625 -27.3125 C 0.707031 -27.625 0.890625 -27.867188 1.171875 -28.046875 C 1.453125 -28.234375 1.78125 -28.328125 2.15625 -28.328125 C 2.65625 -28.328125 3.03125 -28.210938 3.28125 -27.984375 C 3.53125 -27.765625 3.738281 -27.441406 3.90625 -27.015625 L 14.40625 -2.625 L 13.140625 -2.625 L 23.59375 -27.0625 C 23.78125 -27.457031 24.003906 -27.765625 24.265625 -27.984375 C 24.535156 -28.210938 24.910156 -28.328125 25.390625 -28.328125 C 25.765625 -28.328125 26.078125 -28.234375 26.328125 -28.046875 C 26.578125 -27.867188 26.734375 -27.617188 26.796875 -27.296875 C 26.867188 -26.984375 26.8125 -26.613281 26.625 -26.1875 L 15.6875 -1.15625 C 15.5 -0.675781 15.25 -0.316406 14.9375 -0.078125 C 14.632812 0.160156 14.234375 0.28125 13.734375 0.28125 Z M 13.734375 0.28125 "/></g></g></g><g fill="#000000" fill-opacity="1"><g transform="translate(185.95549, 143.368403)"><g><path d="M 15.234375 0.359375 C 12.640625 0.359375 10.378906 -0.226562 8.453125 -1.40625 C 6.535156 -2.59375 5.050781 -4.257812 4 -6.40625 C 2.945312 -8.550781 2.421875 -11.097656 2.421875 -14.046875 C 2.421875 -16.273438 2.71875 -18.269531 3.3125 -20.03125 C 3.914062 -21.800781 4.773438 -23.300781 5.890625 -24.53125 C 7.003906 -25.769531 8.347656 -26.726562 9.921875 -27.40625 C 11.503906 -28.082031 13.273438 -28.421875 15.234375 -28.421875 C 17.890625 -28.421875 20.179688 -27.832031 22.109375 -26.65625 C 24.035156 -25.488281 25.519531 -23.835938 26.5625 -21.703125 C 27.613281 -19.566406 28.140625 -17.03125 28.140625 -14.09375 C 28.140625 -11.863281 27.832031 -9.859375 27.21875 -8.078125 C 26.613281 -6.296875 25.753906 -4.78125 24.640625 -3.53125 C 23.523438 -2.289062 22.175781 -1.332031 20.59375 -0.65625 C 19.019531 0.0195312 17.234375 0.359375 15.234375 0.359375 Z M 15.234375 -2.546875 C 17.253906 -2.546875 18.960938 -2.992188 20.359375 -3.890625 C 21.753906 -4.796875 22.820312 -6.109375 23.5625 -7.828125 C 24.300781 -9.554688 24.671875 -11.628906 24.671875 -14.046875 C 24.671875 -17.679688 23.851562 -20.5 22.21875 -22.5 C 20.59375 -24.507812 18.265625 -25.515625 15.234375 -25.515625 C 13.273438 -25.515625 11.597656 -25.0625 10.203125 -24.15625 C 8.816406 -23.25 7.75 -21.941406 7 -20.234375 C 6.257812 -18.523438 5.890625 -16.460938 5.890625 -14.046875 C 5.890625 -10.441406 6.710938 -7.625 8.359375 -5.59375 C 10.003906 -3.5625 12.296875 -2.546875 15.234375 -2.546875 Z M 15.234375 -2.546875 "/></g></g></g><g fill="#000000" fill-opacity="1"><g transform="translate(220.683419, 143.368403)"><g><path d="M 5.140625 0 C 4.609375 0 4.195312 -0.148438 3.90625 -0.453125 C 3.613281 -0.765625 3.46875 -1.1875 3.46875 -1.71875 L 3.46875 -26.546875 C 3.46875 -27.097656 3.601562 -27.519531 3.875 -27.8125 C 4.15625 -28.101562 4.5625 -28.25 5.09375 -28.25 C 5.625 -28.25 6.023438 -28.101562 6.296875 -27.8125 C 6.578125 -27.519531 6.71875 -27.097656 6.71875 -26.546875 L 6.71875 -2.859375 L 19.78125 -2.859375 C 20.257812 -2.859375 20.628906 -2.734375 20.890625 -2.484375 C 21.160156 -2.234375 21.296875 -1.882812 21.296875 -1.4375 C 21.296875 -0.976562 21.160156 -0.625 20.890625 -0.375 C 20.628906 -0.125 20.257812 0 19.78125 0 Z M 5.140625 0 "/></g></g></g><g fill="#000000" fill-opacity="1"><g transform="translate(246.501193, 143.368403)"><g><path d="M 13.734375 0.28125 C 13.222656 0.28125 12.804688 0.160156 12.484375 -0.078125 C 12.171875 -0.316406 11.921875 -0.675781 11.734375 -1.15625 L 0.796875 -26.1875 C 0.609375 -26.632812 0.550781 -27.007812 0.625 -27.3125 C 0.707031 -27.625 0.890625 -27.867188 1.171875 -28.046875 C 1.453125 -28.234375 1.78125 -28.328125 2.15625 -28.328125 C 2.65625 -28.328125 3.03125 -28.210938 3.28125 -27.984375 C 3.53125 -27.765625 3.738281 -27.441406 3.90625 -27.015625 L 14.40625 -2.625 L 13.140625 -2.625 L 23.59375 -27.0625 C 23.78125 -27.457031 24.003906 -27.765625 24.265625 -27.984375 C 24.535156 -28.210938 24.910156 -28.328125 25.390625 -28.328125 C 25.765625 -28.328125 26.078125 -28.234375 26.328125 -28.046875 C 26.578125 -27.867188 26.734375 -27.617188 26.796875 -27.296875 C 26.867188 -26.984375 26.8125 -26.613281 26.625 -26.1875 L 15.6875 -1.15625 C 15.5 -0.675781 15.25 -0.316406 14.9375 -0.078125 C 14.632812 0.160156 14.234375 0.28125 13.734375 0.28125 Z M 13.734375 0.28125 "/></g></g></g><g fill="#000000" fill-opacity="1"><g transform="translate(278.126477, 143.368403)"><g><path d="M 5.25 0 C 4.664062 0 4.222656 -0.148438 3.921875 -0.453125 C 3.617188 -0.765625 3.46875 -1.210938 3.46875 -1.796875 L 3.46875 -26.265625 C 3.46875 -26.847656 3.617188 -27.289062 3.921875 -27.59375 C 4.222656 -27.90625 4.664062 -28.0625 5.25 -28.0625 L 20.0625 -28.0625 C 20.507812 -28.0625 20.851562 -27.941406 21.09375 -27.703125 C 21.332031 -27.460938 21.453125 -27.128906 21.453125 -26.703125 C 21.453125 -26.253906 21.332031 -25.910156 21.09375 -25.671875 C 20.851562 -25.429688 20.507812 -25.3125 20.0625 -25.3125 L 6.640625 -25.3125 L 6.640625 -15.59375 L 19.21875 -15.59375 C 19.664062 -15.59375 20.007812 -15.476562 20.25 -15.25 C 20.488281 -15.03125 20.609375 -14.695312 20.609375 -14.25 C 20.609375 -13.800781 20.488281 -13.457031 20.25 -13.21875 C 20.007812 -12.976562 19.664062 -12.859375 19.21875 -12.859375 L 6.640625 -12.859375 L 6.640625 -2.75 L 20.0625 -2.75 C 20.507812 -2.75 20.851562 -2.628906 21.09375 -2.390625 C 21.332031 -2.148438 21.453125 -1.816406 21.453125 -1.390625 C 21.453125 -0.941406 21.332031 -0.597656 21.09375 -0.359375 C 20.851562 -0.117188 20.507812 0 20.0625 0 Z M 5.25 0 "/></g></g></g><g fill="#000000" fill-opacity="1"><g transform="translate(305.53534, 143.368403)"><g><path d="M 5.25 0 C 4.664062 0 4.222656 -0.148438 3.921875 -0.453125 C 3.617188 -0.765625 3.46875 -1.210938 3.46875 -1.796875 L 3.46875 -26.265625 C 3.46875 -26.847656 3.617188 -27.289062 3.921875 -27.59375 C 4.222656 -27.90625 4.664062 -28.0625 5.25 -28.0625 L 12.9375 -28.0625 C 17.46875 -28.0625 20.96875 -26.863281 23.4375 -24.46875 C 25.90625 -22.082031 27.140625 -18.609375 27.140625 -14.046875 C 27.140625 -11.765625 26.828125 -9.753906 26.203125 -8.015625 C 25.578125 -6.273438 24.65625 -4.804688 23.4375 -3.609375 C 22.21875 -2.421875 20.734375 -1.519531 18.984375 -0.90625 C 17.234375 -0.300781 15.21875 0 12.9375 0 Z M 6.71875 -2.78125 L 12.6875 -2.78125 C 14.550781 -2.78125 16.164062 -3.019531 17.53125 -3.5 C 18.894531 -3.976562 20.035156 -4.679688 20.953125 -5.609375 C 21.867188 -6.535156 22.550781 -7.707031 23 -9.125 C 23.445312 -10.550781 23.671875 -12.191406 23.671875 -14.046875 C 23.671875 -17.785156 22.753906 -20.585938 20.921875 -22.453125 C 19.097656 -24.328125 16.351562 -25.265625 12.6875 -25.265625 L 6.71875 -25.265625 Z M 6.71875 -2.78125 "/></g></g></g><g fill="#000000" fill-opacity="1"><g transform="translate(339.268821, 143.368403)"><g><path d="M 15.234375 0.359375 C 12.640625 0.359375 10.378906 -0.226562 8.453125 -1.40625 C 6.535156 -2.59375 5.050781 -4.257812 4 -6.40625 C 2.945312 -8.550781 2.421875 -11.097656 2.421875 -14.046875 C 2.421875 -16.273438 2.71875 -18.269531 3.3125 -20.03125 C 3.914062 -21.800781 4.773438 -23.300781 5.890625 -24.53125 C 7.003906 -25.769531 8.347656 -26.726562 9.921875 -27.40625 C 11.503906 -28.082031 13.273438 -28.421875 15.234375 -28.421875 C 17.890625 -28.421875 20.179688 -27.832031 22.109375 -26.65625 C 24.035156 -25.488281 25.519531 -23.835938 26.5625 -21.703125 C 27.613281 -19.566406 28.140625 -17.03125 28.140625 -14.09375 C 28.140625 -11.863281 27.832031 -9.859375 27.21875 -8.078125 C 26.613281 -6.296875 25.753906 -4.78125 24.640625 -3.53125 C 23.523438 -2.289062 22.175781 -1.332031 20.59375 -0.65625 C 19.019531 0.0195312 17.234375 0.359375 15.234375 0.359375 Z M 15.234375 -2.546875 C 17.253906 -2.546875 18.960938 -2.992188 20.359375 -3.890625 C 21.753906 -4.796875 22.820312 -6.109375 23.5625 -7.828125 C 24.300781 -9.554688 24.671875 -11.628906 24.671875 -14.046875 C 24.671875 -17.679688 23.851562 -20.5 22.21875 -22.5 C 20.59375 -24.507812 18.265625 -25.515625 15.234375 -25.515625 C 13.273438 -25.515625 11.597656 -25.0625 10.203125 -24.15625 C 8.816406 -23.25 7.75 -21.941406 7 -20.234375 C 6.257812 -18.523438 5.890625 -16.460938 5.890625 -14.046875 C 5.890625 -10.441406 6.710938 -7.625 8.359375 -5.59375 C 10.003906 -3.5625 12.296875 -2.546875 15.234375 -2.546875 Z M 15.234375 -2.546875 "/></g></g></g><g fill="#000000" fill-opacity="1"><g transform="translate(373.99675, 143.368403)"><g><path d="M 5.09375 0.28125 C 4.5625 0.28125 4.15625 0.128906 3.875 -0.171875 C 3.601562 -0.484375 3.46875 -0.90625 3.46875 -1.4375 L 3.46875 -26.390625 C 3.46875 -26.941406 3.613281 -27.359375 3.90625 -27.640625 C 4.195312 -27.921875 4.609375 -28.0625 5.140625 -28.0625 L 14.5625 -28.0625 C 17.5625 -28.0625 19.867188 -27.359375 21.484375 -25.953125 C 23.109375 -24.546875 23.921875 -22.539062 23.921875 -19.9375 C 23.921875 -18.289062 23.554688 -16.863281 22.828125 -15.65625 C 22.097656 -14.445312 21.03125 -13.53125 19.625 -12.90625 C 18.21875 -12.289062 16.53125 -11.984375 14.5625 -11.984375 L 14.96875 -12.5 L 15.765625 -12.5 C 16.796875 -12.5 17.695312 -12.234375 18.46875 -11.703125 C 19.238281 -11.171875 19.941406 -10.320312 20.578125 -9.15625 L 24.390625 -2.03125 C 24.609375 -1.65625 24.707031 -1.285156 24.6875 -0.921875 C 24.675781 -0.566406 24.550781 -0.273438 24.3125 -0.046875 C 24.070312 0.171875 23.726562 0.28125 23.28125 0.28125 C 22.832031 0.28125 22.460938 0.175781 22.171875 -0.03125 C 21.878906 -0.25 21.625 -0.554688 21.40625 -0.953125 L 17.078125 -9 C 16.460938 -10.132812 15.753906 -10.894531 14.953125 -11.28125 C 14.160156 -11.664062 13.113281 -11.859375 11.8125 -11.859375 L 6.71875 -11.859375 L 6.71875 -1.4375 C 6.71875 -0.90625 6.585938 -0.484375 6.328125 -0.171875 C 6.066406 0.128906 5.65625 0.28125 5.09375 0.28125 Z M 6.71875 -14.453125 L 14.09375 -14.453125 C 16.257812 -14.453125 17.898438 -14.90625 19.015625 -15.8125 C 20.128906 -16.726562 20.6875 -18.101562 20.6875 -19.9375 C 20.6875 -21.71875 20.128906 -23.0625 19.015625 -23.96875 C 17.898438 -24.882812 16.257812 -25.34375 14.09375 -25.34375 L 6.71875 -25.34375 Z M 6.71875 -14.453125 "/></g></g></g><g fill="#000000" fill-opacity="1"><g transform="translate(404.826467, 143.368403)"><g/></g></g><g fill="#000000" fill-opacity="1"><g transform="translate(419.307659, 143.368403)"><g><path d="M 5.21875 0.28125 C 4.65625 0.28125 4.222656 0.128906 3.921875 -0.171875 C 3.617188 -0.484375 3.46875 -0.929688 3.46875 -1.515625 L 3.46875 -26.265625 C 3.46875 -26.847656 3.617188 -27.289062 3.921875 -27.59375 C 4.222656 -27.90625 4.664062 -28.0625 5.25 -28.0625 L 19.703125 -28.0625 C 20.148438 -28.0625 20.492188 -27.941406 20.734375 -27.703125 C 20.972656 -27.460938 21.09375 -27.128906 21.09375 -26.703125 C 21.09375 -26.253906 20.972656 -25.910156 20.734375 -25.671875 C 20.492188 -25.429688 20.148438 -25.3125 19.703125 -25.3125 L 6.71875 -25.3125 L 6.71875 -15.515625 L 18.859375 -15.515625 C 19.316406 -15.515625 19.671875 -15.394531 19.921875 -15.15625 C 20.171875 -14.914062 20.296875 -14.585938 20.296875 -14.171875 C 20.296875 -13.710938 20.171875 -13.363281 19.921875 -13.125 C 19.671875 -12.894531 19.316406 -12.78125 18.859375 -12.78125 L 6.71875 -12.78125 L 6.71875 -1.515625 C 6.71875 -0.316406 6.21875 0.28125 5.21875 0.28125 Z M 5.21875 0.28125 "/></g></g></g><g fill="#000000" fill-opacity="1"><g transform="translate(445.324314, 143.368403)"><g><path d="M 14.53125 0.359375 C 12.664062 0.359375 11.035156 0.113281 9.640625 -0.375 C 8.253906 -0.863281 7.082031 -1.59375 6.125 -2.5625 C 5.175781 -3.53125 4.460938 -4.726562 3.984375 -6.15625 C 3.503906 -7.59375 3.265625 -9.242188 3.265625 -11.109375 L 3.265625 -26.65625 C 3.265625 -27.21875 3.398438 -27.632812 3.671875 -27.90625 C 3.953125 -28.1875 4.359375 -28.328125 4.890625 -28.328125 C 5.421875 -28.328125 5.828125 -28.1875 6.109375 -27.90625 C 6.390625 -27.632812 6.53125 -27.21875 6.53125 -26.65625 L 6.53125 -11.265625 C 6.53125 -8.347656 7.207031 -6.164062 8.5625 -4.71875 C 9.914062 -3.269531 11.90625 -2.546875 14.53125 -2.546875 C 17.15625 -2.546875 19.128906 -3.269531 20.453125 -4.71875 C 21.785156 -6.164062 22.453125 -8.347656 22.453125 -11.265625 L 22.453125 -26.65625 C 22.453125 -27.21875 22.597656 -27.632812 22.890625 -27.90625 C 23.179688 -28.1875 23.585938 -28.328125 24.109375 -28.328125 C 24.617188 -28.328125 25.007812 -28.1875 25.28125 -27.90625 C 25.5625 -27.632812 25.703125 -27.21875 25.703125 -26.65625 L 25.703125 -11.109375 C 25.703125 -8.640625 25.285156 -6.539062 24.453125 -4.8125 C 23.617188 -3.09375 22.363281 -1.800781 20.6875 -0.9375 C 19.019531 -0.0703125 16.96875 0.359375 14.53125 0.359375 Z M 14.53125 0.359375 "/></g></g></g><g fill="#000000" fill-opacity="1"><g transform="translate(478.50093, 143.368403)"><g><path d="M 5.140625 0 C 4.609375 0 4.195312 -0.148438 3.90625 -0.453125 C 3.613281 -0.765625 3.46875 -1.1875 3.46875 -1.71875 L 3.46875 -26.546875 C 3.46875 -27.097656 3.601562 -27.519531 3.875 -27.8125 C 4.15625 -28.101562 4.5625 -28.25 5.09375 -28.25 C 5.625 -28.25 6.023438 -28.101562 6.296875 -27.8125 C 6.578125 -27.519531 6.71875 -27.097656 6.71875 -26.546875 L 6.71875 -2.859375 L 19.78125 -2.859375 C 20.257812 -2.859375 20.628906 -2.734375 20.890625 -2.484375 C 21.160156 -2.234375 21.296875 -1.882812 21.296875 -1.4375 C 21.296875 -0.976562 21.160156 -0.625 20.890625 -0.375 C 20.628906 -0.125 20.257812 0 19.78125 0 Z M 5.140625 0 "/></g></g></g><g fill="#000000" fill-opacity="1"><g transform="translate(504.318683, 143.368403)"><g><path d="M 5.140625 0 C 4.609375 0 4.195312 -0.148438 3.90625 -0.453125 C 3.613281 -0.765625 3.46875 -1.1875 3.46875 -1.71875 L 3.46875 -26.546875 C 3.46875 -27.097656 3.601562 -27.519531 3.875 -27.8125 C 4.15625 -28.101562 4.5625 -28.25 5.09375 -28.25 C 5.625 -28.25 6.023438 -28.101562 6.296875 -27.8125 C 6.578125 -27.519531 6.71875 -27.097656 6.71875 -26.546875 L 6.71875 -2.859375 L 19.78125 -2.859375 C 20.257812 -2.859375 20.628906 -2.734375 20.890625 -2.484375 C 21.160156 -2.234375 21.296875 -1.882812 21.296875 -1.4375 C 21.296875 -0.976562 21.160156 -0.625 20.890625 -0.375 C 20.628906 -0.125 20.257812 0 19.78125 0 Z M 5.140625 0 "/></g></g></g><g fill="#000000" fill-opacity="1"><g transform="translate(530.136436, 143.368403)"><g/></g></g><g fill="#000000" fill-opacity="1"><g transform="translate(544.617628, 143.368403)"><g><path d="M 12.53125 0.359375 C 11.289062 0.359375 10.070312 0.25 8.875 0.03125 C 7.675781 -0.175781 6.566406 -0.476562 5.546875 -0.875 C 4.523438 -1.269531 3.601562 -1.773438 2.78125 -2.390625 C 2.46875 -2.628906 2.25 -2.898438 2.125 -3.203125 C 2.007812 -3.503906 1.984375 -3.804688 2.046875 -4.109375 C 2.117188 -4.421875 2.253906 -4.679688 2.453125 -4.890625 C 2.648438 -5.109375 2.894531 -5.226562 3.1875 -5.25 C 3.476562 -5.28125 3.796875 -5.1875 4.140625 -4.96875 C 5.335938 -4.125 6.609375 -3.507812 7.953125 -3.125 C 9.304688 -2.738281 10.832031 -2.546875 12.53125 -2.546875 C 14.925781 -2.546875 16.695312 -2.988281 17.84375 -3.875 C 19 -4.769531 19.578125 -5.945312 19.578125 -7.40625 C 19.578125 -8.59375 19.160156 -9.523438 18.328125 -10.203125 C 17.492188 -10.878906 16.09375 -11.414062 14.125 -11.8125 L 9.984375 -12.65625 C 7.492188 -13.1875 5.628906 -14.054688 4.390625 -15.265625 C 3.160156 -16.472656 2.546875 -18.082031 2.546875 -20.09375 C 2.546875 -21.34375 2.796875 -22.476562 3.296875 -23.5 C 3.804688 -24.519531 4.507812 -25.394531 5.40625 -26.125 C 6.3125 -26.851562 7.382812 -27.414062 8.625 -27.8125 C 9.875 -28.21875 11.257812 -28.421875 12.78125 -28.421875 C 14.445312 -28.421875 16.003906 -28.1875 17.453125 -27.71875 C 18.898438 -27.25 20.207031 -26.550781 21.375 -25.625 C 21.664062 -25.382812 21.863281 -25.113281 21.96875 -24.8125 C 22.070312 -24.507812 22.082031 -24.21875 22 -23.9375 C 21.925781 -23.65625 21.789062 -23.421875 21.59375 -23.234375 C 21.394531 -23.054688 21.140625 -22.953125 20.828125 -22.921875 C 20.523438 -22.898438 20.1875 -23.003906 19.8125 -23.234375 C 18.757812 -24.035156 17.660156 -24.613281 16.515625 -24.96875 C 15.367188 -25.332031 14.109375 -25.515625 12.734375 -25.515625 C 11.328125 -25.515625 10.113281 -25.300781 9.09375 -24.875 C 8.070312 -24.445312 7.273438 -23.828125 6.703125 -23.015625 C 6.128906 -22.210938 5.84375 -21.28125 5.84375 -20.21875 C 5.84375 -18.945312 6.234375 -17.9375 7.015625 -17.1875 C 7.804688 -16.445312 9.085938 -15.90625 10.859375 -15.5625 L 15 -14.6875 C 17.675781 -14.125 19.660156 -13.28125 20.953125 -12.15625 C 22.242188 -11.03125 22.890625 -9.5 22.890625 -7.5625 C 22.890625 -6.394531 22.648438 -5.316406 22.171875 -4.328125 C 21.691406 -3.347656 21 -2.503906 20.09375 -1.796875 C 19.195312 -1.097656 18.109375 -0.5625 16.828125 -0.1875 C 15.554688 0.175781 14.125 0.359375 12.53125 0.359375 Z M 12.53125 0.359375 "/></g></g></g><g fill="#000000" fill-opacity="1"><g transform="translate(573.299348, 143.368403)"><g><path d="M 11.984375 0.28125 C 11.472656 0.28125 11.070312 0.128906 10.78125 -0.171875 C 10.488281 -0.484375 10.34375 -0.90625 10.34375 -1.4375 L 10.34375 -25.234375 L 1.390625 -25.234375 C 0.910156 -25.234375 0.535156 -25.363281 0.265625 -25.625 C 0.00390625 -25.894531 -0.125 -26.238281 -0.125 -26.65625 C -0.125 -27.113281 0.00390625 -27.460938 0.265625 -27.703125 C 0.535156 -27.941406 0.910156 -28.0625 1.390625 -28.0625 L 22.609375 -28.0625 C 23.085938 -28.0625 23.457031 -27.941406 23.71875 -27.703125 C 23.976562 -27.460938 24.109375 -27.113281 24.109375 -26.65625 C 24.109375 -26.207031 23.976562 -25.859375 23.71875 -25.609375 C 23.457031 -25.359375 23.085938 -25.234375 22.609375 -25.234375 L 13.65625 -25.234375 L 13.65625 -1.4375 C 13.65625 -0.90625 13.515625 -0.484375 13.234375 -0.171875 C 12.953125 0.128906 12.535156 0.28125 11.984375 0.28125 Z M 11.984375 0.28125 "/></g></g></g><g fill="#000000" fill-opacity="1"><g transform="translate(601.464001, 143.368403)"><g><path d="M 2.859375 0.28125 C 2.441406 0.28125 2.101562 0.179688 1.84375 -0.015625 C 1.59375 -0.210938 1.445312 -0.476562 1.40625 -0.8125 C 1.375 -1.144531 1.445312 -1.523438 1.625 -1.953125 L 12.578125 -26.859375 C 12.816406 -27.390625 13.097656 -27.765625 13.421875 -27.984375 C 13.753906 -28.210938 14.125 -28.328125 14.53125 -28.328125 C 14.925781 -28.328125 15.289062 -28.210938 15.625 -27.984375 C 15.957031 -27.765625 16.226562 -27.390625 16.4375 -26.859375 L 27.421875 -1.953125 C 27.628906 -1.523438 27.710938 -1.140625 27.671875 -0.796875 C 27.640625 -0.453125 27.503906 -0.1875 27.265625 0 C 27.023438 0.1875 26.691406 0.28125 26.265625 0.28125 C 25.785156 0.28125 25.398438 0.15625 25.109375 -0.09375 C 24.816406 -0.351562 24.578125 -0.71875 24.390625 -1.1875 L 21.453125 -8 L 23.046875 -7.15625 L 5.9375 -7.15625 L 7.5625 -8 L 4.65625 -1.1875 C 4.414062 -0.6875 4.160156 -0.316406 3.890625 -0.078125 C 3.628906 0.160156 3.285156 0.28125 2.859375 0.28125 Z M 14.484375 -24.234375 L 8.078125 -9.15625 L 7.125 -9.90625 L 21.84375 -9.90625 L 20.96875 -9.15625 L 14.5625 -24.234375 Z M 14.484375 -24.234375 "/></g></g></g><g fill="#000000" fill-opacity="1"><g transform="translate(634.680372, 143.368403)"><g><path d="M 15.59375 0.359375 C 12.84375 0.359375 10.484375 -0.222656 8.515625 -1.390625 C 6.554688 -2.554688 5.050781 -4.210938 4 -6.359375 C 2.945312 -8.515625 2.421875 -11.078125 2.421875 -14.046875 C 2.421875 -16.273438 2.71875 -18.269531 3.3125 -20.03125 C 3.914062 -21.800781 4.78125 -23.300781 5.90625 -24.53125 C 7.03125 -25.769531 8.414062 -26.726562 10.0625 -27.40625 C 11.707031 -28.082031 13.550781 -28.421875 15.59375 -28.421875 C 17.238281 -28.421875 18.804688 -28.1875 20.296875 -27.71875 C 21.785156 -27.25 23.070312 -26.566406 24.15625 -25.671875 C 24.5 -25.398438 24.726562 -25.097656 24.84375 -24.765625 C 24.96875 -24.441406 24.984375 -24.125 24.890625 -23.8125 C 24.796875 -23.507812 24.632812 -23.257812 24.40625 -23.0625 C 24.1875 -22.863281 23.914062 -22.765625 23.59375 -22.765625 C 23.28125 -22.765625 22.925781 -22.894531 22.53125 -23.15625 C 21.570312 -23.925781 20.519531 -24.5 19.375 -24.875 C 18.238281 -25.25 17.007812 -25.4375 15.6875 -25.4375 C 13.582031 -25.4375 11.800781 -24.988281 10.34375 -24.09375 C 8.882812 -23.207031 7.785156 -21.914062 7.046875 -20.21875 C 6.304688 -18.519531 5.9375 -16.460938 5.9375 -14.046875 C 5.9375 -11.628906 6.304688 -9.566406 7.046875 -7.859375 C 7.785156 -6.148438 8.882812 -4.847656 10.34375 -3.953125 C 11.800781 -3.066406 13.582031 -2.625 15.6875 -2.625 C 16.976562 -2.625 18.207031 -2.816406 19.375 -3.203125 C 20.539062 -3.585938 21.617188 -4.164062 22.609375 -4.9375 C 23.003906 -5.195312 23.359375 -5.320312 23.671875 -5.3125 C 23.992188 -5.300781 24.257812 -5.203125 24.46875 -5.015625 C 24.6875 -4.828125 24.84375 -4.585938 24.9375 -4.296875 C 25.03125 -4.003906 25.03125 -3.695312 24.9375 -3.375 C 24.84375 -3.0625 24.632812 -2.785156 24.3125 -2.546875 C 23.195312 -1.585938 21.890625 -0.863281 20.390625 -0.375 C 18.890625 0.113281 17.289062 0.359375 15.59375 0.359375 Z M 15.59375 0.359375 "/></g></g></g><g fill="#000000" fill-opacity="1"><g transform="translate(665.669194, 143.368403)"><g><path d="M 5.09375 0.28125 C 4.5625 0.28125 4.15625 0.128906 3.875 -0.171875 C 3.601562 -0.484375 3.46875 -0.90625 3.46875 -1.4375 L 3.46875 -26.65625 C 3.46875 -27.21875 3.601562 -27.632812 3.875 -27.90625 C 4.15625 -28.1875 4.5625 -28.328125 5.09375 -28.328125 C 5.625 -28.328125 6.023438 -28.1875 6.296875 -27.90625 C 6.578125 -27.632812 6.71875 -27.21875 6.71875 -26.65625 L 6.71875 -15.328125 L 6.8125 -15.328125 L 19.78125 -27.421875 C 20.09375 -27.734375 20.410156 -27.960938 20.734375 -28.109375 C 21.054688 -28.253906 21.398438 -28.328125 21.765625 -28.328125 C 22.273438 -28.328125 22.640625 -28.207031 22.859375 -27.96875 C 23.085938 -27.738281 23.175781 -27.445312 23.125 -27.09375 C 23.070312 -26.75 22.882812 -26.421875 22.5625 -26.109375 L 9 -13.53125 L 9.03125 -15.28125 L 23.203125 -2.1875 C 23.597656 -1.8125 23.804688 -1.429688 23.828125 -1.046875 C 23.859375 -0.671875 23.75 -0.351562 23.5 -0.09375 C 23.25 0.15625 22.867188 0.28125 22.359375 0.28125 C 21.960938 0.28125 21.625 0.191406 21.34375 0.015625 C 21.070312 -0.148438 20.765625 -0.40625 20.421875 -0.75 L 6.8125 -13.21875 L 6.71875 -13.21875 L 6.71875 -1.4375 C 6.71875 -0.90625 6.585938 -0.484375 6.328125 -0.171875 C 6.066406 0.128906 5.65625 0.28125 5.09375 0.28125 Z M 5.09375 0.28125 "/></g></g></g></svg>